<?xml version="1.0" encoding="UTF-8"?>
<svg version="1.1" xmlns="http://www.w3.org/2000/svg" width="829" height="829">
<path d="M0 0 C273.57 0 547.14 0 829 0 C829 273.57 829 547.14 829 829 C555.43 829 281.86 829 0 829 C0 555.43 0 281.86 0 0 Z " fill="#FDFDFD" transform="translate(0,0)"/>
<path d="M0 0 C5.84848344 3.33527971 10.83231084 8.13241182 13.9453125 14.109375 C14.6953125 17.984375 14.6953125 17.984375 14.9453125 21.109375 C15.6053125 21.109375 16.2653125 21.109375 16.9453125 21.109375 C17.21085938 21.84542969 17.47640625 22.58148438 17.75 23.33984375 C18.10320312 24.31566406 18.45640625 25.29148437 18.8203125 26.296875 C19.34238281 27.74126953 19.34238281 27.74126953 19.875 29.21484375 C20.85521738 31.86572359 21.88251684 34.4906848 22.9453125 37.109375 C23.6053125 37.109375 24.2653125 37.109375 24.9453125 37.109375 C25.9551598 39.02087168 26.95285745 40.93879069 27.9453125 42.859375 C28.5021875 43.92671875 29.0590625 44.9940625 29.6328125 46.09375 C30.9453125 49.109375 30.9453125 49.109375 30.9453125 53.109375 C31.6053125 53.109375 32.2653125 53.109375 32.9453125 53.109375 C33.9353125 57.069375 33.9353125 57.069375 34.9453125 61.109375 C35.6053125 61.109375 36.2653125 61.109375 36.9453125 61.109375 C37.23664063 61.75261719 37.52796875 62.39585937 37.828125 63.05859375 C43.63796956 75.86582971 49.54979088 88.58422873 55.9453125 101.109375 C57.07302434 103.337171 58.19823372 105.56623647 59.3203125 107.796875 C59.78179687 108.70824219 60.24328125 109.61960937 60.71875 110.55859375 C61.9453125 113.109375 61.9453125 113.109375 62.91796875 115.6015625 C64.4595414 119.36464099 66.56327545 122.78279297 68.60546875 126.29296875 C70.02139192 129.26929704 70.55656464 131.85061205 70.9453125 135.109375 C71.6053125 135.109375 72.2653125 135.109375 72.9453125 135.109375 C73.76136249 137.0245329 74.57301882 138.94156334 75.3828125 140.859375 C75.83527344 141.92671875 76.28773438 142.9940625 76.75390625 144.09375 C77.68510803 146.4507591 78.4237197 148.63930335 78.9453125 151.109375 C79.6053125 151.109375 80.2653125 151.109375 80.9453125 151.109375 C81.2134375 151.79 81.4815625 152.470625 81.7578125 153.171875 C84.28855938 159.4321436 87.04908517 165.50999457 90.0703125 171.546875 C90.40675781 172.22041016 90.74320313 172.89394531 91.08984375 173.58789062 C92.48030045 176.33857671 93.88772652 179.01547223 95.5 181.64453125 C97.28519281 184.68900871 98.56724924 187.86133222 99.9453125 191.109375 C100.54177937 192.31700005 101.14997682 193.51889923 101.76953125 194.71484375 C102.22875977 195.60139648 102.22875977 195.60139648 102.69726562 196.50585938 C103.32828896 197.71389361 103.96381465 198.91958528 104.60351562 200.12304688 C106.33076617 203.47811137 106.9453125 205.23784514 106.9453125 209.109375 C107.6053125 209.109375 108.2653125 209.109375 108.9453125 209.109375 C110.28601568 211.70998004 111.61804604 214.31442416 112.9453125 216.921875 C113.326875 217.65986328 113.7084375 218.39785156 114.1015625 219.15820312 C114.4625 219.87041016 114.8234375 220.58261719 115.1953125 221.31640625 C115.53046875 221.9710083 115.865625 222.62561035 116.2109375 223.30004883 C116.9453125 225.109375 116.9453125 225.109375 116.9453125 228.109375 C101.4353125 228.109375 85.9253125 228.109375 69.9453125 228.109375 C64.29408016 217.37203356 58.83892817 206.91415282 53.7734375 195.94921875 C51.71586445 191.55339522 49.39249038 187.32187901 46.9765625 183.11328125 C45.9453125 181.109375 45.9453125 181.109375 45.9453125 179.109375 C45.2853125 179.109375 44.6253125 179.109375 43.9453125 179.109375 C42.77418304 176.48628401 41.60825286 173.86109358 40.4453125 171.234375 C40.11144531 170.48800781 39.77757812 169.74164063 39.43359375 168.97265625 C38.95986328 167.89951172 38.95986328 167.89951172 38.4765625 166.8046875 C38.18330078 166.14484863 37.89003906 165.48500977 37.58789062 164.80517578 C36.9453125 163.109375 36.9453125 163.109375 36.9453125 161.109375 C36.2853125 161.109375 35.6253125 161.109375 34.9453125 161.109375 C34.6153125 159.129375 34.2853125 157.149375 33.9453125 155.109375 C33.2853125 155.109375 32.6253125 155.109375 31.9453125 155.109375 C31.2853125 152.469375 30.6253125 149.829375 29.9453125 147.109375 C29.2853125 147.109375 28.6253125 147.109375 27.9453125 147.109375 C27.2853125 144.469375 26.6253125 141.829375 25.9453125 139.109375 C25.2853125 139.109375 24.6253125 139.109375 23.9453125 139.109375 C22.9553125 135.809375 21.9653125 132.509375 20.9453125 129.109375 C20.2853125 129.109375 19.6253125 129.109375 18.9453125 129.109375 C15.3014888 122.08200072 11.70737887 114.86958648 9.9453125 107.109375 C9.2853125 107.109375 8.6253125 107.109375 7.9453125 107.109375 C7.64238281 106.35914063 7.33945312 105.60890625 7.02734375 104.8359375 C4.54430421 98.76968091 1.91473859 92.872776 -1.13671875 87.0703125 C-2.0546875 85.109375 -2.0546875 85.109375 -2.0546875 83.109375 C-2.7146875 83.109375 -3.3746875 83.109375 -4.0546875 83.109375 C-4.3846875 81.789375 -4.7146875 80.469375 -5.0546875 79.109375 C-5.7146875 79.109375 -6.3746875 79.109375 -7.0546875 79.109375 C-8.0446875 75.149375 -8.0446875 75.149375 -9.0546875 71.109375 C-11.44713466 71.19497322 -11.44713466 71.19497322 -14.0546875 72.109375 C-15.9824968 74.46574388 -15.9824968 74.46574388 -17.4921875 77.484375 C-18.09417969 78.58652344 -18.69617188 79.68867188 -19.31640625 80.82421875 C-19.89003906 81.90832031 -20.46367187 82.99242187 -21.0546875 84.109375 C-21.97132936 85.75522215 -22.88799531 87.40105588 -23.8046875 89.046875 C-27.31106055 95.51945012 -30.70189817 102.05407289 -34.09667969 108.58569336 C-36.10610553 112.44186022 -38.12525516 116.27644944 -40.3125 120.03515625 C-42.00134461 123.01524753 -43.09484597 125.82991644 -44.0546875 129.109375 C-44.7146875 129.109375 -45.3746875 129.109375 -46.0546875 129.109375 C-46.4259375 130.3159375 -46.4259375 130.3159375 -46.8046875 131.546875 C-48.30731719 135.82936963 -50.21144266 139.96207411 -52.0546875 144.109375 C-39.5146875 144.109375 -26.9746875 144.109375 -14.0546875 144.109375 C-14.3846875 145.099375 -14.7146875 146.089375 -15.0546875 147.109375 C-15.7146875 147.109375 -16.3746875 147.109375 -17.0546875 147.109375 C-17.0546875 147.769375 -17.0546875 148.429375 -17.0546875 149.109375 C-18.59375 150.3359375 -18.59375 150.3359375 -20.6796875 151.734375 C-24.46614597 154.46461085 -26.84182827 157.3160921 -29.5 161.109375 C-31.67089118 163.90207923 -34.26795801 165.99395763 -36.97265625 168.25390625 C-40.00550286 170.95672453 -42.59800991 173.99425607 -45.26171875 177.0546875 C-58.12975452 191.80106401 -58.12975452 191.80106401 -65.0546875 194.109375 C-65.3846875 195.099375 -65.7146875 196.089375 -66.0546875 197.109375 C-66.7146875 197.109375 -67.3746875 197.109375 -68.0546875 197.109375 C-68.3218457 197.70177979 -68.58900391 198.29418457 -68.86425781 198.90454102 C-70.07270916 201.1427535 -71.30327078 202.60216473 -73.1015625 204.38671875 C-73.6996875 204.98291016 -74.2978125 205.57910156 -74.9140625 206.19335938 C-75.53796875 206.80501953 -76.161875 207.41667969 -76.8046875 208.046875 C-77.413125 208.65466797 -78.0215625 209.26246094 -78.6484375 209.88867188 C-82.30331419 213.50840552 -86.07564983 216.85171682 -90.0546875 220.109375 C-93.34753693 223.31280608 -93.34753693 223.31280608 -96.40254211 226.73652649 C-98.61764841 228.57716679 -99.94507216 228.47244284 -102.80151367 228.44995117 C-103.76228317 228.44972458 -104.72305267 228.44949799 -105.7129364 228.44926453 C-106.74739395 228.43378067 -107.7818515 228.41829681 -108.84765625 228.40234375 C-109.90882156 228.39809891 -110.96998688 228.39385406 -112.06330872 228.38948059 C-115.45652515 228.37267206 -118.84915022 228.33501519 -122.2421875 228.296875 C-124.54100706 228.281831 -126.83983591 228.26814211 -129.13867188 228.25585938 C-134.77754592 228.22276145 -140.41607447 228.1725403 -146.0546875 228.109375 C-144.8995142 224.46927383 -143.65404154 221.06688786 -141.8828125 217.68359375 C-141.26140381 216.49515869 -141.26140381 216.49515869 -140.62744141 215.28271484 C-140.19093262 214.4623877 -139.75442383 213.64206055 -139.3046875 212.796875 C-138.63252197 211.52384521 -138.63252197 211.52384521 -137.94677734 210.22509766 C-135.31178658 205.2907898 -132.52943975 200.59487043 -129.29296875 196.02734375 C-127.48406979 193.22554757 -126.24471056 190.24326843 -125.01171875 187.15234375 C-124.0546875 185.109375 -124.0546875 185.109375 -122.578125 183.17578125 C-120.85095869 180.83303515 -119.90311598 178.57422205 -118.8671875 175.859375 C-118.52300781 174.96734375 -118.17882812 174.0753125 -117.82421875 173.15625 C-117.44330078 172.14304687 -117.44330078 172.14304687 -117.0546875 171.109375 C-116.3946875 171.109375 -115.7346875 171.109375 -115.0546875 171.109375 C-114.82136719 170.14128906 -114.58804688 169.17320312 -114.34765625 168.17578125 C-112.99629672 163.45845871 -110.70922607 159.33682973 -108.3671875 155.046875 C-107.46886774 153.37303091 -106.57174268 151.69854513 -105.67578125 150.0234375 C-105.23347168 149.19875977 -104.79116211 148.37408203 -104.33544922 147.52441406 C-101.46374554 142.10945166 -98.76327311 136.60726567 -96.0546875 131.109375 C-95.3946875 131.109375 -94.7346875 131.109375 -94.0546875 131.109375 C-93.94382812 130.38621094 -93.83296875 129.66304687 -93.71875 128.91796875 C-93.01267365 125.93168112 -91.95860523 123.82499695 -90.4296875 121.171875 C-87.25266334 115.53918 -84.39733399 109.79369086 -81.5703125 103.98046875 C-80.0546875 101.109375 -80.0546875 101.109375 -78.0546875 99.109375 C-77.412164 97.04063466 -77.412164 97.04063466 -77.0546875 95.109375 C-76.3946875 95.109375 -75.7346875 95.109375 -75.0546875 95.109375 C-74.79816406 94.09617187 -74.54164063 93.08296875 -74.27734375 92.0390625 C-73.16700932 88.16697761 -71.45005527 84.74094677 -69.4921875 81.234375 C-68.77167165 79.91431553 -68.05163814 78.5939927 -67.33203125 77.2734375 C-66.95804199 76.5918457 -66.58405273 75.91025391 -66.19873047 75.20800781 C-64.28280342 71.69343058 -62.42146125 68.15022587 -60.5546875 64.609375 C-59.79971854 63.18346699 -59.04451085 61.75768534 -58.2890625 60.33203125 C-56.81596757 57.55044374 -55.34785296 54.76630567 -53.8828125 51.98046875 C-48.20288596 41.21364745 -48.20288596 41.21364745 -45.1796875 36.484375 C-43.08827175 33.40638128 -43.08827175 33.40638128 -42.234375 30.96484375 C-40.51479283 26.80254387 -38.26779055 22.96406739 -36.0546875 19.046875 C-35.1581071 17.45224272 -34.26224835 15.85720444 -33.3671875 14.26171875 C-32.97144531 13.56038818 -32.57570313 12.85905762 -32.16796875 12.13647461 C-31.41785832 10.77064853 -30.71295778 9.37913064 -30.05249023 7.96777344 C-28.61658494 5.293413 -26.61138606 4.11031191 -24.1171875 2.421875 C-23.24191406 1.81988281 -22.36664063 1.21789062 -21.46484375 0.59765625 C-15.05223559 -3.36215527 -6.80014827 -2.91828226 0 0 Z " fill="#29694D" transform="translate(366.0546875,276.890625)"/>
<path d="M0 0 C2.03063881 -0.00404692 4.06127477 -0.00987433 6.09190369 -0.01739502 C10.33604765 -0.02621452 14.57943114 -0.01346767 18.82348633 0.01464844 C24.24982926 0.04885514 29.67439287 0.02912213 35.10067081 -0.00678635 C39.28992505 -0.028518 43.4787607 -0.02154466 47.66802788 -0.00601959 C49.66820934 -0.00203205 51.66842945 -0.0068762 53.66856575 -0.02089691 C56.46894437 -0.03622392 59.2664822 -0.01279467 62.06665039 0.02050781 C62.88401672 0.00836243 63.70138306 -0.00378296 64.54351807 -0.01629639 C70.94563391 0.12399376 74.72011899 2.37064917 79.27734375 6.796875 C83.59874739 11.71219107 83.85551754 15.63563755 83.79492188 21.88818359 C83.80193115 22.78329147 83.80894043 23.67839935 83.81616211 24.60063171 C83.8337157 27.5491776 83.82212663 30.49675743 83.80859375 33.4453125 C83.81128989 35.50265689 83.81517333 37.56000004 83.82019043 39.61734009 C83.82608232 43.92633207 83.81753408 48.23499199 83.79882812 52.54394531 C83.77606769 58.05410472 83.78914546 63.5634835 83.81311798 69.07361412 C83.82760871 73.32198917 83.82295443 77.57018082 83.81260681 81.81856155 C83.80994709 83.84944375 83.81318261 85.88034284 83.82252502 87.91120529 C83.83274128 90.75684089 83.81711743 93.60123373 83.79492188 96.44677734 C83.8030188 97.27820755 83.81111572 98.10963776 83.81945801 98.96626282 C83.73442561 104.88303741 82.23196842 108.66798274 79.27734375 113.796875 C78.61734375 113.796875 77.95734375 113.796875 77.27734375 113.796875 C77.27734375 114.456875 77.27734375 115.116875 77.27734375 115.796875 C71.73789253 119.50722059 67.85693246 120.38329468 61.25610352 120.33032227 C59.94248337 120.34324562 59.94248337 120.34324562 58.60232544 120.35643005 C55.72416129 120.3790249 52.84697599 120.37236296 49.96875 120.36328125 C47.95767428 120.36851984 45.94660103 120.37479718 43.93553162 120.38206482 C39.72667861 120.39245718 35.51816395 120.3879244 31.30932617 120.37329102 C25.92798484 120.3561083 20.54771177 120.37959859 15.1664896 120.41478062 C11.01503994 120.43679003 6.86384448 120.43530447 2.71235466 120.4270153 C0.72890997 120.42619767 -1.25455372 120.43302503 -3.23794365 120.44778633 C-6.01662842 120.46529711 -8.79341156 120.45063586 -11.57202148 120.42797852 C-12.78875801 120.44551682 -12.78875801 120.44551682 -14.03007507 120.46340942 C-21.331115 120.34288922 -26.18131665 117.40174809 -31.22265625 112.234375 C-32.72265625 109.796875 -32.72265625 109.796875 -32.72265625 105.796875 C-33.38265625 105.796875 -34.04265625 105.796875 -34.72265625 105.796875 C-34.83873524 94.21787697 -34.92746567 82.63901838 -34.98171711 71.05955601 C-35.00776109 65.68215376 -35.04306429 60.30515093 -35.09985352 54.92797852 C-35.15435847 49.73432959 -35.18411587 44.54106377 -35.19704247 39.3471508 C-35.20624919 37.37006542 -35.22422784 35.39299994 -35.25130653 33.41607857 C-35.52203128 12.82411436 -35.52203128 12.82411436 -29.72265625 6.796875 C-29.19284149 6.19454544 -28.66302673 5.59221588 -28.11715698 4.97163391 C-20.59095049 -1.67126718 -9.37945068 -0.06582572 0 0 Z " fill="#1C6246" transform="translate(532.72265625,63.203125)"/>
<path d="M0 0 C1.92348996 -0.00599823 3.84697754 -0.01280671 5.77046204 -0.02035522 C10.94751061 -0.03787355 16.12449291 -0.04270407 21.30156827 -0.0439868 C24.54016817 -0.04541506 27.77875156 -0.04969697 31.01734734 -0.05498123 C42.32570328 -0.07342225 53.63401233 -0.08165778 64.94238281 -0.08007812 C75.47236766 -0.07887272 86.00214889 -0.10006828 96.53208214 -0.13156545 C105.59313499 -0.1577007 114.65412108 -0.16844684 123.71521133 -0.16716731 C129.11882885 -0.16665762 134.52226436 -0.17234715 139.92584419 -0.19352341 C144.9977503 -0.21286368 150.06929961 -0.21305918 155.14121819 -0.19849014 C157.00121964 -0.19639694 158.86124325 -0.20113331 160.72120667 -0.21321106 C163.2607713 -0.22863484 165.79910052 -0.2193757 168.33863831 -0.20394897 C169.07355533 -0.2142361 169.80847235 -0.22452323 170.56565958 -0.23512208 C175.64014633 -0.16703011 178.44963033 1.17589526 182.40014648 4.29052734 C183.01245117 4.76748047 183.62475586 5.24443359 184.25561523 5.73583984 C186.64867084 8.9864751 185.77304343 13.45152276 185.40014648 17.29052734 C184.40014648 20.41552734 184.40014648 20.41552734 183.40014648 22.29052734 C182.74014648 22.29052734 182.08014648 22.29052734 181.40014648 22.29052734 C181.40014648 22.95052734 181.40014648 23.61052734 181.40014648 24.29052734 C177.6134681 26.77061007 173.7893117 26.57457436 169.42488098 26.55554199 C168.21033919 26.5621139 168.21033919 26.5621139 166.9712612 26.56881857 C164.25454784 26.58115289 161.53802721 26.57932946 158.82128906 26.57763672 C156.8747326 26.58366019 154.92817874 26.59058425 152.98162842 26.5983429 C148.78718615 26.61324249 144.59279158 26.62198385 140.39832497 26.62605286 C133.76270917 26.6327632 127.12719531 26.65451534 120.49162292 26.67858887 C106.39865467 26.7275879 92.30566477 26.75987006 78.21264648 26.79052734 C63.01567054 26.82361562 47.8187344 26.85960248 32.62181967 26.91465807 C26.0293344 26.93797308 19.43691962 26.95173958 12.84439719 26.95815277 C8.73584588 26.96410422 4.62735144 26.97821234 0.51882935 26.9944973 C-1.38181632 27.00035831 -3.28247594 27.00284864 -5.18313026 27.00165749 C-7.78543017 27.0004919 -10.38741313 27.01156619 -12.9896698 27.0255127 C-13.73502446 27.02221372 -14.48037912 27.01891475 -15.24832028 27.0155158 C-29.16178812 27.13787557 -41.05353367 33.21721417 -51.12329102 42.70849609 C-54.80690487 46.65522522 -56.58604442 51.33991332 -58.59985352 56.29052734 C-59.1182612 57.45160224 -59.63666889 58.61267714 -60.1707859 59.80893612 C-62.11605423 65.05926372 -62.00870081 70.14097645 -61.9649353 75.68348694 C-61.9680543 76.81244383 -61.9711733 77.94140072 -61.97438681 79.10456842 C-61.98131664 82.87770897 -61.96701146 86.65046802 -61.95288086 90.42358398 C-61.95201877 93.13258837 -61.95575863 95.84158133 -61.95942688 98.55058289 C-61.96516278 104.37924793 -61.96056007 110.20782968 -61.9494133 116.03648567 C-61.93373545 124.47128397 -61.93933447 132.90597052 -61.95102973 141.34077054 C-61.96990844 155.03699562 -61.97914202 168.73320549 -61.97875977 182.42944336 C-61.97874232 183.24849285 -61.97872488 184.06754234 -61.97870691 184.91141152 C-61.97825457 194.05196669 -61.97492361 203.19251639 -61.96783447 212.33306885 C-61.96720209 213.15517843 -61.96656971 213.97728801 -61.96591816 214.82431 C-61.9652856 215.64562149 -61.96465303 216.46693298 -61.9640013 217.3131327 C-61.96273152 218.96941594 -61.96146611 220.62569918 -61.96020508 222.28198242 C-61.95957689 223.10033359 -61.9589487 223.91868476 -61.95830147 224.76183445 C-61.94834633 238.40931794 -61.95767336 252.05671065 -61.98238909 265.70417494 C-61.99681879 274.1176565 -61.99475592 282.53081854 -61.9714271 290.94428169 C-61.9566778 296.70791461 -61.95983305 302.47136021 -61.97705601 308.23498566 C-61.98639192 311.55967689 -61.98481012 314.88342128 -61.96682549 318.20814133 C-61.9485253 321.81407513 -61.96084953 325.41865597 -61.98080444 329.02455139 C-61.96808483 330.07260627 -61.95536521 331.12066115 -61.94226015 332.20047528 C-62.02172734 338.85503415 -63.02996286 342.35907856 -67.59985352 347.29052734 C-71.65727942 348.64300264 -75.36208274 348.96708373 -79.59985352 348.29052734 C-82.8816067 345.7608426 -84.29229129 344.21321403 -85.59985352 340.29052734 C-85.69102395 338.72888411 -85.72539216 337.16361027 -85.72569466 335.59930801 C-85.7283024 334.62926779 -85.73091015 333.65922757 -85.73359692 332.65979218 C-85.7313662 331.59162192 -85.72913548 330.52345166 -85.72683716 329.4229126 C-85.72839715 328.29006073 -85.72995714 327.15720886 -85.7315644 325.99002814 C-85.7355699 322.17384037 -85.73238643 318.35769201 -85.72924805 314.54150391 C-85.73005195 311.81353675 -85.73234609 309.0855713 -85.73455811 306.35760498 C-85.73901189 299.70411998 -85.7380409 293.05064624 -85.73514546 286.3971608 C-85.73288914 280.98872871 -85.73257991 275.58029979 -85.73366928 270.17186737 C-85.73382251 269.40274448 -85.73397575 268.63362158 -85.73413362 267.84119193 C-85.73445334 266.27879065 -85.73477756 264.71638937 -85.73510621 263.15398809 C-85.73796006 248.49120801 -85.73467588 233.82843417 -85.72930585 219.16565511 C-85.72484145 206.58650782 -85.72561092 194.00736977 -85.73022461 181.42822266 C-85.73557819 166.82491267 -85.73768162 152.22160817 -85.73461235 137.61829734 C-85.7342938 136.06034835 -85.73397943 134.50239937 -85.73366928 132.94445038 C-85.73351501 132.17789767 -85.73336073 131.41134497 -85.73320178 130.62156339 C-85.73233872 125.22217709 -85.73379506 119.82279427 -85.73614883 114.42340851 C-85.73895588 107.83936639 -85.7381896 101.25533619 -85.73286809 94.67129543 C-85.73024276 91.31250414 -85.7297459 87.95374913 -85.73251724 84.59495544 C-85.73524606 80.95197598 -85.73182623 77.30905254 -85.72683716 73.66607666 C-85.72906788 72.60682928 -85.7312986 71.54758191 -85.73359692 70.45623612 C-85.71985951 65.29118978 -85.49775958 60.37988104 -84.59985352 55.29052734 C-83.93985352 55.29052734 -83.27985352 55.29052734 -82.59985352 55.29052734 C-82.68235352 54.09427734 -82.76485352 52.89802734 -82.84985352 51.66552734 C-82.84985352 47.12186937 -81.30008301 44.96583972 -78.59985352 41.29052734 C-77.94595338 39.84492168 -77.3227618 38.38517587 -76.72485352 36.91552734 C-74.0121954 30.58243181 -69.85046265 24.79104946 -64.59985352 20.29052734 C-63.93985352 20.29052734 -63.27985352 20.29052734 -62.59985352 20.29052734 C-62.59985352 19.63052734 -62.59985352 18.97052734 -62.59985352 18.29052734 C-61.93985352 18.29052734 -61.27985352 18.29052734 -60.59985352 18.29052734 C-60.59985352 17.63052734 -60.59985352 16.97052734 -60.59985352 16.29052734 C-54.72558675 11.90642384 -48.23701841 8.371554 -41.59985352 5.29052734 C-40.58922852 4.75427734 -39.57860352 4.21802734 -38.53735352 3.66552734 C-26.88908072 -1.13529111 -12.34995078 -0.00777432 0 0 Z " fill="#9FAC92" transform="translate(287.599853515625,104.70947265625)"/>
<path d="M0 0 C0.97357201 -0.0098568 0.97357201 -0.0098568 1.96681213 -0.01991272 C4.12940587 -0.03972075 6.29192925 -0.05133686 8.45458984 -0.0612793 C9.19619732 -0.06535482 9.93780479 -0.06943035 10.70188522 -0.07362938 C14.64191156 -0.09454131 18.58190274 -0.10880971 22.52197266 -0.11816406 C26.55521065 -0.12912204 30.58788046 -0.16338057 34.62092018 -0.20333576 C37.74920519 -0.22977415 40.87736191 -0.23788061 44.00574875 -0.24144554 C45.48941169 -0.24625721 46.97307108 -0.2577121 48.45662308 -0.27648354 C66.70080575 -0.49260877 82.02565516 3.67468763 95.35302734 16.67700195 C101.61425052 24.76780333 103.2419534 33.54558991 103.29052734 43.48950195 C103.29673096 44.32497559 103.30293457 45.16044922 103.30932617 46.02124023 C103.19358364 51.70222252 102.04762382 55.96444994 99.79052734 61.17700195 C99.48630859 61.91950195 99.18208984 62.66200195 98.86865234 63.42700195 C93.0260399 75.77365466 83.20738084 81.79978779 70.72412109 86.4152832 C63.37210275 88.32426267 55.83791267 88.31720689 48.28662109 88.2746582 C47.32272964 88.27324326 46.3588382 88.27182831 45.36573792 88.27037048 C42.31980136 88.26482137 39.27394127 88.25227864 36.22802734 88.23950195 C34.14925237 88.23448037 32.07047624 88.22991862 29.99169922 88.22583008 C24.92461295 88.21486867 19.85758306 88.19763975 14.79052734 88.17700195 C14.79274796 88.73854477 14.79496857 89.30008759 14.79725647 89.87864685 C14.81931041 95.7018063 14.83443439 101.52495396 14.84545898 107.34814453 C14.85050042 109.52393068 14.85733342 111.69971342 14.8659668 113.87548828 C14.87804072 116.99553262 14.88375739 120.11553234 14.88818359 123.2355957 C14.89334488 124.21475449 14.89850616 125.19391327 14.90382385 126.20274353 C14.90393715 127.55403099 14.90393715 127.55403099 14.90405273 128.93261719 C14.90627335 129.72981674 14.90849396 130.5270163 14.91078186 131.34837341 C14.79052734 133.17700195 14.79052734 133.17700195 13.79052734 134.17700195 C12.3140007 134.27580992 10.83285499 134.30779441 9.35302734 134.30981445 C8.01111328 134.31174805 8.01111328 134.31174805 6.64208984 134.3137207 C5.70107422 134.30985352 4.76005859 134.30598633 3.79052734 134.30200195 C2.84951172 134.30586914 1.90849609 134.30973633 0.93896484 134.3137207 C0.04435547 134.31243164 -0.85025391 134.31114258 -1.77197266 134.30981445 C-2.59826172 134.30868652 -3.42455078 134.30755859 -4.27587891 134.30639648 C-6.20947266 134.17700195 -6.20947266 134.17700195 -7.20947266 133.17700195 C-7.30786972 131.47106104 -7.33579294 129.76102225 -7.3364563 128.05224609 C-7.33927612 126.94164825 -7.34209595 125.83105042 -7.34500122 124.6867981 C-7.34297699 123.45766693 -7.34095276 122.22853577 -7.33886719 120.9621582 C-7.34061951 119.67614716 -7.34237183 118.39013611 -7.34417725 117.06515503 C-7.34875119 113.52806031 -7.34696218 109.99099463 -7.34379816 106.45389938 C-7.34127436 102.7601183 -7.34361215 99.06633977 -7.34518433 95.37255859 C-7.34700596 89.16837109 -7.34459987 82.96419547 -7.33984375 76.76000977 C-7.33440114 69.57716831 -7.3361638 62.39435524 -7.34167016 55.21151447 C-7.34620146 49.0552639 -7.34685175 42.8990219 -7.34423149 36.7427702 C-7.3426688 33.06118492 -7.3424747 29.379613 -7.34576797 25.69802856 C-7.34918078 21.59595038 -7.34445668 17.49392148 -7.33886719 13.3918457 C-7.34089142 12.16271454 -7.34291565 10.93358337 -7.34500122 9.66720581 C-7.3421814 8.55660797 -7.33936157 7.44601013 -7.3364563 6.30175781 C-7.33607927 5.33056503 -7.33570225 4.35937225 -7.3353138 3.35874939 C-7.07472035 -1.15924124 -3.83520096 0.03204114 0 0 Z " fill="#293531" transform="translate(282.20947265625,595.822998046875)"/>
<path d="M0 0 C0.79615723 -0.0095874 1.59231445 -0.0191748 2.41259766 -0.02905273 C15.84348203 0.04771911 25.99618102 6.07480383 36.3125 14.25 C36.3125 10.29 36.3125 6.33 36.3125 2.25 C42.9125 2.25 49.5125 2.25 56.3125 2.25 C56.3125 33.27 56.3125 64.29 56.3125 96.25 C50.0425 96.25 43.7725 96.25 37.3125 96.25 C35.50134044 94.43884044 35.93050552 91.63721773 35.75 89.1875 C35.62431641 87.53041016 35.62431641 87.53041016 35.49609375 85.83984375 C35.43550781 84.98519531 35.37492188 84.13054687 35.3125 83.25 C34.85101562 83.69730469 34.38953125 84.14460937 33.9140625 84.60546875 C28.80626791 89.33976848 23.73070794 92.56262152 17.3125 95.25 C16.55453125 95.57097656 15.7965625 95.89195312 15.015625 96.22265625 C7.29602916 99.00740978 -0.61513929 98.59060594 -8.6875 98.25 C-9.49703125 98.2190625 -10.3065625 98.188125 -11.140625 98.15625 C-22.42124582 97.23912636 -33.266985 90.49203216 -40.921875 82.42578125 C-51.86489712 68.94068541 -53.81195455 57.02502603 -52.6875 40.25 C-51.20900307 28.3951428 -45.45175207 18.69417773 -36.265625 11.1015625 C-24.46796393 2.62869682 -14.19852112 0.15162939 0 0 Z " fill="#2A3532" transform="translate(514.6875,633.75)"/>
<path d="M0 0 C1.56911133 -0.04350586 1.56911133 -0.04350586 3.16992188 -0.08789062 C10.89575951 -0.15182181 10.89575951 -0.15182181 14.91796875 2.20703125 C16.6875 4.3125 16.6875 4.3125 16.6875 6.3125 C17.3475 6.3125 18.0075 6.3125 18.6875 6.3125 C18.75755942 32.1552332 18.81047317 57.99795217 18.84293652 83.84076118 C18.85840998 95.83983661 18.87950872 107.83885305 18.91381836 119.83789062 C18.94370596 130.2953978 18.96307152 140.75286226 18.96976548 151.21041095 C18.97367881 156.74837142 18.98288576 162.28620968 19.00469017 167.82413101 C19.02504513 173.03612177 19.03133576 178.24793992 19.02682304 183.45996666 C19.02764868 185.37317403 19.03362018 187.28638715 19.04511642 189.19956017 C19.06004501 191.81197334 19.05645229 194.42373504 19.04826355 197.03616333 C19.05700207 197.79298499 19.0657406 198.54980665 19.07474393 199.32956231 C19.03472649 204.05370291 18.21945996 207.31377034 15.6875 211.3125 C10.71980776 214.14672071 5.31828027 213.7170516 -0.25 213.75 C-1.22646484 213.78287109 -2.20292969 213.81574219 -3.20898438 213.84960938 C-7.79899708 213.88383998 -11.24966358 213.90864378 -14.94140625 210.97265625 C-18.74587664 206.70437892 -18.46285 202.86644665 -18.46640015 197.43057251 C-18.47297353 196.21307896 -18.47297353 196.21307896 -18.4796797 194.97098958 C-18.49307107 192.24188786 -18.49924726 189.51281843 -18.50537109 186.78369141 C-18.51327162 184.8307938 -18.52154054 182.87789765 -18.53015137 180.92500305 C-18.55637125 174.50470372 -18.57167629 168.08439786 -18.5859375 161.6640625 C-18.59129668 159.4554888 -18.59667419 157.24691514 -18.60206985 155.03834152 C-18.62369612 145.85424426 -18.64243458 136.67014877 -18.65369225 127.48603249 C-18.66994396 114.3136786 -18.70315442 101.1416191 -18.76009309 87.96937621 C-18.79874736 78.71241389 -18.81831943 69.45553047 -18.82361281 60.19848955 C-18.82727168 54.6666737 -18.83935036 49.13517183 -18.87171555 43.60344315 C-18.90171761 38.40116483 -18.90813608 33.19939181 -18.89633179 27.99704552 C-18.89611041 26.08663109 -18.90446815 24.17619373 -18.92198563 22.2658596 C-18.94458756 19.65942522 -18.93642506 17.05483715 -18.92050171 14.44839478 C-18.9343838 13.69070663 -18.94826588 12.93301849 -18.96256864 12.1523701 C-18.90253106 8.16971415 -18.45808976 6.49024822 -15.89949989 3.36650658 C-10.86388823 -0.63163023 -6.24041137 0.05704215 0 0 Z " fill="#94A68B" transform="translate(510.3125,291.6875)"/>
<path d="M0 0 C4.09293966 2.62765317 7.44284637 5.32853912 9 10 C9.09998432 12.60776381 9.14344096 15.18890306 9.14044189 17.79685974 C9.14341302 18.59949959 9.14638414 19.40213945 9.1494453 20.22910172 C9.15814086 22.92805419 9.1596413 25.62696235 9.16113281 28.32592773 C9.16576059 30.2576151 9.17078519 32.18930155 9.17617798 34.12098694 C9.18931282 39.37764537 9.19574971 44.63429103 9.20018864 49.89096332 C9.20311922 53.1771129 9.20722413 56.46325899 9.21169281 59.74940681 C9.22537413 70.03623165 9.23503618 80.32304851 9.2388947 90.60988182 C9.24336918 102.47341834 9.26088606 114.33683929 9.2898953 126.20034069 C9.31154812 135.37503749 9.321601 144.54970188 9.32293582 153.72442394 C9.32398179 159.20104193 9.3298447 164.67755137 9.34775543 170.15414238 C9.36429707 175.31285305 9.36636211 180.47137433 9.35761642 185.63010216 C9.35684915 187.51659911 9.36114758 189.40310649 9.37107468 191.28957748 C9.44509482 206.24128515 7.21950496 218.26686949 1 232 C0.64679687 232.82371094 0.29359375 233.64742187 -0.0703125 234.49609375 C-1.0625 236.6875 -1.0625 236.6875 -3 240 C-3.65871094 240.15082031 -4.31742188 240.30164063 -4.99609375 240.45703125 C-5.65738281 240.63621094 -6.31867187 240.81539062 -7 241 C-8.08186345 242.87166111 -8.08186345 242.87166111 -9 245 C-16.85122065 253.6186332 -28.6308475 259.72080669 -40 262 C-43.63 262 -47.26 262 -51 262 C-51 254.08 -51 246.16 -51 238 C-48.73125 237.360625 -46.4625 236.72125 -44.125 236.0625 C-34.68842531 233.11831331 -27.82397123 227.74256369 -23 219 C-17.15920164 207.31840329 -17.72758595 194.77058318 -17.79223633 182.0378418 C-17.79440083 180.13464949 -17.79558458 178.23145585 -17.79586792 176.32826233 C-17.79791388 172.24959888 -17.80557465 168.17099879 -17.8173008 164.09235191 C-17.83452571 157.64184209 -17.83119266 151.19144362 -17.82365417 144.74092102 C-17.80450826 126.40526225 -17.79790131 108.06975082 -17.84545898 89.73413086 C-17.87159556 79.59249887 -17.87295255 69.4511852 -17.84631175 59.30955058 C-17.83331664 53.94817449 -17.83337225 48.5874894 -17.8641758 43.22617149 C-17.89305867 38.19019162 -17.88970807 33.15527319 -17.86156845 28.11929893 C-17.85706805 26.27219574 -17.86454511 24.42501856 -17.88489723 22.578022 C-18.0291251 8.61317166 -18.0291251 8.61317166 -15.45487022 4.57798195 C-13.68358487 3.01653766 -12.14318435 1.96801069 -10 1 C-6.695257 -0.6523715 -3.54241354 -0.77277782 0 0 Z " fill="#20503C" transform="translate(604,204)"/>
<path d="M0 0 C6.6 0 13.2 0 20 0 C20.99 3.96 20.99 3.96 22 8 C22.66 8 23.32 8 24 8 C24.495 10.97 24.495 10.97 25 14 C25.66 14 26.32 14 27 14 C32.55580866 24.37357631 32.55580866 24.37357631 33 30 C33.66 30 34.32 30 35 30 C35.99 33.96 35.99 33.96 37 38 C37.66 38 38.32 38 39 38 C39.99 41.96 39.99 41.96 41 46 C41.66 46 42.32 46 43 46 C48.55580866 56.37357631 48.55580866 56.37357631 49 62 C49.66 62 50.32 62 51 62 C51.99 65.96 51.99 65.96 53 70 C53.66 70 54.32 70 55 70 C55.29132813 70.75023437 55.58265625 71.50046875 55.8828125 72.2734375 C58.34271854 78.41546705 61.08635552 83.96921825 64.59375 89.5703125 C66.4385445 92.75770744 67.70518592 96.05408139 69.00390625 99.4921875 C70.71569491 103.80186719 72.87895799 107.88067726 75 112 C75.64786505 113.29064881 76.2938043 114.58226673 76.9375 115.875 C78.13922154 118.2883338 79.35454618 120.69333475 80.58203125 123.09375 C81.13246094 124.1765625 81.68289062 125.259375 82.25 126.375 C83.03117187 127.90253906 83.03117187 127.90253906 83.828125 129.4609375 C85 132 85 132 85 134 C76.75 134 68.5 134 60 134 C58.79557292 131.03776042 57.59114583 128.07552083 56.38671875 125.11328125 C55.10773428 122.24187105 53.64348268 119.67291689 52 117 C51.25804788 115.29028424 50.51761404 113.5797737 49.80078125 111.859375 C47.85967433 107.35221941 45.5264407 103.00920807 43.2578125 98.66015625 C40.10586499 92.56091181 37.22767497 86.82041647 36 80 C35.34 80 34.68 80 34 80 C33.22650218 78.4805201 32.4563552 76.95933433 31.6875 75.4375 C31.25824219 74.59058594 30.82898438 73.74367188 30.38671875 72.87109375 C29.38862564 70.80461928 28.45009843 68.70899119 27.55078125 66.59765625 C25.99459695 62.98746546 24.28286312 59.50316963 22.5 56 C20.15522683 51.39272641 18.00860671 46.7631151 16 42 C14.99040355 39.70336076 13.9698568 37.41149869 12.9375 35.125 C12.43089844 33.99320313 11.92429687 32.86140625 11.40234375 31.6953125 C10.28091184 28.89585469 10.28091184 28.89585469 8 28 C7.92394531 28.98097656 7.84789063 29.96195313 7.76953125 30.97265625 C7.0962284 35.66219293 4.98599516 39.35169501 2.6875 43.4375 C1.89883784 44.87320294 1.11107321 46.30939928 0.32421875 47.74609375 C-0.06233887 48.44782715 -0.44889648 49.14956055 -0.84716797 49.87255859 C-3.69604587 55.12989066 -6.27575832 60.25252775 -8 66 C-8.66 66 -9.32 66 -10 66 C-10.1134375 66.556875 -10.226875 67.11375 -10.34375 67.6875 C-11.34831291 71.22738834 -13.14048059 74.31440485 -14.84375 77.5625 C-15.87786993 79.74253661 -16.4595643 81.66551518 -17 84 C-16.16434761 83.99000725 -16.16434761 83.99000725 -15.31181335 83.97981262 C-9.5208411 83.91351434 -3.72997639 83.8682225 2.0612793 83.83520508 C4.22343321 83.82010556 6.38555643 83.79962429 8.54760742 83.77368164 C11.652909 83.73734983 14.75780614 83.72028538 17.86328125 83.70703125 C18.83211746 83.69154739 19.80095367 83.67606354 20.79914856 83.66011047 C22.15020943 83.65977058 22.15020943 83.65977058 23.52856445 83.65942383 C24.32132278 83.65276199 25.11408112 83.64610016 25.93086243 83.63923645 C28.52794105 84.09204892 29.36734418 84.97600699 31 87 C32.0625 88.8671875 32.0625 88.8671875 33 90.875 C34.16392782 93.31029512 35.34199105 95.56184244 36.75 97.875 C38 100 38 100 38 102 C16.55 102.33 -4.9 102.66 -27 103 C-30.63312996 110.96251095 -30.63312996 110.96251095 -33.9375 119.0625 C-34.28039062 119.86558594 -34.62328125 120.66867187 -34.9765625 121.49609375 C-36.06790765 124.02017417 -36.06790765 124.02017417 -36.7734375 126.84765625 C-38.0984029 130.3891991 -38.84648752 131.82828409 -42 134 C-49.5586056 135.28682007 -57.39550675 134.59856147 -65 134 C-64.24280633 129.4308935 -62.62333963 126.83045606 -60 123 C-58.73537919 120.58511239 -57.61646276 118.11126453 -56.5 115.625 C-55.89415697 114.29775318 -55.28739369 112.97092602 -54.6796875 111.64453125 C-54.3919043 111.01498535 -54.10412109 110.38543945 -53.80761719 109.73681641 C-52.79900231 107.56774561 -51.72184219 105.43813213 -50.625 103.3125 C-49.3566285 100.72697348 -48.61119061 98.75035775 -48 96 C-47.34 96 -46.68 96 -46 96 C-45.75894531 94.87722656 -45.51789062 93.75445313 -45.26953125 92.59765625 C-44.01085161 87.57730367 -41.93141073 83.08480602 -39.6875 78.4375 C-39.30916016 77.62603516 -38.93082031 76.81457031 -38.54101562 75.97851562 C-36.74411439 72.21140796 -34.91549169 68.74341567 -32.39453125 65.41015625 C-30.15129623 62.42033439 -28.92483692 59.50649204 -27.71582031 55.98681641 C-26.54860604 52.74712005 -24.95333864 49.74248938 -23.375 46.6875 C-19.85186721 39.76797774 -16.49883221 32.78008827 -13.23388672 25.73510742 C-11.0338819 21.03103621 -8.65456993 16.48758935 -6.06420898 11.98583984 C-4.68939362 9.42040095 -3.81591594 6.7877128 -3 4 C-2.67 3.34 -2.34 2.68 -2 2 C-1.34 2 -0.68 2 0 2 C0 1.34 0 0.68 0 0 Z " fill="#1E6348" transform="translate(88,596)"/>
<path d="M0 0 C6.47108137 4.71048086 11.68167079 9.84297579 14.16796875 17.578125 C14.41738724 18.17052475 14.66680573 18.7629245 14.92378235 19.37327576 C17.77052244 26.55043897 17.55129961 33.62308032 17.4609375 41.23828125 C17.45533086 42.63788901 17.45106582 44.03750273 17.44807434 45.43711853 C17.43670936 49.09175338 17.40731617 52.74602122 17.3739624 56.4005127 C17.3430796 60.14130695 17.3295304 63.88216144 17.31445312 67.62304688 C17.28243671 74.94157219 17.23134396 82.25979685 17.16796875 89.578125 C13.85548688 89.60700646 10.54303708 89.62488299 7.23046875 89.640625 C6.28494141 89.64900391 5.33941406 89.65738281 4.36523438 89.66601562 C3.01655273 89.67084961 3.01655273 89.67084961 1.640625 89.67578125 C0.39164429 89.68363647 0.39164429 89.68363647 -0.88256836 89.69165039 C-2.83203125 89.578125 -2.83203125 89.578125 -3.83203125 88.578125 C-3.93436507 86.81548594 -3.96773975 85.04879962 -3.97387695 83.28320312 C-3.98442863 81.58508484 -3.98442863 81.58508484 -3.99519348 79.85266113 C-3.99935776 78.61737671 -4.00352203 77.38209229 -4.0078125 76.109375 C-4.03102421 73.51040869 -4.05514208 70.91145034 -4.08007812 68.3125 C-4.1163711 64.20247494 -4.14616509 60.09259545 -4.15795898 55.98242188 C-4.17006103 52.02446243 -4.21374959 48.06711072 -4.2578125 44.109375 C-4.25590408 42.89028442 -4.25399567 41.67119385 -4.25202942 40.41516113 C-4.38201974 31.29273816 -6.06005415 23.16199163 -12.83203125 16.578125 C-21.24339756 11.45136248 -29.05284235 10.8177561 -38.83203125 11.578125 C-45.80161509 13.28799623 -52.07269529 16.47398792 -56.16337585 22.55831909 C-60.20549 29.85112318 -60.56518271 36.23203383 -60.5390625 44.4609375 C-60.55418381 45.75635468 -60.56930511 47.05177185 -60.58488464 48.38644409 C-60.62441272 51.79605 -60.63490389 55.20512129 -60.63891602 58.6149292 C-60.64830909 62.10803112 -60.68576031 65.60082678 -60.72070312 69.09375 C-60.78494936 75.92183134 -60.81845912 82.74975963 -60.83203125 89.578125 C-63.97784548 89.60701014 -67.12362594 89.62488423 -70.26953125 89.640625 C-71.16736328 89.64900391 -72.06519531 89.65738281 -72.99023438 89.66601562 C-74.27124023 89.67084961 -74.27124023 89.67084961 -75.578125 89.67578125 C-76.36888428 89.68101807 -77.15964355 89.68625488 -77.97436523 89.69165039 C-79.83203125 89.578125 -79.83203125 89.578125 -80.83203125 88.578125 C-80.9272703 85.68669349 -80.95756152 82.81920436 -80.94555664 79.92749023 C-80.94570267 79.02026215 -80.94584869 78.11303406 -80.94599915 77.17831421 C-80.94529966 74.16442515 -80.93750559 71.15059707 -80.9296875 68.13671875 C-80.92782345 66.05306533 -80.92639949 63.96941146 -80.92539978 61.88575745 C-80.92157359 56.38989054 -80.91174245 50.89404987 -80.9006958 45.39819336 C-80.89048385 39.79476273 -80.88590262 34.19132787 -80.88085938 28.58789062 C-80.87012027 17.584622 -80.85252266 6.58137979 -80.83203125 -4.421875 C-74.23203125 -4.421875 -67.63203125 -4.421875 -60.83203125 -4.421875 C-60.83203125 -0.461875 -60.83203125 3.498125 -60.83203125 7.578125 C-60.17203125 7.578125 -59.51203125 7.578125 -58.83203125 7.578125 C-58.58710937 6.98128906 -58.3421875 6.38445313 -58.08984375 5.76953125 C-54.53322333 -0.42694098 -46.32177718 -3.33195682 -39.83203125 -5.421875 C-39.26097656 -5.60621094 -38.68992187 -5.79054688 -38.1015625 -5.98046875 C-25.53044802 -8.42545315 -10.98207443 -6.64125448 0 0 Z " fill="#2A3533" transform="translate(684.83203125,640.421875)"/>
<path d="M0 0 C4.95481833 4.181471 8.91705598 9.25158987 10.0625 15.75 C10.86550566 27.67660862 10.2212869 36.89107288 2.5 46.5625 C-3.44229658 52.86155735 -11.68441787 56.43200201 -20.29296875 56.953125 C-32.84130534 57.10662147 -40.41403108 55.21732896 -49.9375 46.75 C-50.6490625 46.12351562 -51.360625 45.49703125 -52.09375 44.8515625 C-54.20140814 42.44918945 -54.83874294 40.63935565 -55.625 37.5625 C-56.26516278 34.37472966 -56.26516278 34.37472966 -57.9375 31.75 C-58.61964382 22.98277454 -58.5813555 15.43022255 -53.9375 7.75 C-53.40125 6.71875 -52.865 5.6875 -52.3125 4.625 C-47.81709122 -0.81681063 -41.41539385 -5.75877262 -34.31640625 -7.03515625 C-21.70927276 -8.17373152 -10.54337457 -7.5905349 0 0 Z " fill="#F8FAF9" transform="translate(540.9375,658.25)"/>
<path d="M0 0 C7.26 0 14.52 0 22 0 C23.28311978 2.56623957 23.12298145 4.3775473 23.12025452 7.2517395 C23.12162918 8.36515717 23.12300385 9.47857483 23.12442017 10.62573242 C23.12082489 11.85283936 23.11722961 13.07994629 23.11352539 14.34423828 C23.11367142 15.63200165 23.11381744 16.91976501 23.1139679 18.24655151 C23.11425549 21.78352423 23.10836483 25.32046322 23.10139394 28.85742807 C23.09515415 32.55166867 23.0945561 36.24590998 23.09336853 39.94015503 C23.09025706 46.93829104 23.08204615 53.93641148 23.07201904 60.93454063 C23.06085219 68.90057598 23.05534601 76.86661206 23.05032361 84.83265328 C23.03986339 101.22177798 23.02226751 117.610887 23 134 C19.35418313 134.02887512 15.70839537 134.04675585 12.0625 134.0625 C11.02158203 134.07087891 9.98066406 134.07925781 8.90820312 134.08789062 C7.91884766 134.09111328 6.92949219 134.09433594 5.91015625 134.09765625 C4.99371338 134.10289307 4.07727051 134.10812988 3.13305664 134.11352539 C1 134 1 134 0 133 C-0.09624593 131.27907347 -0.12187598 129.55416618 -0.12025452 127.83055115 C-0.12162918 126.71009399 -0.12300385 125.58963684 -0.12442017 124.43522644 C-0.12082489 123.19517349 -0.11722961 121.95512054 -0.11352539 120.67749023 C-0.11367142 119.38011932 -0.11381744 118.08274841 -0.1139679 116.74606323 C-0.11425586 113.17804071 -0.10835932 109.61005152 -0.10139394 106.04203677 C-0.09516021 102.3170938 -0.09455659 98.59215014 -0.09336853 94.86720276 C-0.09025527 87.80882637 -0.08204195 80.7504654 -0.07201904 73.69209582 C-0.06085774 65.65837029 -0.05534741 57.62464404 -0.05032361 49.5909127 C-0.03985933 33.06059918 -0.02205954 16.53030216 0 0 Z " fill="#8EA28B" transform="translate(202,596)"/>
<path d="M0 0 C7.05375 -0.061875 14.1075 -0.12375 21.375 -0.1875 C23.58106934 -0.21481201 25.78713867 -0.24212402 28.06005859 -0.27026367 C29.83951269 -0.27903841 31.61897288 -0.28668 33.3984375 -0.29296875 C34.29731689 -0.30831665 35.19619629 -0.32366455 36.12231445 -0.33947754 C45.64236764 -0.34334643 53.43070459 1.55999716 60.375 8.23828125 C65.4271284 13.71546853 66.3939179 19.43748223 66.28125 26.7890625 C65.39165931 33.78223373 62.1112655 40.22948554 57 45 C49.13511172 49.45533744 41.98029139 50.14794414 33.10546875 50.09765625 C32.26520142 50.09664917 31.42493408 50.09564209 30.5592041 50.09460449 C27.43528875 50.0893921 24.31139293 50.07543087 21.1875 50.0625 C10.6996875 50.0315625 10.6996875 50.0315625 0 50 C0 33.5 0 17 0 0 Z " fill="#FBFCFC" transform="translate(297,615)"/>
<path d="M0 0 C6.93 0 13.86 0 21 0 C21 45.21 21 90.42 21 137 C14.4 137 7.8 137 1 137 C0 136 0 136 -0.12304783 133.75298977 C-0.12166514 132.25000631 -0.12166514 132.25000631 -0.12025452 130.71665955 C-0.12162918 129.57095993 -0.12300385 128.42526031 -0.12442017 127.24484253 C-0.12082489 125.97673737 -0.11722961 124.7086322 -0.11352539 123.40209961 C-0.11324352 122.06206769 -0.11340125 120.72203561 -0.1139679 119.38200378 C-0.11425587 115.73340562 -0.1083592 112.08484005 -0.10139394 108.43624949 C-0.09516034 104.62722484 -0.0945566 100.8181995 -0.09336853 97.00917053 C-0.09025523 89.79142246 -0.08204186 82.57368946 -0.07201904 75.35594803 C-0.06085786 67.14084743 -0.05534744 58.92574612 -0.05032361 50.71063983 C-0.03985925 33.80708425 -0.02205939 16.90354429 0 0 Z " fill="#2C3634" transform="translate(414,593)"/>
<path d="M0 0 C4.95 0 9.9 0 15 0 C15 8.58 15 17.16 15 26 C23.91 26 32.82 26 42 26 C42 31.28 42 36.56 42 42 C33.09 42 24.18 42 15 42 C15.03959276 50.51162825 15.03959276 50.51162825 15.09008789 59.02319336 C15.09258545 60.07643799 15.09508301 61.12968262 15.09765625 62.21484375 C15.10289307 63.29886475 15.10812988 64.38288574 15.11352539 65.49975586 C15 68 15 68 14 69 C11.66839945 69.09909302 9.33370058 69.12970504 7 69.125 C5.72125 69.12757813 4.4425 69.13015625 3.125 69.1328125 C0 69 0 69 -1 68 C-1.08748207 66.07332493 -1.10697334 64.14348139 -1.09765625 62.21484375 C-1.09515869 61.16159912 -1.09266113 60.10835449 -1.09008789 59.02319336 C-1.08098389 57.67491455 -1.07187988 56.32663574 -1.0625 54.9375 C-1.041875 50.668125 -1.02125 46.39875 -1 42 C-9.58 42 -18.16 42 -27 42 C-27 37.05 -27 32.1 -27 27 C-18.09 27 -9.18 27 0 27 C0 18.09 0 9.18 0 0 Z " fill="#204A3B" transform="translate(751,610)"/>
<path d="M0 0 C3 1 3 1 4.9375 4.3515625 C5.63525714 5.77104554 6.32234531 7.19581098 7 8.625 C7.34289062 9.32496094 7.68578125 10.02492188 8.0390625 10.74609375 C10.16105894 15.11157499 12.10728245 19.53108355 14 24 C14.82724808 25.83608719 15.66018225 27.66962799 16.5 29.5 C17.89297455 32.54791148 19.26809199 35.59648196 20.5625 38.6875 C21.98826062 41.97294838 23.56764073 45.13082072 25.23046875 48.30078125 C26 50 26 50 26 52 C26.66 52 27.32 52 28 52 C28.3853894 52.92280762 28.3853894 52.92280762 28.77856445 53.86425781 C29.9507815 56.66195973 31.13154045 59.45597787 32.3125 62.25 C32.71662109 63.21808594 33.12074219 64.18617188 33.53710938 65.18359375 C33.93349609 66.11816406 34.32988281 67.05273438 34.73828125 68.015625 C35.28029175 69.30388184 35.28029175 69.30388184 35.83325195 70.61816406 C36.93507722 73.05569316 36.93507722 73.05569316 38.64135742 75.18652344 C40 77 40 77 40 79 C39.01 79 38.02 79 37 79 C36.67 79.66 36.34 80.32 36 81 C36 79.35 36 77.7 36 76 C26.90767909 75.97685965 17.81536827 75.95907625 8.72302437 75.94818783 C4.50137418 75.94296272 0.27974409 75.93587178 -3.94189453 75.92456055 C-8.01376672 75.9137185 -12.08561953 75.90772036 -16.15750504 75.90512276 C-17.71328156 75.90327089 -19.26905698 75.89965482 -20.82482529 75.89426994 C-22.99896307 75.88704205 -25.17302016 75.8860098 -27.34716797 75.88647461 C-28.58626923 75.884254 -29.82537048 75.88203339 -31.10202026 75.87974548 C-33.93998046 75.7992628 -33.93998046 75.7992628 -36 77 C-35.67 76.01 -35.34 75.02 -35 74 C-13.55 74 7.9 74 30 74 C25.72272407 64.83477218 25.72272407 64.83477218 17.93086243 56.36076355 C16.74172493 56.3507708 16.74172493 56.3507708 15.52856445 56.34057617 C14.17750359 56.31111153 14.17750359 56.31111153 12.79914856 56.28105164 C11.34589424 56.28695061 11.34589424 56.28695061 9.86328125 56.29296875 C8.37141548 56.27028679 8.37141548 56.27028679 6.84941101 56.24714661 C3.67021255 56.2041307 0.49196098 56.19541806 -2.6875 56.1875 C-4.8418223 56.16436655 -6.99612189 56.13900364 -9.15039062 56.11132812 C-14.43360258 56.04833913 -19.71644244 56.01351489 -25 56 C-24.42182488 52.26874986 -23.85267376 49.21215411 -22.0625 45.875 C-21.72347656 45.23304688 -21.38445312 44.59109375 -21.03515625 43.9296875 C-20.69355469 43.29289063 -20.35195312 42.65609375 -20 42 C-19.32962449 40.66852754 -18.66191328 39.33569945 -18 38 C-17.34 38 -16.68 38 -16 38 C-15.79375 36.72125 -15.5875 35.4425 -15.375 34.125 C-14.32178746 29.381861 -12.32032759 25.9537644 -9.7265625 21.890625 C-7.64125131 18.39938001 -5.90083758 14.80972134 -4.1875 11.125 C-3.88561768 10.48224121 -3.58373535 9.83948242 -3.27270508 9.17724609 C-1.88472151 6.16182108 -0.63239134 3.26872409 0 0 Z " fill="#F5FBF8" transform="translate(96,624)"/>
<path d="M0 0 C10.83984375 -0.09765625 10.83984375 -0.09765625 14 0 C15 1 15 1 15.11352539 3.40844727 C15.10828857 4.45057373 15.10305176 5.4927002 15.09765625 6.56640625 C15.09443359 7.69111328 15.09121094 8.81582031 15.08789062 9.97460938 C15.07532227 11.75061523 15.07532227 11.75061523 15.0625 13.5625 C15.05798828 14.75037109 15.05347656 15.93824219 15.04882812 17.16210938 C15.03699686 20.10809412 15.01906076 23.05405316 15 26 C22.92 26 30.84 26 39 26 C39 30.62 39 35.24 39 40 C31.08 40 23.16 40 15 40 C15 48.25 15 56.5 15 65 C10.05 65 5.1 65 0 65 C0 57.08 0 49.16 0 41 C-8.25 41 -16.5 41 -25 41 C-25 36.05 -25 31.1 -25 26 C-16.75 26 -8.5 26 0 26 C0 17.42 0 8.84 0 0 Z " fill="#FAFBF9" transform="translate(550,91)"/>
<path d="M0 0 C0.495 0.99 0.495 0.99 1 2 C13.54 2 26.08 2 39 2 C38.67 2.99 38.34 3.98 38 5 C37.34 5 36.68 5 36 5 C36 5.66 36 6.32 36 7 C34.4609375 8.2265625 34.4609375 8.2265625 32.375 9.625 C28.58854153 12.35523585 26.21285923 15.2067171 23.5546875 19 C21.38379632 21.79270423 18.78672949 23.88458263 16.08203125 26.14453125 C13.04918464 28.84734953 10.45667759 31.88488107 7.79296875 34.9453125 C-5.07506702 49.69168901 -5.07506702 49.69168901 -12 52 C-12.33 52.99 -12.66 53.98 -13 55 C-13.66 55 -14.32 55 -15 55 C-15.2671582 55.59240479 -15.53431641 56.18480957 -15.80957031 56.79516602 C-17.01802166 59.0333785 -18.24858328 60.49278973 -20.046875 62.27734375 C-20.645 62.87353516 -21.243125 63.46972656 -21.859375 64.08398438 C-22.48328125 64.69564453 -23.1071875 65.30730469 -23.75 65.9375 C-24.3584375 66.54529297 -24.966875 67.15308594 -25.59375 67.77929688 C-29.24837447 71.39878072 -33.01854511 74.7455934 -37 78 C-38.35099103 79.31543863 -39.69205669 80.64175118 -41 82 C-42 80 -42 80 -41.46875 78.22265625 C-38.9462689 72.59793025 -35.90212096 67.51453729 -32.48828125 62.3828125 C-30.86886662 59.99718983 -30.86886662 59.99718983 -30 57 C-29.34 57 -28.68 57 -28 57 C-27.9175 56.484375 -27.835 55.96875 -27.75 55.4375 C-26.8936241 52.65427834 -25.52048841 50.3556898 -24.04296875 47.859375 C-22.44664312 45.01349111 -21.2577472 42.00765636 -20 39 C-18.30445369 35.32631633 -16.82117688 32.82117688 -14 30 C-10.22869871 24.93231389 -7.38609661 19.85678258 -5 14 C-4.30476786 12.82547904 -3.59605897 11.65884477 -2.875 10.5 C-0.82915805 6.68109502 -0.34656815 4.24545988 0 0 Z " fill="#748B74" transform="translate(313,419)"/>
<path d="M0 0 C1.32 0.33 2.64 0.66 4 1 C4 31.36 4 61.72 4 93 C2.68 92.67 1.36 92.34 0 92 C0 61.64 0 31.28 0 0 Z " fill="#D0E7DD" transform="translate(616,76)"/>
<path d="M0 0 C0.99 0.33 1.98 0.66 3 1 C3 39.61 3 78.22 3 118 C2.67 118 2.34 118 2 118 C1.67 121.63 1.34 125.26 1 129 C0.67 129 0.34 129 0 129 C0 86.43 0 43.86 0 0 Z " fill="#F5FCF4" transform="translate(225,599)"/>
<path d="M0 0 C0.33 0 0.66 0 1 0 C1.25 6.625 1.25 6.625 -1 10 C-1.3003089 12.19344151 -1.3003089 12.19344151 -1.25333309 14.65833378 C-1.25894849 15.62100731 -1.26456388 16.58368084 -1.27034944 17.5755263 C-1.26636835 18.63543431 -1.26238726 19.69534233 -1.25828552 20.78736877 C-1.26196123 21.91149782 -1.26563693 23.03562686 -1.26942402 24.19382042 C-1.27944584 27.98025192 -1.27524492 31.76653776 -1.27124023 35.55297852 C-1.27450154 38.2595061 -1.28081507 40.9660243 -1.28707886 43.67254639 C-1.29913309 49.51001555 -1.30423226 55.3474574 -1.30496025 61.18493843 C-1.30628434 69.62718321 -1.32138189 78.0693615 -1.34045542 86.51158284 C-1.37130896 100.2107573 -1.39547002 113.90993344 -1.41333008 127.60913086 C-1.41440276 128.4293288 -1.41547544 129.24952673 -1.41658062 130.09457915 C-1.42840521 139.24904576 -1.43861001 148.40351303 -1.44702148 157.5579834 C-1.45009545 160.87906903 -1.45318422 164.20015464 -1.45629883 167.52124023 C-1.45706417 168.34074504 -1.45782951 169.16024985 -1.45861804 170.00458813 C-1.47168452 183.65301047 -1.49630208 197.30138465 -1.53004223 210.94977134 C-1.55036861 219.37436488 -1.56061664 227.79885554 -1.55805302 236.22347378 C-1.55702053 241.9917623 -1.56661312 247.75996933 -1.58469205 253.52822942 C-1.59476968 256.86016125 -1.59820533 260.19176084 -1.59192467 263.52372551 C-1.58583838 267.12920913 -1.59791496 270.73417641 -1.61473083 274.33961487 C-1.60541311 275.93282298 -1.60541311 275.93282298 -1.59590715 277.55821711 C-1.60413029 278.51828289 -1.61235344 279.47834868 -1.62082577 280.46750736 C-1.62204745 281.71700596 -1.62204745 281.71700596 -1.62329382 282.99174696 C-1.74760686 283.65447046 -1.8719199 284.31719397 -2 285 C-2.99 285.66 -3.98 286.32 -5 287 C-4.67 286.01 -4.34 285.02 -4 284 C-3.90758668 282.44974759 -3.87163854 280.89581196 -3.86971474 279.34280872 C-3.86609039 278.38035199 -3.86246604 277.41789526 -3.85873187 276.42627317 C-3.85980012 275.36656692 -3.86086837 274.30686067 -3.86196899 273.21504211 C-3.85914771 272.09106291 -3.85632643 270.96708372 -3.85341966 269.80904454 C-3.84505153 266.02283596 -3.84373351 262.23665654 -3.84228516 258.45043945 C-3.83818569 255.74379761 -3.83254194 253.03715962 -3.82688904 250.33052063 C-3.81535799 244.49143446 -3.80711639 238.65235118 -3.80076981 232.81325722 C-3.79044639 223.58204366 -3.76988299 214.35086614 -3.74765015 205.11967468 C-3.74017018 201.96163285 -3.73275646 198.80359086 -3.72536278 195.64554882 C-3.72351221 194.85627637 -3.72166165 194.06700393 -3.719755 193.25381413 C-3.69882296 184.26695056 -3.67999765 175.280083 -3.66210938 166.29321289 C-3.66047119 165.4715982 -3.65883301 164.64998351 -3.65714519 163.80347141 C-3.63087073 150.49449459 -3.61222176 137.185515 -3.59551747 123.87652323 C-3.57809032 110.21224707 -3.54923751 96.54802529 -3.5106281 82.88379258 C-3.48724105 74.45615292 -3.47323469 66.02860195 -3.47130047 57.60092958 C-3.46918936 51.82278017 -3.45624563 46.04471889 -3.43482114 40.26660905 C-3.42280622 36.93393989 -3.41726578 33.60159358 -3.42153358 30.26888275 C-3.4254251 26.65235556 -3.4109829 23.0363451 -3.39199829 19.4198761 C-3.39752799 18.37132346 -3.40305768 17.32277082 -3.40875494 16.24244386 C-3.35337473 10.13111914 -2.50894515 5.58796328 0 0 Z " fill="#EBF3E7" transform="translate(228,161)"/>
<path d="M0 0 C4.6875 3.61328125 4.6875 3.61328125 6 5 C6 5.99 6 6.98 6 8 C6.66 8 7.32 8 8 8 C7.67 71.36 7.34 134.72 7 200 C6.67 200 6.34 200 6 200 C5.99761165 199.02539983 5.99522329 198.05079966 5.99276257 197.04666615 C5.93399659 173.34446922 5.85813177 149.64237419 5.76428509 125.9402895 C5.71929856 114.47818737 5.67989048 103.01611651 5.65356445 91.55395508 C5.63060753 81.56481238 5.59723532 71.5757684 5.55129844 61.58670396 C5.52733515 56.29641288 5.50862672 51.00621976 5.50238609 45.71587563 C5.49634931 40.73774015 5.47640039 35.75985542 5.44572449 30.78181267 C5.43692168 28.95367802 5.4332263 27.12551064 5.43499184 25.29735565 C5.43664051 22.80274844 5.41998049 20.30890932 5.39872742 17.81440735 C5.40357499 17.08969138 5.40842257 16.36497541 5.41341704 15.61829835 C5.33234157 9.85863035 3.70061946 6.79779772 -0.1875 2.6875 C-0.785625 2.130625 -1.38375 1.57375 -2 1 C-1.34 0.67 -0.68 0.34 0 0 Z " fill="#E6FAF3" transform="translate(607,204)"/>
<path d="M0 0 C1.33332095 2.6666419 0.67102033 4.16680303 0 7 C-0.66 7 -1.32 7 -2 7 C-1.67 8.98 -1.34 10.96 -1 13 C-1.99 13.66 -2.98 14.32 -4 15 C-4.69937532 16.31647119 -5.36729133 17.65022151 -6 19 C-6.66 19.66 -7.32 20.32 -8 21 C-8.061875 21.969375 -8.12375 22.93875 -8.1875 23.9375 C-8.71734769 28.808023 -11.57390855 32.32029852 -14.30859375 36.25390625 C-16.38282058 39.38755926 -16.38282058 39.38755926 -18 45 C-6.78 45.33 4.44 45.66 16 46 C16 46.99 16 47.98 16 49 C15.01 48.505 15.01 48.505 14 48 C11.23068632 47.84308093 8.48265893 47.74156866 5.7109375 47.68359375 C4.89251373 47.66281265 4.07408997 47.64203156 3.23086548 47.62062073 C0.61233034 47.55515188 -2.00630639 47.49625274 -4.625 47.4375 C-6.39844807 47.39431224 -8.17188581 47.35069786 -9.9453125 47.30664062 C-14.29677046 47.19947324 -18.64833077 47.09819831 -23 47 C-22.29920108 43.15827097 -21.24403589 40.16160747 -19.4375 36.6875 C-18.98246094 35.80449219 -18.52742188 34.92148437 -18.05859375 34.01171875 C-17.70925781 33.34785156 -17.35992187 32.68398438 -17 32 C-16.34 32 -15.68 32 -15 32 C-14.731875 30.783125 -14.46375 29.56625 -14.1875 28.3125 C-13.39268195 24.70524886 -11.94611151 22.13188179 -10 19 C-8.61523429 16.49545679 -7.27765442 13.96614016 -5.9375 11.4375 C-5.58623047 10.77814453 -5.23496094 10.11878906 -4.87304688 9.43945312 C-3.21008813 6.31158176 -1.56161297 3.17986476 0 0 Z " fill="#CADFD3" transform="translate(337,374)"/>
<path d="M0 0 C10.83984375 -0.09765625 10.83984375 -0.09765625 14 0 C15 1 15 1 15.11352539 3.40844727 C15.10828857 4.45057373 15.10305176 5.4927002 15.09765625 6.56640625 C15.09443359 7.69111328 15.09121094 8.81582031 15.08789062 9.97460938 C15.07951172 11.15861328 15.07113281 12.34261719 15.0625 13.5625 C15.05798828 14.75037109 15.05347656 15.93824219 15.04882812 17.16210938 C15.03699686 20.10809412 15.01906076 23.05405316 15 26 C22.92 26 30.84 26 39 26 C39 30.62 39 35.24 39 40 C33.39 39.67 27.78 39.34 22 39 C22 38.67 22 38.34 22 38 C29.92 37.505 29.92 37.505 38 37 C38 34.36 38 31.72 38 29 C36.9627478 29.00785522 36.9627478 29.00785522 35.90454102 29.01586914 C32.79053648 29.036575 29.67654639 29.04963963 26.5625 29.0625 C25.47388672 29.07087891 24.38527344 29.07925781 23.26367188 29.08789062 C22.22919922 29.09111328 21.19472656 29.09433594 20.12890625 29.09765625 C19.17056885 29.10289307 18.21223145 29.10812988 17.22485352 29.11352539 C15 29 15 29 14 28 C13.7714679 26.0769127 13.60481143 24.14639772 13.46484375 22.21484375 C13.37783203 21.04501953 13.29082031 19.87519531 13.20117188 18.66992188 C13.11416016 17.43822266 13.02714844 16.20652344 12.9375 14.9375 C12.80118164 13.08415039 12.80118164 13.08415039 12.66210938 11.19335938 C12.43732402 8.12918006 12.2168144 5.06475198 12 2 C8.37 1.67 4.74 1.34 1 1 C1 8.92 1 16.84 1 25 C0.67 25 0.34 25 0 25 C0 16.75 0 8.5 0 0 Z " fill="#EDFCF6" transform="translate(550,91)"/>
<path d="M0 0 C0.99 0.33 1.98 0.66 3 1 C3 1.99 3 2.98 3 4 C4.32 4 5.64 4 7 4 C7.33 2.68 7.66 1.36 8 0 C9.31495542 2.60295276 10.62704986 5.20728033 11.9375 7.8125 C12.31068359 8.55048828 12.68386719 9.28847656 13.06835938 10.04882812 C13.42607422 10.76103516 13.78378906 11.47324219 14.15234375 12.20703125 C14.48226318 12.8616333 14.81218262 13.51623535 15.15209961 14.19067383 C16 16 16 16 17 19 C16.01 19 15.02 19 14 19 C13.67 19.66 13.34 20.32 13 21 C13 19.35 13 17.7 13 16 C3.90767909 15.97685965 -5.18463173 15.95907625 -14.27697563 15.94818783 C-18.49862582 15.94296272 -22.72025591 15.93587178 -26.94189453 15.92456055 C-31.01376672 15.9137185 -35.08561953 15.90772036 -39.15750504 15.90512276 C-40.71328156 15.90327089 -42.26905698 15.89965482 -43.82482529 15.89426994 C-45.99896307 15.88704205 -48.17302016 15.8860098 -50.34716797 15.88647461 C-51.58626923 15.884254 -52.82537048 15.88203339 -54.10202026 15.87974548 C-56.93998046 15.7992628 -56.93998046 15.7992628 -59 17 C-58.505 15.515 -58.505 15.515 -58 14 C-36.55 14 -15.1 14 7 14 C3.535 8.06 3.535 8.06 0 2 C0 1.34 0 0.68 0 0 Z " fill="#AECABE" transform="translate(119,684)"/>
<path d="M0 0 C4.29 0 8.58 0 13 0 C12 4 12 4 11 5 C9.49581261 5.09311889 7.98728644 5.11746028 6.48022461 5.11352539 C5.03884377 5.11341209 5.03884377 5.11341209 3.56834412 5.11329651 C2.523564 5.10813522 1.47878387 5.10297394 0.40234375 5.09765625 C-0.66165146 5.0962413 -1.72564667 5.09482635 -2.82188416 5.09336853 C-6.23545083 5.08775064 -9.648953 5.07519511 -13.0625 5.0625 C-15.37044176 5.05748731 -17.67838455 5.052924 -19.98632812 5.04882812 C-25.65757426 5.0377754 -31.32878253 5.02101987 -37 5 C-37 4.34 -37 3.68 -37 3 C-33.28625304 0.59355859 -29.66151166 0.74181359 -25.390625 0.8046875 C-24.66381531 0.8075174 -23.93700562 0.81034729 -23.18817139 0.81326294 C-20.87527749 0.82442477 -18.56277612 0.84952149 -16.25 0.875 C-14.67839102 0.88503499 -13.10677596 0.89415994 -11.53515625 0.90234375 C-7.68995378 0.92435096 -3.84504336 0.95885285 0 1 C0 0.67 0 0.34 0 0 Z " fill="#195440" transform="translate(257,500)"/>
<path d="M0 0 C14.19 0 28.38 0 43 0 C42.34 1.32 41.68 2.64 41 4 C27.8 4 14.6 4 1 4 C1 17.86 1 31.72 1 46 C0.34 45.67 -0.32 45.34 -1 45 C-0.67 30.15 -0.34 15.3 0 0 Z " fill="#D6DCDA" transform="translate(297,684)"/>
<path d="M0 0 C1.32 0.33 2.64 0.66 4 1 C3.67 17.17 3.34 33.34 3 50 C2.01 50 1.02 50 0 50 C0 33.5 0 17 0 0 Z " fill="#DADEDD" transform="translate(297,615)"/>
<path d="M0 0 C0.99386719 0.02707031 1.98773437 0.05414062 3.01171875 0.08203125 C4.15060547 0.13423828 4.15060547 0.13423828 5.3125 0.1875 C5.3125 0.8475 5.3125 1.5075 5.3125 2.1875 C4.013125 2.166875 2.71375 2.14625 1.375 2.125 C0.02084367 2.10350546 -1.33506083 2.11601801 -2.6875 2.1875 C-3.0175 2.5175 -3.3475 2.8475 -3.6875 3.1875 C1.5925 3.1875 6.8725 3.1875 12.3125 3.1875 C12.3125 3.5175 12.3125 3.8475 12.3125 4.1875 C5.7125 4.1875 -0.8875 4.1875 -7.6875 4.1875 C-7.3575 35.2075 -7.0275 66.2275 -6.6875 98.1875 C-7.3475 98.1875 -8.0075 98.1875 -8.6875 98.1875 C-8.75693032 85.85288665 -8.81027583 73.5183196 -8.84293652 61.18355083 C-8.85860993 55.4563629 -8.87987887 49.7293084 -8.91381836 44.00219727 C-8.9463519 38.47792558 -8.96434038 32.95378245 -8.97213173 27.42942238 C-8.97768604 25.3190286 -8.98853187 23.20864207 -9.00469017 21.09830284 C-9.0263845 18.1483055 -9.02947027 15.19884323 -9.02807617 12.2487793 C-9.038862 11.37124496 -9.04964783 10.49371063 -9.0607605 9.58958435 C-9.03014719 3.62525929 -9.03014719 3.62525929 -7.33365345 1.45785236 C-4.91260884 -0.41049092 -3.00602018 -0.10609483 0 0 Z " fill="#BDC1BF" transform="translate(611.6875,631.8125)"/>
<path d="M0 0 C-0.99 0.66 -1.98 1.32 -3 2 C-4.155 1.67 -5.31 1.34 -6.5 1 C-11.87315239 -0.51957914 -16.75094029 0.25031343 -22 2 C-25.00179441 4.16744884 -25.00179441 4.16744884 -27 7 C-27.680625 7.804375 -28.36125 8.60875 -29.0625 9.4375 C-31.09075738 12.05520707 -31.09075738 12.05520707 -33.0625 15.1875 C-35 18 -35 18 -38 20 C-35.05372489 9.55411552 -30.47006729 3.39312306 -21 -2 C-13.62617707 -4.45794098 -6.92742398 -3.0788551 0 0 Z " fill="#48735F" transform="translate(368,278)"/>
<path d="M0 0 C0.66 0.66 1.32 1.32 2 2 C4.05907197 2.32997447 4.05907197 2.32997447 6.44970703 2.31884766 C7.37051056 2.33871735 8.29131409 2.35858704 9.24002075 2.37905884 C10.23589203 2.39061005 11.23176331 2.40216125 12.2578125 2.4140625 C13.78509476 2.44311172 13.78509476 2.44311172 15.3432312 2.4727478 C18.60373489 2.53265355 21.86427367 2.57897299 25.125 2.625 C27.33204687 2.66316965 29.53907869 2.70222077 31.74609375 2.7421875 C37.16392911 2.83836394 42.58185473 2.92337899 48 3 C48 3.33 48 3.66 48 4 C45.94921875 4.22786458 43.8984375 4.45572917 41.84765625 4.68359375 C39.98859771 4.81886614 39.98859771 4.81886614 39 6 C36.28445608 6.11340974 33.59529957 6.1641802 30.87890625 6.16796875 C29.6562632 6.17296135 29.6562632 6.17296135 28.40892029 6.17805481 C26.68139207 6.18312742 24.95385402 6.18546303 23.22631836 6.18530273 C20.57714755 6.18748792 17.92839384 6.20563621 15.27929688 6.22460938 C13.6041681 6.22754344 11.92903733 6.22952815 10.25390625 6.23046875 C9.45803604 6.23765427 8.66216583 6.24483978 7.84217834 6.25224304 C2.22882227 6.22882227 2.22882227 6.22882227 0 4 C0 2.68 0 1.36 0 0 Z " fill="#E0F1E9" transform="translate(434,502)"/>
<path d="M0 0 C18.15 0 36.3 0 55 0 C53 2 53 2 50.82333374 2.24050903 C49.92176544 2.23606781 49.02019714 2.23162659 48.09130859 2.22705078 C47.07040131 2.22689972 46.04949402 2.22674866 44.99765015 2.22659302 C43.33978989 2.21110916 43.33978989 2.21110916 41.6484375 2.1953125 C40.5192691 2.1924826 39.39010071 2.18965271 38.22671509 2.18673706 C34.60937029 2.17551462 30.99227034 2.15040622 27.375 2.125 C24.9270869 2.11497287 22.47916993 2.10584656 20.03125 2.09765625 C14.02074936 2.07556857 8.01039217 2.04207074 2 2 C1.67 2.99 1.34 3.98 1 5 C0.67 4.34 0.34 3.68 0 3 C-0.99 3.495 -0.99 3.495 -2 4 C-1.34 2.68 -0.68 1.36 0 0 Z " fill="#F5F4F2" transform="translate(61,700)"/>
<path d="M0 0 C10.83984375 -0.09765625 10.83984375 -0.09765625 14 0 C15 1 15 1 15.11352539 3.40844727 C15.10828857 4.45057373 15.10305176 5.4927002 15.09765625 6.56640625 C15.09443359 7.69111328 15.09121094 8.81582031 15.08789062 9.97460938 C15.07951172 11.15861328 15.07113281 12.34261719 15.0625 13.5625 C15.05798828 14.75037109 15.05347656 15.93824219 15.04882812 17.16210938 C15.03699675 20.10812226 15.02051287 23.05403681 15 26 C14.67 26 14.34 26 14 26 C13.34 18.08 12.68 10.16 12 2 C8.37 1.67 4.74 1.34 1 1 C1 8.92 1 16.84 1 25 C0.67 25 0.34 25 0 25 C0 16.75 0 8.5 0 0 Z " fill="#C3E0D3" transform="translate(550,91)"/>
<path d="M0 0 C0.99 0.33 1.98 0.66 3 1 C3 1.99 3 2.98 3 4 C4.32 4 5.64 4 7 4 C7.33 2.68 7.66 1.36 8 0 C9.98 4.62 11.96 9.24 14 14 C11.69 14 9.38 14 7 14 C4.78515625 11.4453125 4.78515625 11.4453125 3.0625 8.125 C2.18271484 6.48917969 2.18271484 6.48917969 1.28515625 4.8203125 C0 2 0 2 0 0 Z " fill="#99BEAF" transform="translate(119,684)"/>
<path d="M0 0 C0.33 0 0.66 0 1 0 C2.24911667 7.65083958 2.09053426 15.27440986 2 23 C5.3 22.67 8.6 22.34 12 22 C12.75115321 18.99538715 13.16527775 16.694445 13.31640625 13.671875 C13.35830078 12.87265625 13.40019531 12.0734375 13.44335938 11.25 C13.48267578 10.425 13.52199219 9.6 13.5625 8.75 C13.60568359 7.90953125 13.64886719 7.0690625 13.69335938 6.203125 C13.79908543 4.13559329 13.90001295 2.06781719 14 0 C14.33 0 14.66 0 15 0 C15 7.92 15 15.84 15 24 C10.05 24 5.1 24 0 24 C0 16.08 0 8.16 0 0 Z " fill="#C7E0D6" transform="translate(550,132)"/>
<path d="M0 0 C3.12829068 2.55951056 3.92466606 5.16098051 5 9 C5.24050903 11.9234314 5.24050903 11.9234314 5.22705078 15.00537109 C5.22689972 16.16612152 5.22674866 17.32687195 5.22659302 18.52279663 C5.21627045 19.76050812 5.20594788 20.9982196 5.1953125 22.2734375 C5.1924826 23.55231842 5.18965271 24.83119934 5.18673706 26.14883423 C5.1774602 29.53220099 5.15952183 32.91529326 5.1373291 36.29858398 C5.11679041 39.75762574 5.10771826 43.21669596 5.09765625 46.67578125 C5.075632 53.45059614 5.04218118 60.22528224 5 67 C4.67 67 4.34 67 4 67 C3.98969254 66.30064835 3.97938507 65.60129669 3.96876526 64.88075256 C3.87094968 58.30286337 3.76845843 51.7250658 3.66066074 45.14733219 C3.60540198 41.76532878 3.55197744 38.38331676 3.50268555 35.0012207 C3.44599054 31.11660573 3.38142415 27.23214122 3.31640625 23.34765625 C3.29133751 21.51800072 3.29133751 21.51800072 3.26576233 19.65138245 C3.24581711 18.53029587 3.22587189 17.40920929 3.20532227 16.25415039 C3.18200584 14.76523033 3.18200584 14.76523033 3.15821838 13.24623108 C3.24881556 11.03025703 3.24881556 11.03025703 2 10 C1.95919217 8.00041636 1.95745644 5.99954746 2 4 C1.34 4 0.68 4 0 4 C0 2.68 0 1.36 0 0 Z " fill="#CDD4D1" transform="translate(676,662)"/>
<path d="M0 0 C8.58 0 17.16 0 26 0 C26 8.58 26 17.16 26 26 C24 24 24 24 23.77294922 21.84521484 C23.78342285 20.97590332 23.79389648 20.1065918 23.8046875 19.2109375 C23.81113281 18.26992188 23.81757812 17.32890625 23.82421875 16.359375 C23.84097656 15.37453125 23.85773437 14.3896875 23.875 13.375 C23.88402344 12.38242187 23.89304687 11.38984375 23.90234375 10.3671875 C23.92595884 7.91121866 23.95889201 5.45572832 24 3 C21.59920599 1.799603 20.17407844 1.91368478 17.5 1.97265625 C16.613125 1.98490234 15.72625 1.99714844 14.8125 2.00976562 C12.93742272 2.04492332 11.06241459 2.08398633 9.1875 2.12695312 C7.8571875 2.14338867 7.8571875 2.14338867 6.5 2.16015625 C5.6853125 2.17699463 4.870625 2.19383301 4.03125 2.21118164 C2 2 2 2 0 0 Z " fill="#EAFCF6" transform="translate(724,652)"/>
<path d="M0 0 C2.31 0.33 4.62 0.66 7 1 C5.02 1.99 5.02 1.99 3 3 C2.979375 4.299375 2.95875 5.59875 2.9375 6.9375 C2.92589844 7.66839844 2.91429687 8.39929688 2.90234375 9.15234375 C2.79438816 11.01732141 2.79438816 11.01732141 4 12 C5.55753051 12.22670908 7.12377359 12.39435092 8.69140625 12.53515625 C10.10776367 12.66567383 10.10776367 12.66567383 11.55273438 12.79882812 C12.54595703 12.88583984 13.53917969 12.97285156 14.5625 13.0625 C15.55958984 13.15337891 16.55667969 13.24425781 17.58398438 13.33789062 C20.05565702 13.56258814 22.52763256 13.78310351 25 14 C25 14.33 25 14.66 25 15 C16.75 15 8.5 15 0 15 C0 10.05 0 5.1 0 0 Z " fill="#CCE1D6" transform="translate(525,117)"/>
<path d="M0 0 C1.27617188 0.00193359 2.55234375 0.00386719 3.8671875 0.00585938 C4.86395508 0.01516479 4.86395508 0.01516479 5.88085938 0.0246582 C7.89986899 0.04284093 9.91841726 0.04516822 11.9375 0.04492188 C22.71001665 0.09378914 22.71001665 0.09378914 27.5390625 1.23046875 C27.2090625 2.22046875 26.8790625 3.21046875 26.5390625 4.23046875 C25.86399658 4.07199463 25.18893066 3.91352051 24.4934082 3.75024414 C21.05987802 3.14616301 17.75478791 3.01446084 14.26953125 2.9140625 C13.58852859 2.8932814 12.90752594 2.87250031 12.20588684 2.85108948 C10.04620742 2.78608997 7.88641404 2.72694163 5.7265625 2.66796875 C4.25584794 2.62473625 2.78514459 2.5811205 1.31445312 2.53710938 C-2.27722467 2.43046016 -5.86902832 2.32905526 -9.4609375 2.23046875 C-5.87162056 -0.16240921 -4.2608654 -0.01499683 0 0 Z " fill="#E7FDF4" transform="translate(573.4609375,59.76953125)"/>
<path d="M0 0 C4.6875 3.61328125 4.6875 3.61328125 6 5 C6 5.99 6 6.98 6 8 C6.66 8 7.32 8 8 8 C7.67 22.52 7.34 37.04 7 52 C6.67 52 6.34 52 6 52 C5.98541748 50.75387939 5.97083496 49.50775879 5.95581055 48.22387695 C5.897757 43.59240288 5.82052424 38.96141138 5.73754883 34.33032227 C5.70433273 32.32747236 5.67629048 30.3245296 5.65356445 28.3215332 C5.61995766 25.43921406 5.56763852 22.55774332 5.51171875 19.67578125 C5.50532883 18.78288895 5.4989389 17.88999664 5.49235535 16.970047 C5.34507733 10.71637 4.19131736 7.3165355 -0.1875 2.6875 C-0.785625 2.130625 -1.38375 1.57375 -2 1 C-1.34 0.67 -0.68 0.34 0 0 Z " fill="#E6F9F1" transform="translate(607,204)"/>
<path d="M0 0 C7.59 0 15.18 0 23 0 C23 1.32 23 2.64 23 4 C15.08 3.34 7.16 2.68 -1 2 C-0.67 1.34 -0.34 0.68 0 0 Z " fill="#EDF6F3" transform="translate(651,632)"/>
<path d="M0 0 C0.99 0 1.98 0 3 0 C4.33333333 2.66666667 5.66666667 5.33333333 7 8 C7.32742187 8.58265625 7.65484375 9.1653125 7.9921875 9.765625 C9.18689109 12.41434769 9.64780747 14.88684481 10.125 17.75 C10.29257813 18.73484375 10.46015625 19.7196875 10.6328125 20.734375 C10.75398438 21.48203125 10.87515625 22.2296875 11 23 C8.29187344 21.64593672 8.21860354 20.37499944 7.1875 17.5625 C5.40021234 12.87508519 3.28483325 8.46992353 0.953125 4.03125 C0 2 0 2 0 0 Z " fill="#457A64" transform="translate(104,636)"/>
<path d="M0 0 C0.99 0.33 1.98 0.66 3 1 C2.2575 1.721875 1.515 2.44375 0.75 3.1875 C-2.00718317 5.8851686 -2.00718317 5.8851686 -4.0625 8.75 C-6.08758661 11.10171348 -6.97484531 11.67587628 -10 12 C-8.93495344 6.40850556 -6.32368142 4.24887642 -1.97265625 1.00390625 C-0.99619141 0.50697266 -0.99619141 0.50697266 0 0 Z " fill="#436E5B" transform="translate(510,65)"/>
<path d="M0 0 C1.50433594 0.01353516 1.50433594 0.01353516 3.0390625 0.02734375 C3.80992187 0.03894531 4.58078125 0.05054688 5.375 0.0625 C5.375 0.7225 5.375 1.3825 5.375 2.0625 C4.075625 2.041875 2.77625 2.02125 1.4375 2 C0.08334367 1.97850546 -1.27256083 1.99101801 -2.625 2.0625 C-2.955 2.3925 -3.285 2.7225 -3.625 3.0625 C1.655 3.0625 6.935 3.0625 12.375 3.0625 C12.375 3.3925 12.375 3.7225 12.375 4.0625 C5.445 4.0625 -1.485 4.0625 -8.625 4.0625 C-8.295 3.0725 -7.965 2.0825 -7.625 1.0625 C-4.98041621 -0.25979189 -2.94738699 -0.03427194 0 0 Z " fill="#D2D8D6" transform="translate(611.625,631.9375)"/>
<path d="M0 0 C2.86299506 2.86299506 2.99421225 4.65852284 3.0625 8.6875 C3.041875 9.780625 3.02125 10.87375 3 12 C1.68 12 0.36 12 -1 12 C-1 11.01 -1 10.02 -1 9 C-1.639375 8.71125 -2.27875 8.4225 -2.9375 8.125 C-5 7 -5 7 -6 5 C-3.69 5.33 -1.38 5.66 1 6 C0.67 4.02 0.34 2.04 0 0 Z " fill="#CBDED4" transform="translate(123,676)"/>
<path d="M0 0 C0.33 0.66 0.66 1.32 1 2 C0.01712992 4.00847365 -0.98377342 6.00819591 -2 8 C-2 8.99 -2 9.98 -2 11 C-2.99 11.495 -2.99 11.495 -4 12 C-4.4021875 13.11375 -4.4021875 13.11375 -4.8125 14.25 C-6.26830812 17.62134511 -8.32061465 19.53214507 -11 22 C-11 18.80389448 -10.45328458 17.58282374 -9 14.8125 C-8.62875 14.09707031 -8.2575 13.38164062 -7.875 12.64453125 C-7.58625 12.10183594 -7.2975 11.55914062 -7 11 C-6.34 11 -5.68 11 -5 11 C-4.9175 10.484375 -4.835 9.96875 -4.75 9.4375 C-3.67859775 5.95544268 -1.86476395 3.12799115 0 0 Z " fill="#5D8E73" transform="translate(290,465)"/>
<path d="M0 0 C2.5 2 2.5 2 4 4 C0.7 3.34 -2.6 2.68 -6 2 C-6 2.66 -6 3.32 -6 4 C-8.97 4.66 -11.94 5.32 -15 6 C-10.1297619 1.00159774 -7.18505536 -1.09337799 0 0 Z " fill="#4A6557" transform="translate(604,204)"/>
<path d="M0 0 C0.33 1.32 0.66 2.64 1 4 C-0.1446875 4.5878125 -0.1446875 4.5878125 -1.3125 5.1875 C-4.12917688 6.80038675 -4.12917688 6.80038675 -5.4375 9.5 C-7.43701557 12.69922491 -9.5806895 13.55629112 -13 15 C-12.42110619 11.71245489 -11.45171589 10.06327505 -9.0625 7.75 C-8.53785156 7.22921875 -8.01320312 6.7084375 -7.47265625 6.171875 C-6 5 -6 5 -4 5 C-4 4.34 -4 3.68 -4 3 C-3.34 3 -2.68 3 -2 3 C-2 2.34 -2 1.68 -2 1 C-1.34 0.67 -0.68 0.34 0 0 Z " fill="#AFBAAB" transform="translate(229,120)"/>
<path d="M0 0 C3.625 0.375 3.625 0.375 7 1 C7 1.66 7 2.32 7 3 C9.64 3 12.28 3 15 3 C15 3.33 15 3.66 15 4 C6.75 4 -1.5 4 -10 4 C-10 3.67 -10 3.34 -10 3 C-8.72125 2.87625 -7.4425 2.7525 -6.125 2.625 C-2.65209064 2.30957601 -2.65209064 2.30957601 0 0 Z " fill="#E8FFF6" transform="translate(101,676)"/>
<path d="M0 0 C1.485 0.99 1.485 0.99 3 2 C3 2.99 3 3.98 3 5 C3.66 5 4.32 5 5 5 C8.44419134 14.41002278 8.44419134 14.41002278 8 19 C6 15.25 6 15.25 6 13 C5.34 13 4.68 13 4 13 C3.34 10.36 2.68 7.72 2 5 C1.34 5 0.68 5 0 5 C-0.5625 3.0625 -0.5625 3.0625 -1 1 C-0.67 0.67 -0.34 0.34 0 0 Z " fill="#517A67" transform="translate(394,419)"/>
<path d="M0 0 C0.33 0 0.66 0 1 0 C1.34615998 5.65394631 0.43425238 9.03006806 -2 14 C-2.99 14 -3.98 14 -5 14 C-4.46515599 8.65155992 -2.53309233 4.64203897 0 0 Z " fill="#D4ECE0" transform="translate(320,406)"/>
<path d="M0 0 C1.13308594 -0.01675781 2.26617187 -0.03351563 3.43359375 -0.05078125 C6.78575713 0.33842124 8.1286897 1.04612629 10.5625 3.3125 C6.8591606 4.54694647 5.20663257 3.80009386 1.59765625 2.6875 C-0.74408747 2.25600788 -2.16824288 2.67932642 -4.4375 3.3125 C-7.1875 2.875 -7.1875 2.875 -9.4375 2.3125 C-5.89151732 -0.05148846 -4.20420901 0.01431626 0 0 Z " fill="#47745F" transform="translate(357.4375,275.6875)"/>
<path d="M0 0 C3.44216672 2.6598561 3.99504674 5.90288286 5 10 C5.66 10 6.32 10 7 10 C7.33 11.32 7.66 12.64 8 14 C6.68 14.33 5.36 14.66 4 15 C3.71125 14.236875 3.4225 13.47375 3.125 12.6875 C2.03730987 9.84970692 2.03730987 9.84970692 0 7 C-0.07905064 4.66800612 -0.08798769 2.33167378 0 0 Z " fill="#487C64" transform="translate(440,418)"/>
<path d="M0 0 C0 3 0 3 -1 5 C-1.66 5 -2.32 5 -3 5 C-3.16822266 6.08861328 -3.16822266 6.08861328 -3.33984375 7.19921875 C-4.02961387 10.12563993 -5.05510814 12.22287809 -6.5625 14.8125 C-7.01753906 15.60269531 -7.47257812 16.39289063 -7.94140625 17.20703125 C-8.29074219 17.79871094 -8.64007813 18.39039063 -9 19 C-9.33 19 -9.66 19 -10 19 C-10.3636198 14.75776898 -9.5393228 12.41831915 -7 9 C-6.34 9 -5.68 9 -5 9 C-4.9175 8.071875 -4.835 7.14375 -4.75 6.1875 C-4 3 -4 3 -1.9375 1.125 C-1.298125 0.75375 -0.65875 0.3825 0 0 Z " fill="#CEE7DD" transform="translate(292,367)"/>
<path d="M0 0 C0.99 0 1.98 0 3 0 C1.43358249 4.30764815 -0.68336156 8.06171464 -3 12 C-3.66 11.67 -4.32 11.34 -5 11 C-4.46972205 6.4926374 -2.80388725 3.5460927 0 0 Z " fill="#DCF3EB" transform="translate(301,345)"/>
<path d="M0 0 C0.33 0 0.66 0 1 0 C1.74075615 4.74083936 -0.24697489 7.49529428 -2.7109375 11.328125 C-4 13 -4 13 -6 14 C-5.62345214 7.84971823 -3.90024754 4.77780324 0 0 Z " fill="#1D5B46" transform="translate(246,456)"/>
<path d="M0 0 C0.66 0.33 1.32 0.66 2 1 C0.78065514 5.03321763 -0.55954927 8.54269479 -3 12 C-3.66 12 -4.32 12 -5 12 C-4.52389341 7.00088076 -2.96837781 4.02167317 0 0 Z " fill="#125C43" transform="translate(35,706)"/>
<path d="M0 0 C0.66 0.66 1.32 1.32 2 2 C1.63318342 4.93453261 1.13562754 5.86437246 -1 8 C-1.39764263 9.98821313 -1.73775349 11.98944339 -2 14 C-2.33 13.34 -2.66 12.68 -3 12 C-3.99 11.67 -4.98 11.34 -6 11 C-4.02 7.37 -2.04 3.74 0 0 Z " fill="#437D65" transform="translate(82,608)"/>
<path d="M0 0 C0 0.33 0 0.66 0 1 C-4.455 1.495 -4.455 1.495 -9 2 C-8.34 2.66 -7.68 3.32 -7 4 C-8.093125 4.103125 -9.18625 4.20625 -10.3125 4.3125 C-13.85559629 4.97307727 -14.93243723 5.2027092 -17 8 C-17.33 6.68 -17.66 5.36 -18 4 C-11.72912263 0.28392452 -7.24539726 -0.53449652 0 0 Z " fill="#68927D" transform="translate(360,275)"/>
<path d="M0 0 C0.99 0.33 1.98 0.66 3 1 C3 1.99 3 2.98 3 4 C4.32 4 5.64 4 7 4 C7.33 2.68 7.66 1.36 8 0 C8.33 2.31 8.66 4.62 9 7 C6.1875 7.3125 6.1875 7.3125 3 7 C1.11400657 4.61107499 0 3.08148442 0 0 Z " fill="#A4CFBD" transform="translate(119,684)"/>
<path d="M0 0 C0.66 0.66 1.32 1.32 2 2 C1.98252112 4.59269983 1.86231408 7.0525154 1.625 9.625 C1.56828125 10.33140625 1.5115625 11.0378125 1.453125 11.765625 C1.31159079 13.51121361 1.15702613 15.25573673 1 17 C0.34 17 -0.32 17 -1 17 C-1.02684679 14.35409986 -1.04676357 11.70846904 -1.0625 9.0625 C-1.07087891 8.30775391 -1.07925781 7.55300781 -1.08789062 6.77539062 C-1.09652441 4.85005687 -1.05224333 2.92464419 -1 1 C-0.67 0.67 -0.34 0.34 0 0 Z " fill="#E6F6F0" transform="translate(723,635)"/>
<path d="M0 0 C0.33 0 0.66 0 1 0 C1 3.63 1 7.26 1 11 C-2.56311466 9.21844267 -4.35645475 7.83236991 -7 5 C-3.535 4.505 -3.535 4.505 0 4 C0 2.68 0 1.36 0 0 Z " fill="#CCD3D0" transform="translate(550,637)"/>
<path d="M0 0 C1.47557505 3.83649513 0.61403853 6.31076908 -1 10 C-3.125 12.375 -3.125 12.375 -5 14 C-5.33 13.34 -5.66 12.68 -6 12 C-5.29296875 9.94140625 -5.29296875 9.94140625 -4.1875 7.5625 C-3.83042969 6.78003906 -3.47335937 5.99757813 -3.10546875 5.19140625 C-2 3 -2 3 0 0 Z " fill="#58806F" transform="translate(277,487)"/>
<path d="M0 0 C0.66 0 1.32 0 2 0 C2.66 2.64 3.32 5.28 4 8 C4.66 8 5.32 8 6 8 C6.33 9.32 6.66 10.64 7 12 C6.01 12 5.02 12 4 12 C4 11.34 4 10.68 4 10 C3.34 10 2.68 10 2 10 C2 8.02 2 6.04 2 4 C0.68 3.67 -0.64 3.34 -2 3 C-1 1 -1 1 0 0 Z " fill="#4B7A64" transform="translate(106,596)"/>
<path d="M0 0 C0.66 0 1.32 0 2 0 C3.51708428 9.41002278 3.51708428 9.41002278 1 14 C0.67 14 0.34 14 0 14 C0 9.38 0 4.76 0 0 Z " fill="#D4E4E0" transform="translate(793,637)"/>
<path d="M0 0 C0.33 0.99 0.66 1.98 1 3 C1.66 3.33 2.32 3.66 3 4 C2.01 4.33 1.02 4.66 0 5 C0 5.99 0 6.98 0 8 C-0.66 8 -1.32 8 -2 8 C-2.28875 8.804375 -2.5775 9.60875 -2.875 10.4375 C-4 13 -4 13 -6 14 C-4.50829734 9.0276578 -2.39542583 4.58154261 0 0 Z " fill="#618875" transform="translate(321,312)"/>
<path d="M0 0 C0.66 0.33 1.32 0.66 2 1 C0.50829734 5.9723422 -1.60457417 10.41845739 -4 15 C-4.33 15 -4.66 15 -5 15 C-5 12.69 -5 10.38 -5 8 C-4.01 8 -3.02 8 -2 8 C-2 6.68 -2 5.36 -2 4 C-1.34 4 -0.68 4 0 4 C0 2.68 0 1.36 0 0 Z " fill="#4B7E6C" transform="translate(53,711)"/>
<path d="M0 0 C0.33 0.99 0.66 1.98 1 3 C-0.65 3.66 -2.3 4.32 -4 5 C-4 5.99 -4 6.98 -4 8 C-6.64 8 -9.28 8 -12 8 C-8 5.33333333 -4 2.66666667 0 0 Z " fill="#D2DAD7" transform="translate(546,720)"/>
<path d="M0 0 C0.33 1.32 0.66 2.64 1 4 C0.01 4.495 0.01 4.495 -1 5 C-2.09036928 7.9737344 -2.03864166 8.88407501 -1 12 C-2.65 12.33 -4.3 12.66 -6 13 C-3.10933941 3.40546697 -3.10933941 3.40546697 0 0 Z " fill="#B3CCBF" transform="translate(77,665)"/>
<path d="M0 0 C1 2 1 2 0.44140625 4.1640625 C0.15136719 4.97617187 -0.13867188 5.78828125 -0.4375 6.625 C-0.72496094 7.44226563 -1.01242188 8.25953125 -1.30859375 9.1015625 C-1.65083984 10.04128906 -1.65083984 10.04128906 -2 11 C-2.66 11 -3.32 11 -4 11 C-3.67 12.32 -3.34 13.64 -3 15 C-4.32 15.33 -5.64 15.66 -7 16 C-5.35433477 10.31497465 -2.70967216 5.23318364 0 0 Z " fill="#457A64" transform="translate(66,640)"/>
<path d="M0 0 C0.66 0 1.32 0 2 0 C0.50829734 4.9723422 -1.60457417 9.41845739 -4 14 C-4.97608217 11.07175348 -5.08226668 9.04386724 -5 6 C-4.360625 5.7525 -3.72125 5.505 -3.0625 5.25 C-0.81258459 4.18437567 -0.81258459 4.18437567 -0.25 1.875 C-0.1675 1.25625 -0.085 0.6375 0 0 Z " fill="#4B7B64" transform="translate(94,626)"/>
<path d="M0 0 C3 1 3 1 4.38671875 3.50390625 C4.81597656 4.51324219 5.24523437 5.52257812 5.6875 6.5625 C6.12449219 7.57441406 6.56148438 8.58632813 7.01171875 9.62890625 C7.33785156 10.41136719 7.66398437 11.19382812 8 12 C7.01 12.495 7.01 12.495 6 13 C6 12.01 6 11.02 6 10 C5.34 10 4.68 10 4 10 C3.71125 9.195625 3.4225 8.39125 3.125 7.5625 C2.26737432 4.8673532 2.26737432 4.8673532 0 4 C0 2.68 0 1.36 0 0 Z " fill="#B4DBC7" transform="translate(96,624)"/>
<path d="M0 0 C0 3 0 3 -1.9375 5.875 C-3.86899183 8.80150277 -4.59769822 10.58043485 -5 14 C-5.66 14 -6.32 14 -7 14 C-6.07934219 7.69280693 -5.0022542 4.08078632 0 0 Z " fill="#1E5B46" transform="translate(257,438)"/>
<path d="M0 0 C-0.33 0.66 -0.66 1.32 -1 2 C-1.66 2 -2.32 2 -3 2 C-3 2.66 -3 3.32 -3 4 C-5.5 5.625 -5.5 5.625 -8 7 C-7 5 -6 3 -5 1 C-7.64 1 -10.28 1 -13 1 C-13 0.67 -13 0.34 -13 0 C-11.39679026 -0.19551338 -9.79237014 -0.38111983 -8.1875 -0.5625 C-7.29417969 -0.66691406 -6.40085937 -0.77132813 -5.48046875 -0.87890625 C-3 -1 -3 -1 0 0 Z " fill="#93A18F" transform="translate(352,422)"/>
<path d="M0 0 C2 3.75 2 3.75 2 6 C0.68 6.33 -0.64 6.66 -2 7 C-2 8.65 -2 10.3 -2 12 C-2.99 12 -3.98 12 -5 12 C-3.85814266 7.52040582 -2.56984833 3.85477249 0 0 Z " fill="#50826F" transform="translate(277,395)"/>
<path d="M0 0 C3.96189783 4.23513217 5.43181728 8.547001 7 14 C6.01 14.33 5.02 14.66 4 15 C3.34 11.37 2.68 7.74 2 4 C1.34 4 0.68 4 0 4 C0 2.68 0 1.36 0 0 Z " fill="#628B76" transform="translate(421,378)"/>
<path d="M0 0 C0.99 0.495 0.99 0.495 2 1 C2.33 1.99 2.66 2.98 3 4 C3.99 4 4.98 4 6 4 C6.625 6.875 6.625 6.875 7 10 C6.34 10.66 5.68 11.32 5 12 C4.16180842 10.37750059 3.3295884 8.75191503 2.5 7.125 C2.0359375 6.22007812 1.571875 5.31515625 1.09375 4.3828125 C0 2 0 2 0 0 Z " fill="#588976" transform="translate(117,664)"/>
<path d="M0 0 C1.32 1.65 2.64 3.3 4 5 C1.03 7.475 1.03 7.475 -2 10 C-2.6875 8.375 -2.6875 8.375 -3 6 C-1.5625 2.75 -1.5625 2.75 0 0 Z " fill="#799183" transform="translate(279,486)"/>
<path d="M0 0 C0.33 0 0.66 0 1 0 C1.125 5.75 1.125 5.75 0 8 C-0.99 8 -1.98 8 -3 8 C-3 8.66 -3 9.32 -3 10 C-3.66 10 -4.32 10 -5 10 C-3.85017555 6.10828647 -2.70784225 3.06103907 0 0 Z " fill="#BEE2D1" transform="translate(343,364)"/>
<path d="M0 0 C2.42520546 2.42520546 2.68564441 3.62067741 3 7 C2.0625 9.8125 2.0625 9.8125 1 12 C0.01 12 -0.98 12 -2 12 C-1.34 8.04 -0.68 4.08 0 0 Z " fill="#E0E7DD" transform="translate(473,113)"/>
<path d="M0 0 C10.395 0.99 10.395 0.99 21 2 C21 2.33 21 2.66 21 3 C14.4 3 7.8 3 1 3 C0.67 2.01 0.34 1.02 0 0 Z " fill="#F1F6F2" transform="translate(564,117)"/>
<path d="M0 0 C-0.33 0.66 -0.66 1.32 -1 2 C-3.32495277 2.38749213 -5.6599583 2.71758117 -8 3 C-8.99 3.33 -9.98 3.66 -11 4 C-13.6875 3.5625 -13.6875 3.5625 -16 3 C-13.65637178 0.65637178 -12.88875552 0.66553411 -9.6875 0.375 C-8.88828125 0.30152344 -8.0890625 0.22804688 -7.265625 0.15234375 C-4.83668345 -0.01098163 -2.43364261 -0.0785046 0 0 Z " fill="#B1BBAA" transform="translate(267,106)"/>
<path d="M0 0 C2.74792483 3.40219265 6 7.48464588 6 12 C5.34 12 4.68 12 4 12 C4 11.34 4 10.68 4 10 C3.01 9.67 2.02 9.34 1 9 C0.67 6.03 0.34 3.06 0 0 Z " fill="#5B8675" transform="translate(130,642)"/>
<path d="M0 0 C0.99 0.33 1.98 0.66 3 1 C0.375 5.875 0.375 5.875 -3 7 C-3.66 6.34 -4.32 5.68 -5 5 C-4.34 5 -3.68 5 -3 5 C-2.5359375 4.0409375 -2.5359375 4.0409375 -2.0625 3.0625 C-1 1 -1 1 0 0 Z " fill="#3A4242" transform="translate(629,643)"/>
<path d="M0 0 C0.33 0 0.66 0 1 0 C1 2.31 1 4.62 1 7 C-0.98 7.99 -2.96 8.98 -5 10 C-3.66654496 6.40992874 -2.1056769 3.20429093 0 0 Z " fill="#C6E1D4" transform="translate(351,349)"/>
<path d="M0 0 C2.97 0 5.94 0 9 0 C9.66 1.65 10.32 3.3 11 5 C10.01 5 9.02 5 8 5 C7.67 5.66 7.34 6.32 7 7 C7 5.35 7 3.7 7 2 C4.69 1.67 2.38 1.34 0 1 C0 0.67 0 0.34 0 0 Z " fill="#D0E9DD" transform="translate(125,698)"/>
<path d="M0 0 C0.66 0.33 1.32 0.66 2 1 C1.09515208 2.15518918 0.1755794 3.29885406 -0.75 4.4375 C-1.26046875 5.07558594 -1.7709375 5.71367187 -2.296875 6.37109375 C-4.19667629 8.18810554 -5.43586908 8.60423197 -8 9 C-6.4169423 4.7257442 -3.49431596 2.73468206 0 0 Z " fill="#D5E0D3" transform="translate(347,426)"/>
<path d="M0 0 C1.1171875 1.734375 1.1171875 1.734375 2 4 C1.3203125 6.140625 1.3203125 6.140625 0.125 8.25 C-0.26429688 8.95640625 -0.65359375 9.6628125 -1.0546875 10.390625 C-1.36664063 10.92171875 -1.67859375 11.4528125 -2 12 C-2.33 12 -2.66 12 -3 12 C-3 9.36 -3 6.72 -3 4 C-2.34 3.67 -1.68 3.34 -1 3 C-0.67 2.01 -0.34 1.02 0 0 Z " fill="#E6F8F3" transform="translate(276,391)"/>
<path d="M0 0 C0.67578125 1.70703125 0.67578125 1.70703125 1 4 C-0.14453125 6.32421875 -0.14453125 6.32421875 -1.8125 8.6875 C-2.62654297 9.86892578 -2.62654297 9.86892578 -3.45703125 11.07421875 C-5 13 -5 13 -7 14 C-5.53967505 8.68972746 -3.01679014 4.53669968 0 0 Z " fill="#4D7C60" transform="translate(306,434)"/>
<path d="M0 0 C3.63 0 7.26 0 11 0 C10.67 0.66 10.34 1.32 10 2 C7.36 2 4.72 2 2 2 C1.67 2.99 1.34 3.98 1 5 C0.67 4.34 0.34 3.68 0 3 C-0.99 3.495 -0.99 3.495 -2 4 C-1.34 2.68 -0.68 1.36 0 0 Z " fill="#E7F0EB" transform="translate(61,700)"/>
<path d="M0 0 C0 3.92896395 -1.00299863 7.19893228 -2 11 C-3.32 11.33 -4.64 11.66 -6 12 C-5.38144369 10.3725363 -4.75492695 8.74809644 -4.125 7.125 C-3.77695312 6.22007812 -3.42890625 5.31515625 -3.0703125 4.3828125 C-2 2 -2 2 0 0 Z " fill="#598572" transform="translate(302,349)"/>
<path d="M0 0 C4 0 4 0 5.75 1.1875 C7.38540232 3.55883336 7.22858693 5.18076123 7 8 C6.34 6.68 5.68 5.36 5 4 C3.35 4 1.7 4 0 4 C0 2.68 0 1.36 0 0 Z " fill="#87AF9B" transform="translate(352,344)"/>
<path d="M0 0 C0 4.24645065 -1.81750806 6.38524772 -4 10 C-5.11196276 6.66411172 -5.09809194 5.29427581 -4 2 C-1.9375 0.6875 -1.9375 0.6875 0 0 Z " fill="#B5D7CC" transform="translate(240,465)"/>
<path d="M0 0 C0 3.58912412 -0.66436554 4.10857029 -3 6.6875 C-3.556875 7.31011719 -4.11375 7.93273437 -4.6875 8.57421875 C-5.120625 9.04472656 -5.55375 9.51523437 -6 10 C-6.99 9.67 -7.98 9.34 -9 9 C-6.03 6.03 -3.06 3.06 0 0 Z " fill="#DAE5DA" transform="translate(331,442)"/>
<path d="M0 0 C0.66 0 1.32 0 2 0 C0.55049545 3.7910119 -1.15172566 7.3874638 -3 11 C-3.33 11 -3.66 11 -4 11 C-3.67 8.69 -3.34 6.38 -3 4 C-2.01 3.67 -1.02 3.34 0 3 C0 2.01 0 1.02 0 0 Z " fill="#D7F2E8" transform="translate(314,322)"/>
<path d="M0 0 C0.33 0 0.66 0 1 0 C1.31563182 5.26053037 0.66590937 8.44573816 -2 13 C-2.33 13 -2.66 13 -3 13 C-2.45144652 8.428721 -1.58255197 4.32564205 0 0 Z " fill="#E6EDE0" transform="translate(228,161)"/>
<path d="M0 0 C2 1 2 1 3.125 3.375 C4 6 4 6 4 9 C3.01 9.33 2.02 9.66 1 10 C0.22157062 6.59437148 -0.09978121 3.49234244 0 0 Z " fill="#46846D" transform="translate(152,687)"/>
<path d="M0 0 C2.6855594 2.6855594 3.06049974 5.37621328 4 9 C2.35 9 0.7 9 -1 9 C-0.67 8.01 -0.34 7.02 0 6 C0.03920815 4.00038436 0.04443347 1.99950636 0 0 Z " fill="#8DB8A5" transform="translate(128,688)"/>
<path d="M0 0 C0.99 0 1.98 0 3 0 C2.75 2.375 2.75 2.375 2 5 C-0.0625 6.3125 -0.0625 6.3125 -2 7 C-1.125 2.25 -1.125 2.25 0 0 Z " fill="#5A8A77" transform="translate(86,598)"/>
<path d="M0 0 C0.66 0.33 1.32 0.66 2 1 C1.3125 2.9375 1.3125 2.9375 0 5 C-2.625 5.75 -2.625 5.75 -5 6 C-3.86695008 2.60085025 -2.87481525 1.94745549 0 0 Z " fill="#4C8368" transform="translate(341,280)"/>
<path d="M0 0 C0.66 0.66 1.32 1.32 2 2 C1.68134222 5.29279709 0.45484649 6.86535088 -2 9 C-3 6 -3 6 -1.5625 2.8125 C-1.046875 1.884375 -0.53125 0.95625 0 0 Z " fill="#E4F8F1" transform="translate(53,716)"/>
<path d="M0 0 C1.921875 0.7109375 1.921875 0.7109375 4 2 C4.828125 4.1640625 4.828125 4.1640625 5.25 6.625 C5.39953125 7.44226563 5.5490625 8.25953125 5.703125 9.1015625 C5.80109375 9.72804688 5.8990625 10.35453125 6 11 C2.17179787 9.08589894 1.29482585 3.88447755 0 0 Z " fill="#C3E1D6" transform="translate(156,695)"/>
<path d="M0 0 C2.31 0 4.62 0 7 0 C7.33 0.66 7.66 1.32 8 2 C5.09399739 3.25664978 3.20395416 4 0 4 C0 2.68 0 1.36 0 0 Z " fill="#E4F2EE" transform="translate(560,436)"/>
<path d="M0 0 C2 3 2 3 1.9375 5.0625 C1 7 1 7 -1.5625 8.25 C-2.366875 8.4975 -3.17125 8.745 -4 9 C-2.80100302 5.9168649 -1.52299523 2.93720508 0 0 Z " fill="#5B8675" transform="translate(285,380)"/>
<path d="M0 0 C2.3125 0.1875 2.3125 0.1875 4 1 C4 1.66 4 2.32 4 3 C1.03 3.66 -1.94 4.32 -5 5 C-2.75 2.4375 -2.75 2.4375 0 0 Z " fill="#395F4E" transform="translate(594,205)"/>
<path d="M0 0 C4.29 0.33 8.58 0.66 13 1 C13 1.33 13 1.66 13 2 C8.73933592 2.7518819 5.1734802 3.35024359 1 2 C0.67 1.34 0.34 0.68 0 0 Z " fill="#31604D" transform="translate(544,65)"/>
<path d="M0 0 C2.91227269 3.28804981 4.49701212 5.59885603 5 10 C3.68 9.67 2.36 9.34 1 9 C0.67 6.03 0.34 3.06 0 0 Z " fill="#B0D1C1" transform="translate(415,464)"/>
<path d="M0 0 C1.22419811 3.67259434 0.54143712 4.57458418 -1 8 C-1.33 8.99 -1.66 9.98 -2 11 C-2.99 10.67 -3.98 10.34 -5 10 C-3.33333333 6.66666667 -1.66666667 3.33333333 0 0 Z " fill="#608372" transform="translate(329,298)"/>
<path d="M0 0 C2.64 0 5.28 0 8 0 C8 0.33 8 0.66 8 1 C6.63875 1.4021875 6.63875 1.4021875 5.25 1.8125 C2.28528037 2.89576294 0.3830246 3.98359457 -2 6 C-1.49396008 3.83125748 -1.00016187 2.00032373 0 0 Z " fill="#A8B09C" transform="translate(499,292)"/>
<path d="M0 0 C4.22797927 3.08290155 4.22797927 3.08290155 6 5 C6.375 7.8125 6.375 7.8125 6 10 C5.4225 9.2575 4.845 8.515 4.25 7.75 C2.27746474 5.33912357 0.23955718 3.15957299 -2 1 C-1.34 0.67 -0.68 0.34 0 0 Z " fill="#CEE6DC" transform="translate(607,204)"/>
<path d="M0 0 C0.66 0 1.32 0 2 0 C1.55090939 1.48199902 1.09043436 2.96055236 0.625 4.4375 C0.36976563 5.26121094 0.11453125 6.08492187 -0.1484375 6.93359375 C-1 9 -1 9 -3 10 C-2.67 7.69 -2.34 5.38 -2 3 C-1.34 3 -0.68 3 0 3 C0 2.01 0 1.02 0 0 Z " fill="#E2E9DC" transform="translate(209,141)"/>
<path d="M0 0 C0.99 0 1.98 0 3 0 C1.25 5.75 1.25 5.75 -1 8 C-1.66 6.68 -2.32 5.36 -3 4 C-2.01 3.34 -1.02 2.68 0 2 C0 1.34 0 0.68 0 0 Z " fill="#C1DCD4" transform="translate(36,696)"/>
<path d="M0 0 C0.66 0 1.32 0 2 0 C1.67 1.65 1.34 3.3 1 5 C0.34 5 -0.32 5 -1 5 C-1.66 6.32 -2.32 7.64 -3 9 C-3 7.35 -3 5.7 -3 4 C-2.34 4 -1.68 4 -1 4 C-0.67 2.68 -0.34 1.36 0 0 Z " fill="#CCEBE1" transform="translate(250,443)"/>
<path d="M0 0 C0 0.66 0 1.32 0 2 C-3.02525676 4.40240978 -4.4125871 5.05541631 -8.3125 4.6875 C-9.199375 4.460625 -10.08625 4.23375 -11 4 C-3.28571429 0 -3.28571429 0 0 0 Z " fill="#3C5E52" transform="translate(567,438)"/>
<path d="M0 0 C0.66 0 1.32 0 2 0 C2 1.32 2 2.64 2 4 C1.34 4 0.68 4 0 4 C-0.66 5.32 -1.32 6.64 -2 8 C-2.66 7.67 -3.32 7.34 -4 7 C-2.68 4.69 -1.36 2.38 0 0 Z " fill="#E1F4EB" transform="translate(606,432)"/>
<path d="M0 0 C0.99 0 1.98 0 3 0 C3 1.32 3 2.64 3 4 C1.35 4.66 -0.3 5.32 -2 6 C-1.34 4.02 -0.68 2.04 0 0 Z " fill="#CEE2D8" transform="translate(609,424)"/>
<path d="M0 0 C1.9375 0.8125 1.9375 0.8125 4 2 C4.97608217 4.92824652 5.08226668 6.95613276 5 10 C3 9 3 9 2.1484375 6.93359375 C1.89320313 6.10988281 1.63796875 5.28617187 1.375 4.4375 C1.11460937 3.61121094 0.85421875 2.78492188 0.5859375 1.93359375 C0.39257812 1.29550781 0.19921875 0.65742188 0 0 Z " fill="#D5EEE2" transform="translate(425,385)"/>
<path d="M0 0 C0.33 1.32 0.66 2.64 1 4 C-3.75 7 -3.75 7 -6 7 C-6 6.34 -6 5.68 -6 5 C-5.34 5 -4.68 5 -4 5 C-4 4.34 -4 3.68 -4 3 C-3.34 3 -2.68 3 -2 3 C-2 2.34 -2 1.68 -2 1 C-1.34 0.67 -0.68 0.34 0 0 Z " fill="#A9B5A0" transform="translate(229,120)"/>
<path d="M0 0 C0.33 1.32 0.66 2.64 1 4 C-3.29 4 -7.58 4 -12 4 C-12 3.67 -12 3.34 -12 3 C-10.95199219 2.92652344 -10.95199219 2.92652344 -9.8828125 2.8515625 C-8.97273437 2.77679688 -8.06265625 2.70203125 -7.125 2.625 C-6.22007812 2.55539063 -5.31515625 2.48578125 -4.3828125 2.4140625 C-1.82058097 2.20431868 -1.82058097 2.20431868 0 0 Z " fill="#1D4E39" transform="translate(548,112)"/>
<path d="M0 0 C1.32 0 2.64 0 4 0 C4 1.32 4 2.64 4 4 C1.36 3.67 -1.28 3.34 -4 3 C-2.68 2.67 -1.36 2.34 0 2 C0 1.34 0 0.68 0 0 Z " fill="#DFE6E4" transform="translate(670,632)"/>
<path d="M0 0 C-3.06117568 2.62386487 -3.73173127 3 -8 3 C-8 2.34 -8 1.68 -8 1 C-4.93251126 -0.86240388 -3.40254489 -1.2151946 0 0 Z " fill="#2D5646" transform="translate(591,453)"/>
<path d="M0 0 C3.63 0 7.26 0 11 0 C11 0.33 11 0.66 11 1 C8.36 1.66 5.72 2.32 3 3 C3 2.34 3 1.68 3 1 C2.34 1 1.68 1 1 1 C0.67 1.66 0.34 2.32 0 3 C0 2.01 0 1.02 0 0 Z " fill="#677B6B" transform="translate(315,421)"/>
<path d="M0 0 C0.66 0.33 1.32 0.66 2 1 C1.34 4.96 0.68 8.92 0 13 C-0.33 13 -0.66 13 -1 13 C-1.02686553 11.02090602 -1.04633375 9.04171029 -1.0625 7.0625 C-1.07410156 5.96035156 -1.08570313 4.85820312 -1.09765625 3.72265625 C-1 1 -1 1 0 0 Z " fill="#3D6554" transform="translate(588,210)"/>
<path d="M0 0 C0.66 0.99 1.32 1.98 2 3 C-0.39509338 5.89932357 -2.31245243 6.50168276 -6 7 C-5.67 6.34 -5.34 5.68 -5 5 C-4.34 5 -3.68 5 -3 5 C-3 4.34 -3 3.68 -3 3 C-1.5 1.375 -1.5 1.375 0 0 Z " fill="#CFECE1" transform="translate(613,174)"/>
<path d="M0 0 C0.99 0 1.98 0 3 0 C2.37240135 2.92879371 1.41377341 5.36095629 0 8 C-1.09658936 4.71023192 -0.79953138 3.28696233 0 0 Z " fill="#BAD6CD" transform="translate(26,716)"/>
<path d="M0 0 C2 1 2 1 4 4 C4.66 4 5.32 4 6 4 C5.67 5.32 5.34 6.64 5 8 C2.21611025 6.29374499 1.14615794 5.52373261 0.25 2.3125 C0.1675 1.549375 0.085 0.78625 0 0 Z " fill="#C1CAC7" transform="translate(486,696)"/>
<path d="M0 0 C0.33 0 0.66 0 1 0 C1.33 2.64 1.66 5.28 2 8 C1.01 8 0.02 8 -1 8 C-2 6 -2 6 -1.0625 2.875 C-0.5365625 1.451875 -0.5365625 1.451875 0 0 Z " fill="#454E4B" transform="translate(550,690)"/>
<path d="M0 0 C2.31 0.33 4.62 0.66 7 1 C3.77208445 3.1519437 2.71599191 3.20086443 -1 3 C-0.67 2.01 -0.34 1.02 0 0 Z " fill="#404745" transform="translate(346,680)"/>
<path d="M0 0 C0.66 0.66 1.32 1.32 2 2 C0.02 4.97 0.02 4.97 -2 8 C-2.66 7.01 -3.32 6.02 -4 5 C-2.68 3.35 -1.36 1.7 0 0 Z " fill="#E3E9E7" transform="translate(472,648)"/>
<path d="M0 0 C0.33 0.66 0.66 1.32 1 2 C1.66 2.33 2.32 2.66 3 3 C2.01 5.31 1.02 7.62 0 10 C-0.33 10 -0.66 10 -1 10 C-1.125 3.375 -1.125 3.375 0 0 Z " fill="#D6ECE4" transform="translate(64,637)"/>
<path d="M0 0 C1.65 0 3.3 0 5 0 C5 1.32 5 2.64 5 4 C3.02 3.34 1.04 2.68 -1 2 C-0.67 1.34 -0.34 0.68 0 0 Z " fill="#DEE2E1" transform="translate(535,636)"/>
<path d="M0 0 C0.66 0.33 1.32 0.66 2 1 C-1.465 3.97 -1.465 3.97 -5 7 C-5.66 6.67 -6.32 6.34 -7 6 C-4.69 4.02 -2.38 2.04 0 0 Z " fill="#D8E4DC" transform="translate(282,491)"/>
<path d="M0 0 C0.66 0.33 1.32 0.66 2 1 C-2.75 5.875 -2.75 5.875 -5 7 C-5.33 5.68 -5.66 4.36 -6 3 C-4.68 3 -3.36 3 -2 3 C-1.34 2.01 -0.68 1.02 0 0 Z " fill="#97A197" transform="translate(314,457)"/>
<path d="M0 0 C0.33 1.32 0.66 2.64 1 4 C-0.98 4.99 -0.98 4.99 -3 6 C-3.66 5.34 -4.32 4.68 -5 4 C-3.35 2.68 -1.7 1.36 0 0 Z " fill="#365B4F" transform="translate(574,432)"/>
<path d="M0 0 C0.33 0 0.66 0 1 0 C1.33 2.97 1.66 5.94 2 9 C1.01 9 0.02 9 -1 9 C-0.67 6.03 -0.34 3.06 0 0 Z " fill="#3D6356" transform="translate(586,405)"/>
<path d="M0 0 C1.32 0.33 2.64 0.66 4 1 C2.71034824 2.37562854 1.37310707 3.70766393 0 5 C-0.66 5 -1.32 5 -2 5 C-1.34 3.35 -0.68 1.7 0 0 Z " fill="#2D6F55" transform="translate(502,72)"/>
</svg>
