<?xml version="1.0" encoding="UTF-8"?>
<svg version="1.1" xmlns="http://www.w3.org/2000/svg" width="1254" height="1254">
<path d="M0 0 C413.82 0 827.64 0 1254 0 C1254 413.82 1254 827.64 1254 1254 C840.18 1254 426.36 1254 0 1254 C0 840.18 0 426.36 0 0 Z " fill="#FEFDFD" transform="translate(0,0)"/>
<path d="M0 0 C8.15151843 6.09056849 12.33136767 13.36157834 16.5625 22.4375 C21.76650497 33.46022103 27.08820631 44.42224585 32.4375 55.375 C37.89034513 66.54546131 43.32580651 77.72293199 48.6875 88.9375 C53.0275392 98.00939766 57.46778533 107.02288856 62 116 C67.45883929 126.82655328 72.87090752 137.66737996 78.0625 148.625 C83.27241394 159.61449655 88.72113386 170.47948969 94.17874146 181.347229 C100.27945949 193.50033626 106.2578116 205.70133866 112.04882812 218.00585938 C112.70391268 219.3792502 113.39803892 220.73446833 114.12304688 222.07226562 C115 224 115 224 115 227 C99.49 227 83.98 227 68 227 C62.05715236 215.70858948 56.14123085 204.43286264 50.43896484 193.02319336 C49.74799758 191.6442658 49.0568708 190.26541816 48.36560059 188.88664246 C46.52551614 185.21514197 44.68790025 181.54241188 42.85102415 177.86930537 C41.70062399 175.56922317 40.54965233 173.26942785 39.39848709 170.96972847 C35.37645102 162.93483841 31.35642506 154.89894658 27.33837891 146.86206055 C23.59847716 139.38165165 19.85407505 131.90350713 16.10765684 124.42636007 C12.87746096 117.97901319 9.65032612 111.53014047 6.42560351 105.08005434 C4.50494669 101.23848569 2.58305057 97.39754947 0.65806198 93.55814934 C-1.14309546 89.96546878 -2.94045238 86.37091316 -4.73483276 82.77484322 C-5.39458839 81.45428171 -6.05572201 80.13440766 -6.71830368 78.81526184 C-7.61915523 77.02121634 -8.51464582 75.22448184 -9.40982056 73.42759705 C-10.16464438 71.91876654 -10.16464438 71.91876654 -10.93471718 70.37945461 C-12 68 -12 68 -12 66 C-12.66 66 -13.32 66 -14 66 C-14.20625 66.78375 -14.4125 67.5675 -14.625 68.375 C-15.77252853 71.4003025 -16.93690985 73.65937672 -18.625 76.375 C-21.20630606 80.55721222 -23.46789174 84.83828394 -25.625 89.25 C-28.87268739 95.86728257 -32.32584321 102.35216749 -35.875 108.8125 C-39.86399049 116.07759547 -43.81885797 123.3574787 -47.6875 130.6875 C-48.10950684 131.48325439 -48.53151367 132.27900879 -48.96630859 133.09887695 C-49.35254395 133.83323975 -49.7387793 134.56760254 -50.13671875 135.32421875 C-50.47405029 135.96447998 -50.81138184 136.60474121 -51.15893555 137.2644043 C-52.12819109 139.16934452 -52.12819109 139.16934452 -53 142 C-40.46 142 -27.92 142 -15 142 C-16.67845816 145.35691631 -17.68614512 146.93534287 -20.22119141 149.46411133 C-20.87592438 150.12192093 -21.53065735 150.77973053 -22.20523071 151.45747375 C-22.9135202 152.15857773 -23.62180969 152.8596817 -24.3515625 153.58203125 C-25.08442474 154.31443527 -25.81728699 155.04683929 -26.57235718 155.80143738 C-28.12513829 157.35119847 -29.68034803 158.89852945 -31.23779297 160.44360352 C-33.60043828 162.78812668 -35.95511735 165.14041748 -38.30859375 167.49414062 C-39.82244833 169.00307417 -41.33675717 170.51155215 -42.8515625 172.01953125 C-43.5477066 172.71456253 -44.24385071 173.40959381 -44.96109009 174.12568665 C-48.21992642 177.35365974 -51.50727034 180.45733027 -55.01904297 183.40917969 C-58.70768534 186.59379846 -61.71961945 190.10787791 -64.77905273 193.89109802 C-91.52396458 226.82513888 -91.52396458 226.82513888 -108.93640137 229.35231018 C-121.67788454 230.39619087 -134.42744348 229.11604395 -147 227 C-143.99510807 217.53124417 -143.99510807 217.53124417 -141.64453125 213.3984375 C-141.19529297 212.59470703 -140.74605469 211.79097656 -140.28320312 210.96289062 C-139.79787109 210.10888672 -139.31253906 209.25488281 -138.8125 208.375 C-133.68570957 199.17486923 -128.79919391 189.87320736 -124 180.5 C-118.96827612 170.68486415 -113.83880836 160.94212416 -108.5078125 151.28515625 C-104.37089212 143.75841432 -100.42497368 136.13844107 -96.5 128.5 C-92.12374211 119.983309 -87.69056032 111.50861746 -83.0625 103.125 C-78.20988636 94.33211698 -73.58276822 85.43525469 -69 76.5 C-63.97103055 66.69476422 -58.863016 56.95104611 -53.51660156 47.3137207 C-50.63990714 42.09934687 -47.88426843 36.83809404 -45.20703125 31.51953125 C-44.54375227 30.20912127 -43.8804221 28.8987372 -43.21704102 27.58837891 C-41.93799024 25.06012593 -40.6770268 22.52391737 -39.42553711 19.98193359 C-34.49022953 10.21392639 -29.36650243 1.21399161 -18.515625 -2.4140625 C-11.65669469 -4.01163944 -6.21888708 -3.5051909 0 0 Z " fill="#28694C" transform="translate(601,488)"/>
<path d="M0 0 C1.9524568 -0.00763204 3.90491062 -0.01606132 5.85736084 -0.02522278 C11.13174342 -0.04705661 16.40606808 -0.05595027 21.68049073 -0.06104922 C24.9780325 -0.06470241 28.27555929 -0.07094708 31.57309532 -0.07805061 C43.08242836 -0.10249497 54.59171655 -0.11558861 66.10107422 -0.11914062 C76.82414715 -0.12278416 87.54693535 -0.15275089 98.26992112 -0.19454521 C107.48800475 -0.22921315 116.70599367 -0.24468836 125.92414206 -0.24538666 C131.42511641 -0.24617989 136.92579946 -0.25494216 142.42670631 -0.28338432 C147.59382081 -0.30950875 152.76040103 -0.31180162 157.92755127 -0.29572868 C159.82303213 -0.29391042 161.71854339 -0.30063888 163.61395836 -0.31654739 C166.20212109 -0.33694688 168.7884029 -0.32649385 171.37654114 -0.30833435 C172.12585948 -0.32153432 172.87517783 -0.33473429 173.64720279 -0.34833425 C179.40008237 -0.25616538 181.69065845 1.3635378 185.57885742 5.30639648 C188.41473906 9.56021894 188.46998121 13.31459289 187.57885742 18.30639648 C185.57031262 21.73817395 183.15815902 24.51674569 179.57885742 26.30639648 C176.97329217 26.40550793 174.39425822 26.44363701 171.7883606 26.43769836 C170.97432451 26.43981408 170.16028843 26.44192979 169.32158458 26.44410962 C166.57806456 26.45012853 163.8345903 26.4491081 161.09106445 26.44824219 C159.12996848 26.45127259 157.16887321 26.45479372 155.20777893 26.45877075 C150.97511847 26.4666719 146.74246649 26.47180936 142.50979996 26.47506142 C135.81053331 26.48096622 129.11131994 26.49750359 122.41207886 26.5164032 C120.11887554 26.52274115 117.82567218 26.52906677 115.5324688 26.53538036 C113.8093704 26.54012908 113.8093704 26.54012908 112.05146194 26.54497373 C96.45122839 26.58704162 80.85101887 26.62000126 65.25073242 26.63232422 C54.73449026 26.64071665 44.21837924 26.66325528 33.70220268 26.70167989 C28.13837157 26.72140847 22.57473638 26.73385589 17.01086807 26.7288456 C11.76918138 26.72418341 6.52786507 26.73809041 1.28625298 26.7658577 C-0.63086417 26.77274433 -2.54801983 26.77292346 -4.46513557 26.76565742 C-21.5386825 26.70751762 -34.96639226 29.72283607 -48.17114258 41.36889648 C-57.14551052 50.883889 -60.72909962 63.74692631 -60.67269897 76.4276123 C-60.67566911 77.55148236 -60.67863925 78.67535241 -60.6816994 79.83327913 C-60.68934108 83.60106273 -60.68284461 87.36869053 -60.67651367 91.13647461 C-60.67926344 93.83695535 -60.68282494 96.5374229 -60.68748474 99.23789978 C-60.69611132 105.05402955 -60.69792744 110.87012891 -60.69553757 116.68626404 C-60.69243862 125.10192506 -60.7040831 133.51751889 -60.72008736 141.93316299 C-60.74604124 155.59614236 -60.76606477 169.25912179 -60.77954102 182.92211914 C-60.78035139 183.73957133 -60.78116176 184.55702352 -60.78199668 185.39924699 C-60.79322201 197.00401335 -60.79850034 208.60877492 -60.80138381 220.21354598 C-60.8015878 221.03099817 -60.80179178 221.84845036 -60.80200195 222.69067383 C-60.80230186 223.91535636 -60.80230186 223.91535636 -60.80260782 225.16477996 C-60.80634008 238.77716476 -60.82541936 252.38947659 -60.85709631 266.00182486 C-60.87601464 274.3966954 -60.88197018 282.79137888 -60.87127914 291.18626487 C-60.86496268 296.93728447 -60.87299298 302.68816984 -60.89233325 308.43915999 C-60.90302096 311.75745983 -60.90497599 315.07536658 -60.89386177 318.39367485 C-60.88278256 321.99115926 -60.89612485 325.58775112 -60.9156189 329.18518066 C-60.90649424 330.23362168 -60.89736958 331.28206269 -60.88796842 332.36227465 C-60.95094559 338.31940545 -61.41427641 341.79025067 -65.42114258 346.30639648 C-69.65108873 349.12636059 -73.45334706 349.09870837 -78.42114258 348.30639648 C-81.76739282 345.7796361 -83.10092105 344.26706107 -84.42114258 340.30639648 C-84.51476788 338.75321258 -84.55202945 337.19631658 -84.55536366 335.64031696 C-84.5598215 334.67582703 -84.56427934 333.7113371 -84.56887227 332.71762019 C-84.56868791 331.65558901 -84.56850355 330.59355782 -84.5683136 329.49934387 C-84.57199029 328.37284209 -84.57566697 327.24634032 -84.57945508 326.08570212 C-84.59051537 322.29052864 -84.59433982 318.49538252 -84.59814453 314.70019531 C-84.60387459 311.98682927 -84.61104153 309.27346735 -84.61805725 306.56010437 C-84.63782713 298.39954597 -84.64789164 290.23898631 -84.65678504 282.07840994 C-84.66116984 278.23166688 -84.66653641 274.38492519 -84.67177391 270.53818321 C-84.68879189 257.74175839 -84.70328233 244.94533443 -84.71052265 232.14890003 C-84.71243245 228.82745678 -84.71435279 225.50601354 -84.71630859 222.18457031 C-84.7170342 220.94632416 -84.7170342 220.94632416 -84.71777447 219.68306293 C-84.72606064 206.33417596 -84.75137101 192.98537901 -84.78388927 179.63653127 C-84.81703408 165.9180067 -84.83497837 152.19952773 -84.83816689 138.48096293 C-84.84032588 130.78420128 -84.84898362 123.08757064 -84.87462807 115.39084816 C-84.89643727 108.83008088 -84.90433593 102.26947639 -84.89466128 95.70867697 C-84.89014488 92.36680685 -84.89406896 89.02554162 -84.91142273 85.68367386 C-85.02625273 62.2470643 -82.85667375 41.17158471 -65.75708008 23.57592773 C-64.9862207 22.82698242 -64.21536133 22.07803711 -63.42114258 21.30639648 C-62.6502832 20.52651367 -61.87942383 19.74663086 -61.08520508 18.94311523 C-52.36578759 10.54820681 -42.17117188 5.09747259 -30.42114258 2.30639648 C-29.33236549 2.03776244 -29.33236549 2.03776244 -28.2215929 1.76370144 C-18.87962661 -0.23794916 -9.50402927 0.00236254 0 0 Z " fill="#9CAC8F" transform="translate(519.421142578125,314.693603515625)"/>
<path d="M0 0 C0.87589279 -0.0087616 1.75178558 -0.01752319 2.65422058 -0.02655029 C5.52715743 -0.04841734 8.39853401 -0.03403703 11.27148438 -0.01708984 C13.28113091 -0.02046163 15.29077545 -0.02531727 17.30041504 -0.03158569 C21.50337218 -0.03893983 25.70579643 -0.02829846 29.90869141 -0.00488281 C35.2821927 0.02360386 40.65444517 0.00719208 46.0279007 -0.02274513 C50.17508262 -0.04085748 54.32197097 -0.035042 58.46916199 -0.02210617 C60.44980519 -0.01878305 62.4304755 -0.02282055 64.41108704 -0.03450394 C67.18492706 -0.04727765 69.95677612 -0.02774538 72.73046875 0 C73.94484871 -0.01518173 73.94484871 -0.01518173 75.1837616 -0.03067017 C81.19164415 0.0800385 85.17344414 1.91439653 89.86523438 5.64697266 C92.24023438 8.20947266 92.24023438 8.20947266 93.86523438 10.64697266 C94.22308517 11.18199402 94.58093597 11.71701538 94.94963074 12.26824951 C96.32140131 15.83208682 96.15147819 19.37822303 96.13989258 23.14404297 C96.14500351 23.99984451 96.15011444 24.85564606 96.15538025 25.73738098 C96.16927991 28.56669105 96.16831868 31.3957575 96.16601562 34.22509766 C96.16990338 36.19561859 96.17423821 38.1661387 96.17900085 40.13665771 C96.18646463 44.26919264 96.18617139 48.40164216 96.1809082 52.53417969 C96.17512442 57.81782081 96.19201746 63.10111014 96.21525288 68.38469315 C96.23002269 72.45631947 96.2308573 76.52786182 96.22774315 80.59951019 C96.22825509 82.5466659 96.23346891 84.49382646 96.24355507 86.44095612 C96.25596012 89.1716406 96.24910267 91.90164967 96.23754883 94.63232422 C96.24519257 95.42949356 96.2528363 96.2266629 96.26071167 97.04798889 C96.20408981 103.13514326 95.19694986 108.84458606 91.18164062 113.67041016 C90.60285156 114.11642578 90.0240625 114.56244141 89.42773438 115.02197266 C88.85152344 115.48345703 88.2753125 115.94494141 87.68164062 116.42041016 C82.88360921 119.66037115 78.92444292 119.94873894 73.18457031 119.95336914 C72.30926163 119.96169266 71.43395294 119.97001617 70.53211975 119.97859192 C67.63790436 120.00268967 64.74391446 120.01146458 61.84960938 120.01806641 C59.83424818 120.02703421 57.81888766 120.03615608 55.80352783 120.04542542 C51.57684716 120.06191827 47.35024571 120.06961584 43.12353516 120.07250977 C37.71864215 120.07788817 32.31449842 120.11554483 26.90981674 120.16125393 C22.74553744 120.1910624 18.58143755 120.19823418 14.41706085 120.19923592 C12.42521998 120.2034321 10.43337828 120.21584215 8.44164276 120.23675346 C5.6483682 120.26374105 2.85681682 120.25882019 0.06347656 120.24633789 C-0.75239426 120.26117218 -1.56826508 120.27600647 -2.40885925 120.29129028 C-8.41916896 120.21516867 -12.61039811 118.66427696 -17.13476562 114.64697266 C-21.90312244 109.28481435 -22.86731737 104.33217592 -22.78173828 97.32861328 C-22.79049988 96.43321335 -22.79926147 95.53781342 -22.80828857 94.61528015 C-22.83016132 91.67742378 -22.81577306 88.74109233 -22.79882812 85.80322266 C-22.80219974 83.74873569 -22.80705524 81.69425068 -22.81332397 79.63977051 C-22.82067889 75.34266084 -22.81003413 71.04607232 -22.78662109 66.74902344 C-22.75813447 61.25446334 -22.77454582 55.76112454 -22.80448341 50.26660919 C-22.82259358 46.02678304 -22.81678125 41.7872441 -22.80384445 37.54740906 C-22.80052073 35.5221085 -22.80456094 33.49678144 -22.81624222 31.47151184 C-22.8290122 28.63542094 -22.80948836 25.80127863 -22.78173828 22.96533203 C-22.79185944 22.13704391 -22.80198059 21.3087558 -22.81240845 20.45536804 C-22.70358862 14.42010378 -21.17659787 10.19094815 -17.13476562 5.64697266 C-11.82030382 0.93897749 -6.93775414 -0.08673325 0 0 Z " fill="#1A6244" transform="translate(754.134765625,273.35302734375)"/>
<path d="M0 0 C0.66040787 -0.0065712 1.32081573 -0.0131424 2.00123596 -0.01991272 C4.2011018 -0.03971785 6.40089856 -0.05133498 8.60083008 -0.0612793 C9.73166236 -0.06739259 9.73166236 -0.06739259 10.88533974 -0.07362938 C14.88905185 -0.09453812 18.89272939 -0.10880904 22.89648438 -0.11816406 C26.99931808 -0.1291334 31.10159499 -0.16340676 35.20423412 -0.20333576 C38.38309093 -0.22974037 41.5618212 -0.23787761 44.74077797 -0.24144554 C46.25038653 -0.24626419 47.7599913 -0.25774014 49.2694912 -0.27648354 C64.15307862 -0.44953957 79.43343789 1.9253759 90.96411133 12.2121582 C99.47902582 21.21953976 102.86101635 30.29722153 102.87036133 42.42700195 C102.88260742 43.24813477 102.89485352 44.06926758 102.9074707 44.9152832 C102.9348586 56.43645922 99.46414251 66.5138725 91.49536133 74.98950195 C82.50390265 83.43015936 69.24689284 88.32456127 56.89257812 88.29052734 C55.51171272 88.29041405 55.51171272 88.29041405 54.10295105 88.29029846 C52.63236992 88.28255653 52.63236992 88.28255653 51.13208008 88.2746582 C50.11813675 88.27324326 49.10419342 88.27182831 48.05952454 88.27037048 C44.82977311 88.26478524 41.6000917 88.2522354 38.37036133 88.23950195 C36.17700296 88.23448505 33.98364349 88.22992247 31.7902832 88.22583008 C26.4211188 88.21482063 21.05199507 88.19809715 15.68286133 88.17700195 C15.68508194 88.73854477 15.68730255 89.30008759 15.68959045 89.87864685 C15.71164439 95.7018063 15.72676837 101.52495396 15.73779297 107.34814453 C15.7428344 109.52393068 15.7496674 111.69971342 15.75830078 113.87548828 C15.77037471 116.99553262 15.77609138 120.11553234 15.78051758 123.2355957 C15.78567886 124.21475449 15.79084015 125.19391327 15.79615784 126.20274353 C15.79627113 127.55403099 15.79627113 127.55403099 15.79638672 128.93261719 C15.79860733 129.72981674 15.80082794 130.5270163 15.80311584 131.34837341 C15.68286133 133.17700195 15.68286133 133.17700195 14.68286133 134.17700195 C13.13330574 134.27599719 11.5793246 134.30779719 10.02661133 134.30981445 C8.61702148 134.31174805 8.61702148 134.31174805 7.17895508 134.3137207 C6.19024414 134.30985352 5.2015332 134.30598633 4.18286133 134.30200195 C3.19415039 134.30586914 2.20543945 134.30973633 1.18676758 134.3137207 C0.24704102 134.31243164 -0.69268555 134.31114258 -1.66088867 134.30981445 C-2.52907227 134.30868652 -3.39725586 134.30755859 -4.29174805 134.30639648 C-6.31713867 134.17700195 -6.31713867 134.17700195 -7.31713867 133.17700195 C-7.41553574 131.47106104 -7.44345895 129.76102225 -7.44412231 128.05224609 C-7.44694214 126.94164825 -7.44976196 125.83105042 -7.45266724 124.6867981 C-7.45064301 123.45766693 -7.44861877 122.22853577 -7.4465332 120.9621582 C-7.44828552 119.67614716 -7.45003784 118.39013611 -7.45184326 117.06515503 C-7.4564172 113.52806031 -7.4546282 109.99099463 -7.45146418 106.45389938 C-7.44894037 102.7601183 -7.45127817 99.06633977 -7.45285034 95.37255859 C-7.45467198 89.16837109 -7.45226589 82.96419547 -7.44750977 76.76000977 C-7.44206715 69.57716831 -7.44382982 62.39435524 -7.44933617 55.21151447 C-7.45386747 49.0552639 -7.45451777 42.8990219 -7.4518975 36.7427702 C-7.45033482 33.06118492 -7.45014072 29.379613 -7.45343399 25.69802856 C-7.45684679 21.59595038 -7.45212269 17.49392148 -7.4465332 13.3918457 C-7.44855743 12.16271454 -7.45058167 10.93358337 -7.45266724 9.66720581 C-7.44984741 8.55660797 -7.44702759 7.44601013 -7.44412231 6.30175781 C-7.44374529 5.33056503 -7.44336826 4.35937225 -7.44297981 3.35874939 C-7.18056508 -1.1908173 -3.85095548 0.03161518 0 0 Z " fill="#283533" transform="translate(515.317138671875,805.822998046875)"/>
<path d="M0 0 C1.4058666 1.39272766 2.73643404 2.86088259 4.046875 4.34375 C4.376875 0.38375 4.706875 -3.57625 5.046875 -7.65625 C11.976875 -7.65625 18.906875 -7.65625 26.046875 -7.65625 C26.06942457 4.45217276 26.08778924 16.56058169 26.09868717 28.66902065 C26.10391636 34.29082962 26.11101466 39.91262353 26.12231445 45.53442383 C26.13314206 50.95493277 26.13915156 56.3754272 26.14175224 61.79594612 C26.14360672 63.86889945 26.14722777 65.94185194 26.15260506 68.01479912 C26.1598138 70.90758893 26.16086601 73.80031796 26.16040039 76.69311523 C26.16399567 77.55913864 26.16759094 78.42516205 26.17129517 79.31742859 C26.16092716 85.22969784 26.16092716 85.22969784 25.046875 86.34375 C23.64338765 86.44235131 22.23507023 86.47453937 20.828125 86.4765625 C19.55388672 86.47849609 19.55388672 86.47849609 18.25390625 86.48046875 C17.36058594 86.47660156 16.46726562 86.47273437 15.546875 86.46875 C14.65355469 86.47261719 13.76023437 86.47648438 12.83984375 86.48046875 C11.99035156 86.47917969 11.14085937 86.47789062 10.265625 86.4765625 C9.48123047 86.47543457 8.69683594 86.47430664 7.88867188 86.47314453 C6.046875 86.34375 6.046875 86.34375 5.046875 85.34375 C4.97443447 83.32410801 4.96310312 81.30207876 4.984375 79.28125 C4.99339844 78.17652344 5.00242187 77.07179688 5.01171875 75.93359375 C5.02332031 75.07894531 5.03492188 74.22429687 5.046875 73.34375 C4.386875 73.34375 3.726875 73.34375 3.046875 73.34375 C2.68529297 74.2409375 2.68529297 74.2409375 2.31640625 75.15625 C-1.79285855 82.23682935 -12.02194034 84.55181212 -19.36328125 86.58203125 C-21.861106 87.09211362 -21.861106 87.09211362 -22.953125 88.34375 C-32.86635925 89.23573836 -43.76235538 89.47124108 -52.953125 85.34375 C-53.76523437 85.01503906 -54.57734375 84.68632813 -55.4140625 84.34765625 C-65.37659164 79.91816252 -74.11056536 72.1958541 -78.953125 62.34375 C-80.52045126 58.06510049 -81.80257625 53.75123676 -82.953125 49.34375 C-83.14648438 48.69921875 -83.33984375 48.0546875 -83.5390625 47.390625 C-85.78558603 36.28516905 -83.92422932 24.42136378 -78.41015625 14.59375 C-76.71285652 12.04585842 -74.91249355 9.69499225 -72.953125 7.34375 C-72.37949219 6.63476562 -71.80585937 5.92578125 -71.21484375 5.1953125 C-54.71531346 -13.24741729 -19.08415065 -16.18335975 0 0 Z " fill="#293633" transform="translate(778.953125,853.65625)"/>
<path d="M0 0 C0.82822266 0.00644531 1.65644531 0.01289063 2.50976562 0.01953125 C8.57869983 0.18473843 12.04225073 1.35535999 16.41625214 5.72818756 C18.83797325 9.42774181 18.87088326 12.47129273 18.82043457 16.74743652 C18.82667453 17.56080774 18.8329145 18.37417895 18.83934355 19.21219778 C18.85528771 21.93538059 18.84266396 24.65767006 18.83007812 27.38085938 C18.83549861 29.33405581 18.84262086 31.28724815 18.85131836 33.24043274 C18.86956327 38.54412409 18.86247928 43.84750442 18.84980202 49.15120125 C18.83968045 54.69956429 18.84906535 60.24790057 18.85534668 65.79626465 C18.86262553 75.11406235 18.8530291 84.43173326 18.83398438 93.74951172 C18.81221524 104.52471817 18.81926644 115.29962188 18.84129 126.074821 C18.85943717 135.32335741 18.86200564 144.57180265 18.85153532 153.82035112 C18.84529666 159.34534703 18.84447507 164.8702006 18.85768127 170.39518738 C18.86922916 175.58928295 18.86123328 180.78298791 18.83810425 185.97704124 C18.8328115 187.88420653 18.83434058 189.79140464 18.84315491 191.6985569 C18.85407171 194.30033742 18.84039411 196.90086311 18.82043457 199.50256348 C18.82935746 200.25888738 18.83828034 201.01521129 18.84747362 201.7944541 C18.77455033 206.68864198 17.78574122 209.18123631 14.3125 212.625 C9.98123768 215.47929163 5.39006225 214.95550094 0.375 214.9375 C-0.51896484 214.95361328 -1.41292969 214.96972656 -2.33398438 214.98632812 C-7.28095199 214.99000071 -10.69290835 214.86160462 -14.6875 211.625 C-15.48086116 211.076677 -15.48086116 211.076677 -16.29024982 210.51727676 C-18.50285215 207.52077975 -18.11740289 204.26545955 -18.10209656 200.68060303 C-18.11030436 199.86218469 -18.11851216 199.04376635 -18.12696868 198.20054746 C-18.15070944 195.44837274 -18.1528707 192.69660616 -18.1550293 189.94433594 C-18.1672755 187.97497301 -18.18072707 186.00561725 -18.19529724 184.03627014 C-18.23041339 178.67870306 -18.2456171 173.32125925 -18.25513434 167.96359158 C-18.26170346 164.61716365 -18.27204605 161.2707686 -18.28363991 157.92435455 C-18.32340128 146.25180384 -18.34540402 134.579352 -18.35327148 122.90673828 C-18.36114139 112.02347968 -18.41036749 101.14092599 -18.47833699 90.25789237 C-18.5346353 80.91765034 -18.56018395 71.57764284 -18.56221896 62.23723245 C-18.564061 56.65711361 -18.57874799 51.07773746 -18.62503624 45.4977951 C-18.66766198 40.24763912 -18.67208022 34.99882064 -18.64724159 29.74856377 C-18.64465382 27.82285081 -18.6557197 25.89706325 -18.68151855 23.97152138 C-18.86346171 9.52236585 -18.86346171 9.52236585 -16.00991249 4.91828156 C-11.11494444 0.35367988 -6.52167703 -0.36031365 0 0 Z " fill="#91A588" transform="translate(743.6875,500.375)"/>
<path d="M0 0 C3.43468508 2.28979006 4.82783406 4.25267577 6.8125 7.875 C7.18860126 10.69809429 7.35048353 13.12247183 7.31370544 15.93650818 C7.32200704 17.12888717 7.32200704 17.12888717 7.33047634 18.34535462 C7.34405481 21.00065842 7.32912871 23.65501764 7.31420898 26.31030273 C7.31799346 28.21786396 7.32349456 30.12542243 7.33058167 32.03297424 C7.34454526 37.21126372 7.33335621 42.38922119 7.31687045 47.56749225 C7.30300344 52.99772056 7.30948261 58.42792991 7.31300354 63.85816956 C7.31570642 72.98679943 7.30223037 82.1152979 7.27905273 91.24389648 C7.25251425 101.7683833 7.25067281 112.29264941 7.2624411 122.81715816 C7.27326236 132.96406695 7.26699318 143.11089661 7.25288582 153.25779915 C7.24715638 157.56323195 7.2471848 161.86860626 7.25195122 166.17403984 C7.25676181 171.26060833 7.24645207 176.34693882 7.22499657 181.43346214 C7.21948102 183.28966215 7.21891457 185.14588527 7.22394943 187.00208664 C7.27694642 209.36341567 3.40655139 228.66796397 -12.375 245.5625 C-23.46341475 256.25354835 -37.9103901 261.875 -53.1875 261.875 C-53.1875 253.625 -53.1875 245.375 -53.1875 236.875 C-50.856875 236.153125 -48.52625 235.43125 -46.125 234.6875 C-35.99955914 231.3625183 -30.41085535 227.41592653 -25.1875 217.875 C-21.38898329 209.84246784 -20.03359572 202.67979398 -20.06292725 193.79089355 C-20.06081202 192.59511476 -20.06081202 192.59511476 -20.05865407 191.37517881 C-20.05501397 188.7129919 -20.05833199 186.05085868 -20.06152344 183.38867188 C-20.06012803 181.47636371 -20.0582283 179.56405586 -20.05586243 177.65174866 C-20.05137159 173.53809867 -20.04950948 169.42445865 -20.04940033 165.31080627 C-20.04825888 158.80609615 -20.03541345 152.30144264 -20.01983643 145.79675293 C-20.01726357 144.69848254 -20.01469072 143.60021214 -20.0120399 142.46866083 C-20.00677365 140.22324367 -20.00148816 137.97782655 -19.99618387 135.73240948 C-19.96107745 120.59194237 -19.93452554 105.45154637 -19.93701172 90.31103516 C-19.93859939 80.0929166 -19.92258928 69.87499167 -19.88630509 59.65693521 C-19.86783435 54.25092185 -19.85851246 48.84523188 -19.87078094 43.43919373 C-19.88220445 38.35663259 -19.87054473 33.27465122 -19.84114647 28.19216728 C-19.83449851 26.32735175 -19.83638531 24.46248327 -19.84744453 22.59768867 C-19.86129581 20.05079991 -19.84444712 17.50587426 -19.82000732 14.95910645 C-19.83704039 13.85335872 -19.83704039 13.85335872 -19.85441756 12.72527266 C-19.74825441 7.03283864 -18.05535644 4.74739563 -14.1875 0.875 C-9.84476112 -2.30967518 -4.87855492 -1.72184291 0 0 Z " fill="#1C4E39" transform="translate(839.1875,415.125)"/>
<path d="M0 0 C6.6 0 13.2 0 20 0 C21.50626953 3.01447266 21.50626953 3.01447266 23.04296875 6.08984375 C26.12639681 12.25878309 29.21492651 18.42515572 32.30567741 24.59042931 C34.94248925 29.85038595 37.57765835 35.11116412 40.21206856 40.37232399 C41.92863521 43.80026928 43.64595245 47.2278342 45.36499023 50.65454102 C53.33276081 66.53888623 61.1961856 82.45985664 68.81533813 98.51528931 C70.63909293 102.340434 72.49530394 106.14949222 74.35546875 109.95703125 C75.00326292 111.28580353 75.6510496 112.61457947 76.29882812 113.94335938 C77.26255183 115.91913068 78.22758214 117.89422718 79.19555664 119.86791992 C80.16906466 121.85425298 81.13770059 123.84289679 82.10546875 125.83203125 C82.94307739 127.54483276 82.94307739 127.54483276 83.79760742 129.29223633 C85 132 85 132 85 134 C77.08 134 69.16 134 61 134 C60.01 131.9478125 59.02 129.895625 58 127.78125 C56.66721352 125.02056906 55.33365453 122.26026169 54 119.5 C53.65342346 118.7825058 53.30684692 118.0650116 52.94976807 117.32577515 C51.90738685 115.1686327 50.86398167 113.01198831 49.8203125 110.85546875 C49.50102783 110.19450195 49.18174316 109.53353516 48.8527832 108.85253906 C46.57437182 104.14813403 44.23723653 99.47531201 41.875 94.8125 C37.74785919 86.65101005 33.97402615 78.32751316 30.15478516 70.01855469 C27.29840137 63.82753746 24.37717455 57.67883297 21.30859375 51.58984375 C21.00858963 50.99453857 20.70858551 50.3992334 20.39949036 49.78588867 C18.96076842 46.93884808 17.51075759 44.0980337 16.05004883 41.26220703 C15.53337646 40.24884277 15.0167041 39.23547852 14.484375 38.19140625 C14.02772461 37.30654541 13.57107422 36.42168457 13.10058594 35.51000977 C11.9985028 32.99658546 11.42832972 30.70314882 11 28 C10.34 28 9.68 28 9 28 C8.73058594 28.86753906 8.46117187 29.73507812 8.18359375 30.62890625 C7.03264063 33.90703344 5.65520877 36.85339981 4.0625 39.9375 C2.51054413 42.95012022 1.02843436 45.93212162 -0.28125 49.05859375 C-2.73749372 54.88766186 -5.71018744 60.48313203 -8.5625 66.125 C-9.73235991 68.43914911 -10.90040045 70.75421907 -12.06640625 73.0703125 C-12.8389978 74.59809326 -12.8389978 74.59809326 -13.62719727 76.15673828 C-14.86459314 78.71955392 -15.9430576 81.35764399 -17 84 C-1.82 84 13.36 84 29 84 C37 98 37 98 38 102 C16.88 102.33 -4.24 102.66 -26 103 C-34.25182266 118.18858486 -34.25182266 118.18858486 -41 134 C-48.92 134 -56.84 134 -65 134 C-63.46046476 129.38139428 -61.87146978 125.52054684 -59.69140625 121.22265625 C-59.3689946 120.58339706 -59.04658295 119.94413788 -58.71440125 119.2855072 C-58.02475672 117.91858722 -57.33341087 116.55252448 -56.64050293 115.18725586 C-54.80969105 111.57870513 -52.99248643 107.96332465 -51.17578125 104.34765625 C-50.81390717 103.62784576 -50.45203308 102.90803528 -50.07919312 102.16641235 C-47.0594668 96.14697383 -44.13129798 90.08693762 -41.25 84 C-37.06475554 75.16255907 -32.74019172 66.40271612 -28.32128906 57.6796875 C-25.66462819 52.41456756 -23.10480094 47.11407074 -20.62890625 41.76171875 C-16.97312315 33.8648156 -13.09941366 26.08496952 -9.1875 18.3125 C-8.51347953 16.96949756 -7.83965085 15.62639884 -7.16601562 14.28320312 C-5.9428222 11.84486523 -4.71833336 9.40719527 -3.49291992 6.9699707 C-2.32576879 4.6480748 -1.16219124 2.32438247 0 0 Z " fill="#1C6346" transform="translate(321,806)"/>
<path d="M0 0 C0.7734375 -0.01224609 1.546875 -0.02449219 2.34375 -0.03710938 C14.90263711 -0.06871731 26.14418818 4.52754714 35.25 13.1875 C44.07318874 23.35627308 44.69766729 35.10899375 44.54296875 48.04296875 C44.53735858 49.43971801 44.53309522 50.83647326 44.53010559 52.23323059 C44.51876832 55.87139809 44.48940038 59.50919397 44.45599365 63.1472168 C44.42504972 66.87478613 44.41154883 70.60241678 44.39648438 74.33007812 C44.36451713 81.61605301 44.31345968 88.90172401 44.25 96.1875 C40.93751813 96.21638146 37.62506833 96.23425799 34.3125 96.25 C33.36697266 96.25837891 32.42144531 96.26675781 31.44726562 96.27539062 C30.09858398 96.28022461 30.09858398 96.28022461 28.72265625 96.28515625 C27.47367554 96.29301147 27.47367554 96.29301147 26.19946289 96.30102539 C24.25 96.1875 24.25 96.1875 23.25 95.1875 C23.14256847 93.49159963 23.10375361 91.79130205 23.09228516 90.09204102 C23.08202301 89.00323135 23.07176086 87.91442169 23.06118774 86.7926178 C23.05388641 85.60421799 23.04658508 84.41581818 23.0390625 83.19140625 C23.01097213 80.68814475 22.98230755 78.18488963 22.953125 75.68164062 C22.91200283 71.72534511 22.87512835 67.76916609 22.84863281 63.81274414 C22.82087603 60.00121111 22.7749772 56.19022563 22.7265625 52.37890625 C22.72330963 51.20872452 22.72005676 50.03854279 22.71670532 48.832901 C22.58308589 39.8221181 21.76563417 30.47303142 15.2265625 23.66015625 C8.47453194 18.62949316 -0.27810494 17.38940882 -8.50390625 17.67578125 C-16.60749964 18.95324302 -23.57931767 22.95363778 -28.6640625 29.37890625 C-31.20820514 33.61609345 -32.00391808 37.23369908 -32.05297852 42.15527344 C-32.06962051 43.33289246 -32.08626251 44.51051147 -32.10340881 45.72381592 C-32.11182297 46.98542542 -32.12023712 48.24703491 -32.12890625 49.546875 C-32.15486472 51.53276321 -32.18082798 53.51865137 -32.2070837 55.50453568 C-32.24141702 58.27720588 -32.26704119 61.04993 -32.29260254 63.82269287 C-32.3384189 68.69229779 -32.39340448 73.5617877 -32.45530701 78.43121338 C-32.4873735 81.02307194 -32.51422888 83.61500089 -32.53553772 86.20697021 C-32.54902756 87.37198059 -32.5625174 88.53699097 -32.57641602 89.73730469 C-32.58592789 90.76813171 -32.59543976 91.79895874 -32.60523987 92.86102295 C-32.75 95.1875 -32.75 95.1875 -33.75 96.1875 C-35.15348735 96.28610131 -36.56180477 96.31828937 -37.96875 96.3203125 C-39.24298828 96.32224609 -39.24298828 96.32224609 -40.54296875 96.32421875 C-41.43628906 96.32035156 -42.32960938 96.31648437 -43.25 96.3125 C-44.14332031 96.31636719 -45.03664063 96.32023438 -45.95703125 96.32421875 C-46.80652344 96.32292969 -47.65601563 96.32164062 -48.53125 96.3203125 C-49.31564453 96.31918457 -50.10003906 96.31805664 -50.90820312 96.31689453 C-52.75 96.1875 -52.75 96.1875 -53.75 95.1875 C-53.84523905 92.29606849 -53.87553027 89.42857936 -53.86352539 86.53686523 C-53.86367142 85.62963715 -53.86381744 84.72240906 -53.8639679 83.78768921 C-53.86326841 80.77380015 -53.85547434 77.75997207 -53.84765625 74.74609375 C-53.8457922 72.66244033 -53.84436824 70.57878646 -53.84336853 68.49513245 C-53.83954234 62.99926554 -53.8297112 57.50342487 -53.81866455 52.00756836 C-53.8084526 46.40413773 -53.80387137 40.80070287 -53.79882812 35.19726562 C-53.78808902 24.193997 -53.77049141 13.19075479 -53.75 2.1875 C-46.82 2.1875 -39.89 2.1875 -32.75 2.1875 C-32.42 5.8175 -32.09 9.4475 -31.75 13.1875 C-30.656875 12.135625 -29.56375 11.08375 -28.4375 10 C-20.05239688 2.63127302 -10.86899777 0.0088799 0 0 Z " fill="#293634" transform="translate(890.75,843.8125)"/>
<path d="M0 0 C7.72330061 3.91584891 13.3166061 9.03932387 16.62670898 17.15063477 C17.70915362 20.72045522 17.71432261 24.2355082 17.6640625 27.94140625 C17.65503906 28.73530762 17.64601563 29.52920898 17.63671875 30.34716797 C17.38485769 38.89820082 15.45381604 45.00966772 9.6640625 51.44140625 C0.82916684 59.62984613 -9.9358671 61.78874683 -21.578125 61.54296875 C-27.78371062 61.15071027 -32.6449858 58.49420109 -37.7734375 55.12890625 C-38.39863281 54.73445312 -39.02382813 54.34 -39.66796875 53.93359375 C-45.04617837 50.03949767 -48.40073157 43.52323626 -49.7734375 37.12890625 C-50.38419483 25.61847963 -50.69715312 16.71221468 -43.2109375 7.44140625 C-32.29769241 -4.26001765 -14.34439057 -6.21879168 0 0 Z " fill="#FAFAFA" transform="translate(766.7734375,863.87109375)"/>
<path d="M0 0 C0.91644287 0.00523682 1.83288574 0.01047363 2.77709961 0.01586914 C3.76645508 0.0190918 4.75581055 0.02231445 5.77514648 0.02563477 C6.81606445 0.03401367 7.85698242 0.04239258 8.92944336 0.05102539 C10.49662109 0.05779297 10.49662109 0.05779297 12.09545898 0.06469727 C14.68600996 0.07652627 17.27644895 0.0930085 19.86694336 0.11352539 C19.89027186 17.43729891 19.90792229 34.76106755 19.91875553 52.08485317 C19.92391859 60.12802594 19.93096148 68.17118896 19.94238281 76.21435547 C19.95232934 83.222255 19.95879671 90.23014747 19.96103185 97.23805386 C19.96233901 100.95095731 19.9654252 104.66384059 19.97267342 108.37673759 C19.98068668 112.5148395 19.98093452 116.652906 19.98046875 120.79101562 C19.98406403 122.03106857 19.9876593 123.27112152 19.99136353 124.54875183 C19.98998886 125.66920898 19.9886142 126.78966614 19.98719788 127.94407654 C19.98811967 128.92394248 19.98904146 129.90380842 19.98999119 130.91336727 C19.86694336 133.11352539 19.86694336 133.11352539 18.86694336 134.11352539 C17.31738777 134.21252062 15.76340663 134.24432063 14.21069336 134.24633789 C12.80110352 134.24827148 12.80110352 134.24827148 11.36303711 134.25024414 C10.37432617 134.24637695 9.38561523 134.24250977 8.36694336 134.23852539 C7.37823242 134.24239258 6.38952148 134.24625977 5.37084961 134.25024414 C4.43112305 134.24895508 3.49139648 134.24766602 2.52319336 134.24633789 C1.65500977 134.24520996 0.78682617 134.24408203 -0.10766602 134.24291992 C-2.13305664 134.11352539 -2.13305664 134.11352539 -3.13305664 133.11352539 C-3.23145371 131.40758448 -3.25937692 129.69754569 -3.26004028 127.98876953 C-3.26286011 126.87817169 -3.26567993 125.76757385 -3.26858521 124.62332153 C-3.26656097 123.39419037 -3.26453674 122.1650592 -3.26245117 120.89868164 C-3.26420349 119.61267059 -3.26595581 118.32665955 -3.26776123 117.00167847 C-3.27233517 113.46458375 -3.27054617 109.92751807 -3.26738214 106.39042282 C-3.26485834 102.69664173 -3.26719614 99.00286321 -3.26876831 95.30908203 C-3.27058995 89.10489453 -3.26818385 82.90071891 -3.26342773 76.6965332 C-3.25798512 69.51369175 -3.25974778 62.33087868 -3.26525414 55.14803791 C-3.26978544 48.99178734 -3.27043574 42.83554533 -3.26781547 36.67929363 C-3.26625279 32.99770835 -3.26605869 29.31613643 -3.26935196 25.634552 C-3.27276476 21.53247382 -3.26804066 17.43044492 -3.26245117 13.32836914 C-3.2644754 12.09923798 -3.26649963 10.87010681 -3.26858521 9.60372925 C-3.26576538 8.49313141 -3.26294556 7.38253357 -3.26004028 6.23828125 C-3.25966326 5.26708847 -3.25928623 4.29589569 -3.25889778 3.29527283 C-3.09058299 0.37714638 -2.91901757 0.15535575 0 0 Z " fill="#8AA387" transform="translate(438.133056640625,805.886474609375)"/>
<path d="M0 0 C6.88875 -0.061875 13.7775 -0.12375 20.875 -0.1875 C23.0288623 -0.21481201 25.18272461 -0.24212402 27.40185547 -0.27026367 C29.14029381 -0.27903887 30.87873839 -0.28668035 32.6171875 -0.29296875 C33.4944751 -0.30831665 34.3717627 -0.32366455 35.27563477 -0.33947754 C43.43846362 -0.34287212 51.91895981 1.15462549 58.4609375 6.37890625 C63.40276332 11.58412888 65.31575319 17.41239746 65.625 24.5 C65.27631543 32.50089736 62.59427779 38.84753474 56.8125 44.4375 C49.65329918 49.75042333 41.26183731 50.44420447 32.6171875 50.29296875 C31.78195557 50.28994751 30.94672363 50.28692627 30.08618164 50.28381348 C27.01565904 50.26831425 23.94531489 50.22643307 20.875 50.1875 C13.98625 50.125625 7.0975 50.06375 0 50 C0 33.5 0 17 0 0 Z " fill="#FCFCFC" transform="translate(531,825)"/>
<path d="M0 0 C6.6 0 13.2 0 20 0 C21.70597818 1.70597818 21.12609838 3.90633088 21.12698364 6.23864746 C21.12980347 7.37448776 21.13262329 8.51032806 21.13552856 9.68058777 C21.13350433 10.93777115 21.1314801 12.19495453 21.12939453 13.49023438 C21.13114685 14.80550613 21.13289917 16.12077789 21.13470459 17.47590637 C21.13927865 21.09357682 21.13748948 24.71121888 21.1343255 28.32888985 C21.13180176 32.10675256 21.13413948 35.88461278 21.13571167 39.66247559 C21.13753332 46.00789834 21.13512717 52.35330948 21.13037109 58.69873047 C21.12492848 66.04516643 21.12669114 73.39157464 21.1321975 80.73800993 C21.13672875 87.03438667 21.13737912 93.33075504 21.13475883 99.62713289 C21.13319612 103.3925551 21.13300212 107.15796424 21.13629532 110.92338562 C21.13970802 115.11886247 21.13498411 119.31429113 21.12939453 123.50976562 C21.13141876 124.76694901 21.13344299 126.02413239 21.13552856 127.31941223 C21.13129883 129.02317268 21.13129883 129.02317268 21.12698364 130.76135254 C21.12660662 131.75466835 21.12622959 132.74798416 21.12584114 133.77140045 C21 136 21 136 20 137 C13.4 137 6.8 137 0 137 C0 91.79 0 46.58 0 0 Z " fill="#283533" transform="translate(648,803)"/>
<path d="M0 0 C5.28 0 10.56 0 16 0 C16 8.91 16 17.82 16 27 C24.58 27 33.16 27 42 27 C42 31.95 42 36.9 42 42 C33.42 42 24.84 42 16 42 C16 50.58 16 59.16 16 68 C10.72 68 5.44 68 0 68 C0 59.42 0 50.84 0 42 C-8.58 42 -17.16 42 -26 42 C-26 36.72 -26 31.44 -26 26 C-17.42 26 -8.84 26 0 26 C0 17.42 0 8.84 0 0 Z " fill="#1B4938" transform="translate(984,820)"/>
<path d="M0 0 C0.66 0 1.32 0 2 0 C2.28496338 0.59498291 2.56992676 1.18996582 2.86352539 1.80297852 C7.85532495 12.222064 12.85122331 22.63900311 17.890625 33.03515625 C18.21707504 33.70879715 18.54352509 34.38243805 18.87986755 35.07649231 C20.47120695 38.35975987 22.06385432 41.64238368 23.65844727 44.92407227 C25.14215784 47.98031244 26.61875863 51.03988434 28.08892822 54.10266113 C28.72226479 55.4216067 29.35709966 56.73983342 29.99310303 58.05749512 C30.98465475 60.11616814 31.96791835 62.17861166 32.94921875 64.2421875 C33.25535599 64.87504669 33.56149323 65.50790588 33.87690735 66.15994263 C35.20730948 68.97785583 36 70.84061444 36 74 C33.69 74 31.38 74 29 74 C26.03 68.39 23.06 62.78 20 57 C4.82 56.67 -10.36 56.34 -26 56 C-22.62747138 45.88241415 -22.62747138 45.88241415 -20.328125 41.3984375 C-19.83183594 40.42068359 -19.33554687 39.44292969 -18.82421875 38.43554688 C-18.30472656 37.42556641 -17.78523438 36.41558594 -17.25 35.375 C-16.1703297 33.24817959 -15.0922011 31.12057584 -14.015625 28.9921875 C-13.49677734 27.96706055 -12.97792969 26.94193359 -12.44335938 25.88574219 C-9.9901058 20.98089488 -7.69423199 16.00897858 -5.40234375 11.02734375 C-3.67989771 7.30897138 -1.86224461 3.64999944 0 0 Z " fill="#F6F9F8" transform="translate(330,834)"/>
<path d="M0 0 C19.8 0.495 19.8 0.495 40 1 C38.32154184 4.35691631 37.31385488 5.93534287 34.77880859 8.46411133 C34.12407562 9.12192093 33.46934265 9.77973053 32.79476929 10.45747375 C32.0864798 11.15857773 31.37819031 11.8596817 30.6484375 12.58203125 C29.91557526 13.31443527 29.18271301 14.04683929 28.42764282 14.80143738 C26.87486171 16.35119847 25.31965197 17.89852945 23.76220703 19.44360352 C21.39956172 21.78812668 19.04488265 24.14041748 16.69140625 26.49414062 C15.17755167 28.00307417 13.66324283 29.51155215 12.1484375 31.01953125 C11.4522934 31.71456253 10.75614929 32.40959381 10.03890991 33.12568665 C6.79132843 36.34251148 3.50888088 39.46610758 0.04541016 42.45019531 C-4.47208272 46.35303823 -8.66941427 50.54349616 -12.875 54.77734375 C-13.68493408 55.58869278 -14.49486816 56.40004181 -15.3293457 57.23597717 C-17.88861015 59.80079139 -20.4443553 62.36907948 -23 64.9375 C-24.74586133 66.68838283 -26.49195287 68.43903613 -28.23828125 70.18945312 C-32.49485198 74.45698616 -36.74854716 78.72736866 -41 83 C-41.33 82.01 -41.66 81.02 -42 80 C-40.84765625 77.8984375 -40.84765625 77.8984375 -39.0625 75.375 C-35.95878977 70.70716703 -33.49227669 66.02446725 -31.1875 60.9375 C-27.27381192 52.35114065 -22.76578834 44.17216278 -18.11035156 35.96972656 C-16.62302004 33.33125015 -15.18503362 30.66720908 -13.75 28 C-11.8653147 24.5189382 -9.87948578 21.12590831 -7.8125 17.75 C-4.32488123 11.99497372 -2.13949948 6.41849844 0 0 Z " fill="#748D74" transform="translate(546,629)"/>
<path d="M0 0 C4.62 0 9.24 0 14 0 C14 8.58 14 17.16 14 26 C22.25 26 30.5 26 39 26 C39 30.62 39 35.24 39 40 C30.75 40 22.5 40 14 40 C14 48.58 14 57.16 14 66 C9.38 66 4.76 66 0 66 C0 57.42 0 48.84 0 40 C-8.58 40 -17.16 40 -26 40 C-26 35.38 -26 30.76 -26 26 C-17.42 26 -8.84 26 0 26 C0 17.42 0 8.84 0 0 Z " fill="#F8FAF9" transform="translate(784,301)"/>
<path d="M0 0 C0.33 0 0.66 0 1 0 C1 7.92 1 15.84 1 24 C1.66 24 2.32 24 3 24 C3 46.44 3 68.88 3 92 C1.515 92.495 1.515 92.495 0 93 C0 62.31 0 31.62 0 0 Z " fill="#2C6F51" transform="translate(732,287)"/>
<path d="M0 0 C0.56315918 0.15919922 1.12631836 0.31839844 1.70654297 0.48242188 C4.08235458 1.01858545 6.26320798 1.18963797 8.6953125 1.28125 C9.57574219 1.31863281 10.45617187 1.35601563 11.36328125 1.39453125 C13.21222823 1.46514167 15.06118671 1.53545167 16.91015625 1.60546875 C18.22693359 1.66154297 18.22693359 1.66154297 19.5703125 1.71875 C20.77324951 1.76418945 20.77324951 1.76418945 22.00048828 1.81054688 C24 2 24 2 26 3 C26.33 2.34 26.66 1.68 27 1 C27.33 1.33 27.66 1.66 28 2 C29.34267413 2.08631874 30.68974322 2.10706473 32.03515625 2.09765625 C32.84404297 2.09443359 33.65292969 2.09121094 34.48632812 2.08789062 C35.7615332 2.07532227 35.7615332 2.07532227 37.0625 2.0625 C37.91650391 2.05798828 38.77050781 2.05347656 39.65039062 2.04882812 C41.76695663 2.03700373 43.88348685 2.01906769 46 2 C46.495 3.485 46.495 3.485 47 5 C31.16 5 15.32 5 -1 5 C-0.67 3.35 -0.34 1.7 0 0 Z " fill="#1A5842" transform="translate(455,710)"/>
<path d="M0 0 C0.33 0 0.66 0 1 0 C1 4.29 1 8.58 1 13 C0.67 13 0.34 13 0 13 C0 8.71 0 4.42 0 0 Z M-26 13 C-17.42 13 -8.84 13 0 13 C0 13.66 0 14.32 0 15 C-7.92 15 -15.84 15 -24 15 C-23.96041007 22.85342779 -23.96041007 22.85342779 -23.90991211 30.70678711 C-23.90741455 31.6788208 -23.90491699 32.65085449 -23.90234375 33.65234375 C-23.89448853 35.15269165 -23.89448853 35.15269165 -23.88647461 36.68334961 C-24 39 -24 39 -25 40 C-27.53049402 40.07313567 -30.03304837 40.09247527 -32.5625 40.0625 C-33.27341797 40.05798828 -33.98433594 40.05347656 -34.71679688 40.04882812 C-36.47790013 40.03700864 -38.23896036 40.01907263 -40 40 C-40 39.67 -40 39.34 -40 39 C-35.38 39 -30.76 39 -26 39 C-26 30.42 -26 21.84 -26 13 Z " fill="#2F6D53" transform="translate(824,328)"/>
<path d="M0 0 C2.72539743 2.72539743 4.02711298 5.98515468 5.625 9.4375 C5.94984375 10.11876953 6.2746875 10.80003906 6.609375 11.50195312 C8.00668302 14.49912011 9 16.65380142 9 20 C6.69 20 4.38 20 2 20 C-0.64 14.72 -3.28 9.44 -6 4 C-5.01 4 -4.02 4 -3 4 C-2.34 3.67 -1.68 3.34 -1 3 C-0.67 2.01 -0.34 1.02 0 0 Z " fill="#D3E3DC" transform="translate(357,888)"/>
<path d="M0 0 C0.88874313 -0.00073013 1.77748627 -0.00146027 2.69316101 -0.00221252 C5.60467479 0.00124613 8.51455009 0.04002478 11.42578125 0.0793457 C13.45458096 0.08867997 15.48339199 0.09579318 17.51220703 0.1007843 C22.83237234 0.11980568 28.1518469 0.16886471 33.47174072 0.2243042 C38.90814878 0.27560161 44.34466928 0.29832073 49.78125 0.32348633 C60.43389597 0.37698806 71.086031 0.46224194 81.73828125 0.56762695 C81.73828125 0.89762695 81.73828125 1.22762695 81.73828125 1.56762695 C80.09576134 1.56643356 80.09576134 1.56643356 78.4200592 1.56521606 C68.07719248 1.56160651 57.73482153 1.58951142 47.39211369 1.64790535 C42.07533681 1.67692043 36.75899957 1.69500985 31.44213867 1.68774414 C26.30653514 1.68113453 21.17179909 1.70372903 16.03637505 1.74618149 C14.08171109 1.75728363 12.12695886 1.75803907 10.17228889 1.74805069 C-3.3181479 1.33412286 -3.3181479 1.33412286 -15.00831604 7.28341675 C-15.42193893 7.70720612 -15.83556183 8.13099548 -16.26171875 8.56762695 C-16.59171875 7.57762695 -16.92171875 6.58762695 -17.26171875 5.56762695 C-11.47166839 1.20273274 -7.19551401 -0.15732957 0 0 Z " fill="#2E6F55" transform="translate(754.26171875,273.432373046875)"/>
<path d="M0 0 C0.33 0 0.66 0 1 0 C1.02527124 6.24795675 1.04283344 12.49590041 1.05493164 18.74389648 C1.05997298 20.87118014 1.06680591 22.99846031 1.07543945 25.12573242 C1.08751379 28.17627826 1.09323014 31.22677845 1.09765625 34.27734375 C1.10281754 35.23462875 1.10797882 36.19191376 1.11329651 37.1782074 C1.11340981 38.49946373 1.11340981 38.49946373 1.11352539 39.84741211 C1.115746 40.62684677 1.11796661 41.40628143 1.12025452 42.20933533 C1 44 1 44 0 45 C-1.56172745 45.08685603 -3.12729344 45.10702219 -4.69140625 45.09765625 C-5.63564453 45.09443359 -6.57988281 45.09121094 -7.55273438 45.08789062 C-8.54595703 45.07951172 -9.53917969 45.07113281 -10.5625 45.0625 C-11.55958984 45.05798828 -12.55667969 45.05347656 -13.58398438 45.04882812 C-16.05604849 45.03700007 -18.52799518 45.02051849 -21 45 C-21 44.34 -21 43.68 -21 43 C-14.4 43 -7.8 43 -1 43 C-1.0309375 39.8753125 -1.0309375 39.8753125 -1.0625 36.6875 C-1.11752602 24.45159211 -0.5043628 12.22274964 0 0 Z " fill="#4E5857" transform="translate(530,895)"/>
<path d="M0 0 C5 6.36363636 5 6.36363636 5 11 C2.69 11 0.38 11 -2 11 C-5 5.25 -5 5.25 -5 3 C-3.68 3 -2.36 3 -1 3 C-0.67 2.01 -0.34 1.02 0 0 Z " fill="#94B9AC" transform="translate(361,897)"/>
<path d="M0 0 C0.433125 0.598125 0.86625 1.19625 1.3125 1.8125 C4.09855827 5.71115572 4.09855827 5.71115572 8.36010742 7.43237305 C9.26607666 7.45855713 10.1720459 7.48474121 11.10546875 7.51171875 C12.08837891 7.54716797 13.07128906 7.58261719 14.08398438 7.61914062 C15.10814453 7.64169922 16.13230469 7.66425781 17.1875 7.6875 C18.74114258 7.73874023 18.74114258 7.73874023 20.32617188 7.79101562 C22.8840066 7.87352642 25.44149723 7.94266572 28 8 C27.67 8.66 27.34 9.32 27 10 C23.77100574 10.0875127 20.54231884 10.14056146 17.3125 10.1875 C15.94448242 10.22520508 15.94448242 10.22520508 14.54882812 10.26367188 C9.52938674 10.31842942 6.06140524 10.30840308 2 7 C0 5 0 5 -0.125 2.375 C-0.08375 1.59125 -0.0425 0.8075 0 0 Z " fill="#809B83" transform="translate(727,705)"/>
<path d="M0 0 C0.33 0 0.66 0 1 0 C1.36020428 4.99783437 0.34389935 7.98018872 -2 12.375 C-2.556875 13.43460938 -3.11375 14.49421875 -3.6875 15.5859375 C-4.120625 16.38257813 -4.55375 17.17921875 -5 18 C-5.99 18 -6.98 18 -8 18 C-6.65150163 13.64029169 -4.95092154 9.68658562 -2.875 5.625 C-2.33617187 4.56539062 -1.79734375 3.50578125 -1.2421875 2.4140625 C-0.83226562 1.61742187 -0.42234375 0.82078125 0 0 Z " fill="#3B7F62" transform="translate(321,806)"/>
<path d="M0 0 C0.87462891 0.02707031 1.74925781 0.05414063 2.65039062 0.08203125 C4.78884112 0.15214438 6.92600695 0.25974463 9.0625 0.375 C9.0625 0.705 9.0625 1.035 9.0625 1.375 C7.66837891 1.43107422 7.66837891 1.43107422 6.24609375 1.48828125 C-5.54111426 1.92688789 -5.54111426 1.92688789 -14.9375 8.375 C-15.5975 8.375 -16.2575 8.375 -16.9375 8.375 C-17.2675 9.365 -17.5975 10.355 -17.9375 11.375 C-17.82704597 7.61956314 -16.64204819 5.72125339 -14 3.21875 C-9.53557253 -0.47567345 -5.58710515 -0.33140243 0 0 Z " fill="#AFBCA5" transform="translate(743.9375,500.625)"/>
<path d="M0 0 C0.99 0.33 1.98 0.66 3 1 C1.19734598 2.80265402 -0.611459 4.59578056 -2.4375 6.375 C-5.03945849 8.9423299 -5.03945849 8.9423299 -7.1875 11.8125 C-7.785625 12.534375 -8.38375 13.25625 -9 14 C-9.66 14 -10.32 14 -11 14 C-9.49665796 8.65478385 -5.82879909 4.86491984 -2 1 C-1.34 0.67 -0.68 0.34 0 0 Z " fill="#447F62" transform="translate(577,488)"/>
<path d="M0 0 C0 0.33 0 0.66 0 1 C-1.57587891 1.00386719 -1.57587891 1.00386719 -3.18359375 1.0078125 C-11.97779505 1.19311888 -18.19584468 1.81955892 -25 8 C-25.33 7.01 -25.66 6.02 -26 5 C-18.22798387 -1.75827489 -9.72883983 -0.46773268 0 0 Z " fill="#468167" transform="translate(763,274)"/>
<path d="M0 0 C0.33 0 0.66 0 1 0 C1.33 2.64 1.66 5.28 2 8 C1.01 8.495 1.01 8.495 0 9 C-0.47597366 11.70599842 -0.84093629 14.33595404 -1.125 17.0625 C-1.21136719 17.82111328 -1.29773438 18.57972656 -1.38671875 19.36132812 C-1.59939517 21.23996986 -1.80075459 23.11988636 -2 25 C-2.33 25 -2.66 25 -3 25 C-3.32177688 16.06175331 -3.33530434 8.43752585 0 0 Z " fill="#656F6D" transform="translate(698,874)"/>
<path d="M0 0 C0.66 0 1.32 0 2 0 C1.38367054 4.95998472 -0.79835629 8.93671966 -3.0625 13.3125 C-3.62807617 14.42334961 -3.62807617 14.42334961 -4.20507812 15.55664062 C-5.13128157 17.37387522 -6.06490629 19.18732404 -7 21 C-7.66 20.67 -8.32 20.34 -9 20 C-8.7215625 19.45214844 -8.443125 18.90429688 -8.15625 18.33984375 C-6.88588021 15.76906165 -5.6874095 13.17262882 -4.5 10.5625 C-4.0771875 9.63566406 -3.654375 8.70882812 -3.21875 7.75390625 C-2.08418971 5.19023636 -1.02310166 2.60985656 0 0 Z " fill="#0B5235" transform="translate(288,916)"/>
<path d="M0 0 C0.66 0 1.32 0 2 0 C-1.01834862 10.01834862 -1.01834862 10.01834862 -4 13 C-4.66 13 -5.32 13 -6 13 C-4.58707905 8.1725201 -2.57025846 4.2837641 0 0 Z " fill="#327159" transform="translate(503,620)"/>
<path d="M0 0 C0.84256348 0.23771118 0.84256348 0.23771118 1.70214844 0.48022461 C4.09674429 1.02188362 6.31438553 1.20641474 8.765625 1.31640625 C9.65507812 1.35830078 10.54453125 1.40019531 11.4609375 1.44335938 C12.38132812 1.48267578 13.30171875 1.52199219 14.25 1.5625 C15.18585938 1.60568359 16.12171875 1.64886719 17.0859375 1.69335938 C19.39048641 1.7991805 21.69513839 1.90126557 24 2 C24 2.33 24 2.66 24 3 C16.08 3 8.16 3 0 3 C0 2.01 0 1.02 0 0 Z " fill="#12573F" transform="translate(455,710)"/>
<path d="M0 0 C-0.33 0.66 -0.66 1.32 -1 2 C-3.65234375 2.703125 -3.65234375 2.703125 -6.9375 3.25 C-8.01902344 3.44078125 -9.10054687 3.6315625 -10.21484375 3.828125 C-11.59349609 3.91320312 -11.59349609 3.91320312 -13 4 C-13.66 3.34 -14.32 2.68 -15 2 C-9.87080814 -0.10428384 -5.4389165 -0.21755666 0 0 Z " fill="#56896F" transform="translate(594,485)"/>
<path d="M0 0 C2 2 2 2 2.125 4.625 C2.08375 5.40875 2.0425 6.1925 2 7 C-1 8 -1 8 -4 7 C-4.6875 4.9375 -4.6875 4.9375 -5 3 C-2.525 3.495 -2.525 3.495 0 4 C0 2.68 0 1.36 0 0 Z " fill="#BBD6CC" transform="translate(359,893)"/>
<path d="M0 0 C0.99 0 1.98 0 3 0 C3.67408308 1.26691507 4.33900497 2.53870749 5 3.8125 C5.556875 4.87404297 5.556875 4.87404297 6.125 5.95703125 C7 8 7 8 7 11 C6.34 11 5.68 11 5 11 C3.35 7.37 1.7 3.74 0 0 Z " fill="#2E7457" transform="translate(337,846)"/>
<path d="M0 0 C0.66 0 1.32 0 2 0 C1.21681311 3.91593446 -0.39179858 7.36406635 -2 11 C-2.66 11 -3.32 11 -4 11 C-3.39301257 6.87248551 -1.96189209 3.6678852 0 0 Z " fill="#185E46" transform="translate(472,678)"/>
<path d="M0 0 C0.66 0.99 1.32 1.98 2 3 C-0.46153846 8.66153846 -0.46153846 8.66153846 -3.1875 10.375 C-3.785625 10.58125 -4.38375 10.7875 -5 11 C-3.55049545 7.2089881 -1.84827434 3.6125362 0 0 Z " fill="#4C856A" transform="translate(552,527)"/>
<path d="M0 0 C0.66 0.99 1.32 1.98 2 3 C0.35 4.65 -1.3 6.3 -3 8 C-3.99 7.67 -4.98 7.34 -6 7 C-4.02 4.69 -2.04 2.38 0 0 Z " fill="#323F3D" transform="translate(780,909)"/>
<path d="M0 0 C0.66 0 1.32 0 2 0 C0.94124926 3.40312738 -0.00902154 6.01353231 -2 9 C-2.66 9 -3.32 9 -4 9 C-2.80100302 5.9168649 -1.52299523 2.93720508 0 0 Z " fill="#3B765D" transform="translate(525,578)"/>
<path d="M0 0 C1.32 0.33 2.64 0.66 4 1 C1.69 2.65 -0.62 4.3 -3 6 C-3.33 5.01 -3.66 4.02 -4 3 C-2.25 1.4375 -2.25 1.4375 0 0 Z " fill="#367659" transform="translate(741,276)"/>
<path d="M0 0 C1.125 1.75 1.125 1.75 2 4 C1.125 6.25 1.125 6.25 0 8 C-0.99 8 -1.98 8 -3 8 C-1.125 2.25 -1.125 2.25 0 0 Z " fill="#3D7961" transform="translate(520,587)"/>
<path d="M0 0 C0.66 0 1.32 0 2 0 C2.66 1.98 3.32 3.96 4 6 C3.34 6.66 2.68 7.32 2 8 C0.23537317 4.91190305 0 3.76687864 0 0 Z " fill="#227051" transform="translate(707,698)"/>
<path d="M0 0 C0.66 0.99 1.32 1.98 2 3 C0.625 5.5 0.625 5.5 -1 8 C-1.66 8 -2.32 8 -3 8 C-1.125 2.25 -1.125 2.25 0 0 Z " fill="#34745C" transform="translate(281,887)"/>
<path d="M0 0 C0.66 0.66 1.32 1.32 2 2 C1.01 3.98 0.02 5.96 -1 8 C-1.66 7.67 -2.32 7.34 -3 7 C-1.125 1.125 -1.125 1.125 0 0 Z " fill="#F0F6F3" transform="translate(281,883)"/>
<path d="M0 0 C0.433125 0.598125 0.86625 1.19625 1.3125 1.8125 C2.90681105 3.98975883 2.90681105 3.98975883 4.6875 5.625 C6 7 6 7 6 9 C3.53199953 7.84826645 1.95216435 6.95216435 0 5 C-0.125 2.375 -0.125 2.375 0 0 Z " fill="#7C967F" transform="translate(727,705)"/>
</svg>
