<?xml version="1.0" encoding="UTF-8"?>
<svg version="1.1" xmlns="http://www.w3.org/2000/svg" width="876" height="266">
<path d="M0 0 C289.08 0 578.16 0 876 0 C876 87.78 876 175.56 876 266 C586.92 266 297.84 266 0 266 C0 178.22 0 90.44 0 0 Z " fill="#FDFDFD" transform="translate(0,0)"/>
<path d="M0 0 C0.66040787 -0.0065712 1.32081573 -0.0131424 2.00123596 -0.01991272 C4.2011018 -0.03971785 6.40089856 -0.05133498 8.60083008 -0.0612793 C9.73166236 -0.06739259 9.73166236 -0.06739259 10.88533974 -0.07362938 C14.88905185 -0.09453812 18.89272939 -0.10880904 22.89648438 -0.11816406 C26.99931808 -0.1291334 31.10159499 -0.16340676 35.20423412 -0.20333576 C38.38309093 -0.22974037 41.5618212 -0.23787761 44.74077797 -0.24144554 C46.25038653 -0.24626419 47.7599913 -0.25774014 49.2694912 -0.27648354 C64.15307862 -0.44953957 79.43343789 1.9253759 90.96411133 12.2121582 C99.47902582 21.21953976 102.86101635 30.29722153 102.87036133 42.42700195 C102.88260742 43.24813477 102.89485352 44.06926758 102.9074707 44.9152832 C102.9348586 56.43645922 99.46414251 66.5138725 91.49536133 74.98950195 C82.50390265 83.43015936 69.24689284 88.32456127 56.89257812 88.29052734 C55.51171272 88.29041405 55.51171272 88.29041405 54.10295105 88.29029846 C52.63236992 88.28255653 52.63236992 88.28255653 51.13208008 88.2746582 C50.11813675 88.27324326 49.10419342 88.27182831 48.05952454 88.27037048 C44.82977311 88.26478524 41.6000917 88.2522354 38.37036133 88.23950195 C36.17700296 88.23448505 33.98364349 88.22992247 31.7902832 88.22583008 C26.4211188 88.21482063 21.05199507 88.19809715 15.68286133 88.17700195 C15.68508194 88.73854477 15.68730255 89.30008759 15.68959045 89.87864685 C15.71164439 95.7018063 15.72676837 101.52495396 15.73779297 107.34814453 C15.7428344 109.52393068 15.7496674 111.69971342 15.75830078 113.87548828 C15.77037471 116.99553262 15.77609138 120.11553234 15.78051758 123.2355957 C15.78567886 124.21475449 15.79084015 125.19391327 15.79615784 126.20274353 C15.79627113 127.55403099 15.79627113 127.55403099 15.79638672 128.93261719 C15.79860733 129.72981674 15.80082794 130.5270163 15.80311584 131.34837341 C15.68286133 133.17700195 15.68286133 133.17700195 14.68286133 134.17700195 C13.13330574 134.27599719 11.5793246 134.30779719 10.02661133 134.30981445 C8.61702148 134.31174805 8.61702148 134.31174805 7.17895508 134.3137207 C6.19024414 134.30985352 5.2015332 134.30598633 4.18286133 134.30200195 C3.19415039 134.30586914 2.20543945 134.30973633 1.18676758 134.3137207 C0.24704102 134.31243164 -0.69268555 134.31114258 -1.66088867 134.30981445 C-2.52907227 134.30868652 -3.39725586 134.30755859 -4.29174805 134.30639648 C-6.31713867 134.17700195 -6.31713867 134.17700195 -7.31713867 133.17700195 C-7.41553574 131.47106104 -7.44345895 129.76102225 -7.44412231 128.05224609 C-7.44694214 126.94164825 -7.44976196 125.83105042 -7.45266724 124.6867981 C-7.45064301 123.45766693 -7.44861877 122.22853577 -7.4465332 120.9621582 C-7.44828552 119.67614716 -7.45003784 118.39013611 -7.45184326 117.06515503 C-7.4564172 113.52806031 -7.4546282 109.99099463 -7.45146418 106.45389938 C-7.44894037 102.7601183 -7.45127817 99.06633977 -7.45285034 95.37255859 C-7.45467198 89.16837109 -7.45226589 82.96419547 -7.44750977 76.76000977 C-7.44206715 69.57716831 -7.44382982 62.39435524 -7.44933617 55.21151447 C-7.45386747 49.0552639 -7.45451777 42.8990219 -7.4518975 36.7427702 C-7.45033482 33.06118492 -7.45014072 29.379613 -7.45343399 25.69802856 C-7.45684679 21.59595038 -7.45212269 17.49392148 -7.4465332 13.3918457 C-7.44855743 12.16271454 -7.45058167 10.93358337 -7.45266724 9.66720581 C-7.44984741 8.55660797 -7.44702759 7.44601013 -7.44412231 6.30175781 C-7.44374529 5.33056503 -7.44336826 4.35937225 -7.44297981 3.35874939 C-7.18056508 -1.1908173 -3.85095548 0.03161518 0 0 Z " fill="#283533" transform="translate(314.317138671875,75.822998046875)"/>
<path d="M0 0 C1.4058666 1.39272766 2.73643404 2.86088259 4.046875 4.34375 C4.376875 0.38375 4.706875 -3.57625 5.046875 -7.65625 C11.976875 -7.65625 18.906875 -7.65625 26.046875 -7.65625 C26.06942457 4.45217276 26.08778924 16.56058169 26.09868717 28.66902065 C26.10391636 34.29082962 26.11101466 39.91262353 26.12231445 45.53442383 C26.13314206 50.95493277 26.13915156 56.3754272 26.14175224 61.79594612 C26.14360672 63.86889945 26.14722777 65.94185194 26.15260506 68.01479912 C26.1598138 70.90758893 26.16086601 73.80031796 26.16040039 76.69311523 C26.16399567 77.55913864 26.16759094 78.42516205 26.17129517 79.31742859 C26.16092716 85.22969784 26.16092716 85.22969784 25.046875 86.34375 C23.64338765 86.44235131 22.23507023 86.47453937 20.828125 86.4765625 C19.55388672 86.47849609 19.55388672 86.47849609 18.25390625 86.48046875 C17.36058594 86.47660156 16.46726562 86.47273438 15.546875 86.46875 C14.65355469 86.47261719 13.76023437 86.47648437 12.83984375 86.48046875 C11.99035156 86.47917969 11.14085937 86.47789062 10.265625 86.4765625 C9.48123047 86.47543457 8.69683594 86.47430664 7.88867188 86.47314453 C6.046875 86.34375 6.046875 86.34375 5.046875 85.34375 C4.97443447 83.32410801 4.96310312 81.30207876 4.984375 79.28125 C4.99339844 78.17652344 5.00242187 77.07179688 5.01171875 75.93359375 C5.02332031 75.07894531 5.03492188 74.22429687 5.046875 73.34375 C4.386875 73.34375 3.726875 73.34375 3.046875 73.34375 C2.68529297 74.2409375 2.68529297 74.2409375 2.31640625 75.15625 C-1.46059761 81.66431819 -11.25515074 84.70273836 -18.125 86.65625 C-35.00337574 89.6874685 -51.49859734 87.74397925 -65.953125 78.34375 C-68.64485844 76.23401298 -70.82209807 74.01314163 -72.953125 71.34375 C-73.48421875 70.68890625 -74.0153125 70.0340625 -74.5625 69.359375 C-79.07284196 63.2413864 -81.0494714 56.63620765 -82.953125 49.34375 C-83.14648438 48.69921875 -83.33984375 48.0546875 -83.5390625 47.390625 C-85.78558603 36.28516905 -83.92422932 24.42136378 -78.41015625 14.59375 C-76.71285652 12.04585842 -74.91249355 9.69499225 -72.953125 7.34375 C-72.37949219 6.63476562 -71.80585938 5.92578125 -71.21484375 5.1953125 C-54.71531346 -13.24741729 -19.08415065 -16.18335975 0 0 Z " fill="#283533" transform="translate(577.953125,123.65625)"/>
<path d="M0 0 C6.6 0 13.2 0 20 0 C21.50626953 3.01447266 21.50626953 3.01447266 23.04296875 6.08984375 C26.12639681 12.25878309 29.21492651 18.42515572 32.30567741 24.59042931 C34.94248925 29.85038595 37.57765835 35.11116412 40.21206856 40.37232399 C41.92863521 43.80026928 43.64595245 47.2278342 45.36499023 50.65454102 C53.33276081 66.53888623 61.1961856 82.45985664 68.81533813 98.51528931 C70.63909293 102.340434 72.49530394 106.14949222 74.35546875 109.95703125 C75.00326292 111.28580353 75.6510496 112.61457947 76.29882812 113.94335938 C77.26255183 115.91913068 78.22758214 117.89422718 79.19555664 119.86791992 C80.16906466 121.85425298 81.13770059 123.84289679 82.10546875 125.83203125 C82.94307739 127.54483276 82.94307739 127.54483276 83.79760742 129.29223633 C85 132 85 132 85 134 C77.08 134 69.16 134 61 134 C60.01 131.9478125 59.02 129.895625 58 127.78125 C56.66721352 125.02056906 55.33365453 122.26026169 54 119.5 C53.65342346 118.7825058 53.30684692 118.0650116 52.94976807 117.32577515 C51.90738685 115.1686327 50.86398167 113.01198831 49.8203125 110.85546875 C49.50102783 110.19450195 49.18174316 109.53353516 48.8527832 108.85253906 C46.57437182 104.14813403 44.23723653 99.47531201 41.875 94.8125 C37.74785919 86.65101005 33.97402615 78.32751316 30.15478516 70.01855469 C27.29840137 63.82753746 24.37717455 57.67883297 21.30859375 51.58984375 C21.00858963 50.99453857 20.70858551 50.3992334 20.39949036 49.78588867 C18.96076842 46.93884808 17.51075759 44.0980337 16.05004883 41.26220703 C15.53337646 40.24884277 15.0167041 39.23547852 14.484375 38.19140625 C14.02772461 37.30654541 13.57107422 36.42168457 13.10058594 35.51000977 C11.9985028 32.99658546 11.42832972 30.70314882 11 28 C10.34 28 9.68 28 9 28 C8.73058594 28.86753906 8.46117187 29.73507813 8.18359375 30.62890625 C7.03264063 33.90703344 5.65520877 36.85339981 4.0625 39.9375 C2.51054413 42.95012022 1.02843436 45.93212162 -0.28125 49.05859375 C-2.73749372 54.88766186 -5.71018744 60.48313203 -8.5625 66.125 C-9.73235991 68.43914911 -10.90040045 70.75421907 -12.06640625 73.0703125 C-12.8389978 74.59809326 -12.8389978 74.59809326 -13.62719727 76.15673828 C-14.86459314 78.71955392 -15.9430576 81.35764399 -17 84 C-1.82 84 13.36 84 29 84 C37 98 37 98 38 102 C16.88 102.33 -4.24 102.66 -26 103 C-34.25182266 118.18858486 -34.25182266 118.18858486 -41 134 C-48.92 134 -56.84 134 -65 134 C-63.46046476 129.38139428 -61.87146978 125.52054684 -59.69140625 121.22265625 C-59.3689946 120.58339706 -59.04658295 119.94413788 -58.71440125 119.2855072 C-58.02475672 117.91858722 -57.33341087 116.55252448 -56.64050293 115.18725586 C-54.80969105 111.57870513 -52.99248643 107.96332465 -51.17578125 104.34765625 C-50.81390717 103.62784576 -50.45203308 102.90803528 -50.07919312 102.16641235 C-47.0594668 96.14697383 -44.13129798 90.08693762 -41.25 84 C-37.06475554 75.16255907 -32.74019172 66.40271612 -28.32128906 57.6796875 C-25.66462819 52.41456756 -23.10480094 47.11407074 -20.62890625 41.76171875 C-16.97312315 33.8648156 -13.09941366 26.08496952 -9.1875 18.3125 C-8.51347953 16.96949756 -7.83965085 15.62639884 -7.16601562 14.28320312 C-5.9428222 11.84486523 -4.71833336 9.40719527 -3.49291992 6.9699707 C-2.32576879 4.6480748 -1.16219124 2.32438247 0 0 Z " fill="#1C6346" transform="translate(120,76)"/>
<path d="M0 0 C0.7734375 -0.01224609 1.546875 -0.02449219 2.34375 -0.03710938 C14.90263711 -0.06871731 26.14418818 4.52754714 35.25 13.1875 C44.07318874 23.35627308 44.69766729 35.10899375 44.54296875 48.04296875 C44.53735858 49.43971801 44.53309522 50.83647326 44.53010559 52.23323059 C44.51876832 55.87139809 44.48940038 59.50919397 44.45599365 63.1472168 C44.42504972 66.87478613 44.41154883 70.60241678 44.39648438 74.33007812 C44.36451713 81.61605301 44.31345968 88.90172401 44.25 96.1875 C40.93751813 96.21638146 37.62506833 96.23425799 34.3125 96.25 C33.36697266 96.25837891 32.42144531 96.26675781 31.44726562 96.27539062 C30.09858398 96.28022461 30.09858398 96.28022461 28.72265625 96.28515625 C27.47367554 96.29301147 27.47367554 96.29301147 26.19946289 96.30102539 C24.25 96.1875 24.25 96.1875 23.25 95.1875 C23.14256847 93.49159963 23.10375361 91.79130205 23.09228516 90.09204102 C23.08202301 89.00323135 23.07176086 87.91442169 23.06118774 86.7926178 C23.05388641 85.60421799 23.04658508 84.41581818 23.0390625 83.19140625 C23.01097213 80.68814475 22.98230755 78.18488963 22.953125 75.68164062 C22.91200283 71.72534511 22.87512835 67.76916609 22.84863281 63.81274414 C22.82087603 60.00121111 22.7749772 56.19022563 22.7265625 52.37890625 C22.72330963 51.20872452 22.72005676 50.03854279 22.71670532 48.832901 C22.58308589 39.8221181 21.76563417 30.47303142 15.2265625 23.66015625 C8.47453194 18.62949316 -0.27810494 17.38940882 -8.50390625 17.67578125 C-16.60749964 18.95324302 -23.57931767 22.95363778 -28.6640625 29.37890625 C-31.20820514 33.61609345 -32.00391808 37.23369908 -32.05297852 42.15527344 C-32.06962051 43.33289246 -32.08626251 44.51051147 -32.10340881 45.72381592 C-32.11182297 46.98542542 -32.12023712 48.24703491 -32.12890625 49.546875 C-32.15486472 51.53276321 -32.18082798 53.51865137 -32.2070837 55.50453568 C-32.24141702 58.27720588 -32.26704119 61.04993 -32.29260254 63.82269287 C-32.3384189 68.69229779 -32.39340448 73.5617877 -32.45530701 78.43121338 C-32.4873735 81.02307194 -32.51422888 83.61500089 -32.53553772 86.20697021 C-32.54902756 87.37198059 -32.5625174 88.53699097 -32.57641602 89.73730469 C-32.58592789 90.76813171 -32.59543976 91.79895874 -32.60523987 92.86102295 C-32.75 95.1875 -32.75 95.1875 -33.75 96.1875 C-35.15348735 96.28610131 -36.56180477 96.31828937 -37.96875 96.3203125 C-39.24298828 96.32224609 -39.24298828 96.32224609 -40.54296875 96.32421875 C-41.43628906 96.32035156 -42.32960938 96.31648438 -43.25 96.3125 C-44.14332031 96.31636719 -45.03664063 96.32023437 -45.95703125 96.32421875 C-46.80652344 96.32292969 -47.65601563 96.32164062 -48.53125 96.3203125 C-49.31564453 96.31918457 -50.10003906 96.31805664 -50.90820312 96.31689453 C-52.75 96.1875 -52.75 96.1875 -53.75 95.1875 C-53.84523905 92.29606849 -53.87553027 89.42857936 -53.86352539 86.53686523 C-53.86367142 85.62963715 -53.86381744 84.72240906 -53.8639679 83.78768921 C-53.86326841 80.77380015 -53.85547434 77.75997207 -53.84765625 74.74609375 C-53.8457922 72.66244033 -53.84436824 70.57878646 -53.84336853 68.49513245 C-53.83954234 62.99926554 -53.8297112 57.50342487 -53.81866455 52.00756836 C-53.8084526 46.40413773 -53.80387137 40.80070287 -53.79882812 35.19726562 C-53.78808902 24.193997 -53.77049141 13.19075479 -53.75 2.1875 C-46.82 2.1875 -39.89 2.1875 -32.75 2.1875 C-32.42 5.8175 -32.09 9.4475 -31.75 13.1875 C-30.656875 12.135625 -29.56375 11.08375 -28.4375 10 C-20.05239688 2.63127302 -10.86899777 0.0088799 0 0 Z " fill="#293634" transform="translate(689.75,113.8125)"/>
<path d="M0 0 C7.72330061 3.91584891 13.3166061 9.03932387 16.62670898 17.15063477 C17.70915362 20.72045522 17.71432261 24.2355082 17.6640625 27.94140625 C17.65503906 28.73530762 17.64601563 29.52920898 17.63671875 30.34716797 C17.38485769 38.89820082 15.45381604 45.00966772 9.6640625 51.44140625 C0.82916684 59.62984613 -9.9358671 61.78874683 -21.578125 61.54296875 C-27.78371062 61.15071027 -32.6449858 58.49420109 -37.7734375 55.12890625 C-38.39863281 54.73445313 -39.02382813 54.34 -39.66796875 53.93359375 C-45.04617837 50.03949767 -48.40073157 43.52323626 -49.7734375 37.12890625 C-50.38419483 25.61847963 -50.69715312 16.71221468 -43.2109375 7.44140625 C-32.29769241 -4.26001765 -14.34439057 -6.21879168 0 0 Z " fill="#FAFAFA" transform="translate(565.7734375,133.87109375)"/>
<path d="M0 0 C1.40958984 -0.00193359 1.40958984 -0.00193359 2.84765625 -0.00390625 C3.83636719 -0.00003906 4.82507813 0.00382812 5.84375 0.0078125 C7.32681641 0.00201172 7.32681641 0.00201172 8.83984375 -0.00390625 C9.77957031 -0.00261719 10.71929687 -0.00132813 11.6875 0 C12.55568359 0.00112793 13.42386719 0.00225586 14.31835938 0.00341797 C16.34375 0.1328125 16.34375 0.1328125 17.34375 1.1328125 C17.44214707 2.83875341 17.47007028 4.54879221 17.47073364 6.25756836 C17.47355347 7.3681662 17.47637329 8.47876404 17.47927856 9.62301636 C17.47725433 10.85214752 17.4752301 12.08127869 17.47314453 13.34765625 C17.47489685 14.6336673 17.47664917 15.91967834 17.47845459 17.24465942 C17.48302853 20.78175414 17.48123953 24.31881982 17.4780755 27.85591507 C17.4755517 31.54969616 17.4778895 35.24347468 17.47946167 38.93725586 C17.48128331 45.14144337 17.47887721 51.34561898 17.47412109 57.54980469 C17.46867848 64.73264614 17.47044114 71.91545921 17.4759475 79.09829998 C17.4804788 85.25455055 17.4811291 91.41079256 17.47850883 97.56704426 C17.47694615 101.24862954 17.47675205 104.93020146 17.48004532 108.61178589 C17.48345812 112.71386407 17.47873402 116.81589297 17.47314453 120.91796875 C17.47516876 122.14709991 17.47719299 123.37623108 17.47927856 124.64260864 C17.47504883 126.3085054 17.47504883 126.3085054 17.47073364 128.00805664 C17.47035662 128.97924942 17.46997959 129.9504422 17.46959114 130.95106506 C17.34375 133.1328125 17.34375 133.1328125 16.34375 134.1328125 C14.79419441 134.23180773 13.24021327 134.26360774 11.6875 134.265625 C10.27791016 134.26755859 10.27791016 134.26755859 8.83984375 134.26953125 C7.85113281 134.26566406 6.86242187 134.26179687 5.84375 134.2578125 C4.85503906 134.26167969 3.86632812 134.26554688 2.84765625 134.26953125 C1.90792969 134.26824219 0.96820313 134.26695312 0 134.265625 C-0.86818359 134.26449707 -1.73636719 134.26336914 -2.63085938 134.26220703 C-4.65625 134.1328125 -4.65625 134.1328125 -5.65625 133.1328125 C-5.75464707 131.42687159 -5.78257028 129.71683279 -5.78323364 128.00805664 C-5.78605347 126.8974588 -5.78887329 125.78686096 -5.79177856 124.64260864 C-5.78975433 123.41347748 -5.7877301 122.18434631 -5.78564453 120.91796875 C-5.78739685 119.6319577 -5.78914917 118.34594666 -5.79095459 117.02096558 C-5.79552853 113.48387086 -5.79373953 109.94680518 -5.7905755 106.40970993 C-5.7880517 102.71592884 -5.7903895 99.02215032 -5.79196167 95.32836914 C-5.79378331 89.12418163 -5.79137721 82.92000602 -5.78662109 76.71582031 C-5.78117848 69.53297886 -5.78294114 62.35016579 -5.7884475 55.16732502 C-5.7929788 49.01107445 -5.7936291 42.85483244 -5.79100883 36.69858074 C-5.78944615 33.01699546 -5.78925205 29.33542354 -5.79254532 25.65383911 C-5.79595812 21.55176093 -5.79123402 17.44973203 -5.78564453 13.34765625 C-5.78766876 12.11852509 -5.78969299 10.88939392 -5.79177856 9.62301636 C-5.78895874 8.51241852 -5.78613892 7.40182068 -5.78323364 6.25756836 C-5.78285662 5.28637558 -5.78247959 4.3151828 -5.78209114 3.31455994 C-5.55007929 -0.70790255 -3.53129961 0.00458781 0 0 Z " fill="#8AA387" transform="translate(239.65625,75.8671875)"/>
<path d="M0 0 C6.88875 -0.061875 13.7775 -0.12375 20.875 -0.1875 C23.0288623 -0.21481201 25.18272461 -0.24212402 27.40185547 -0.27026367 C29.14029381 -0.27903887 30.87873839 -0.28668035 32.6171875 -0.29296875 C33.4944751 -0.30831665 34.3717627 -0.32366455 35.27563477 -0.33947754 C43.43846362 -0.34287212 51.91895981 1.15462549 58.4609375 6.37890625 C63.40276332 11.58412888 65.31575319 17.41239746 65.625 24.5 C65.27631543 32.50089736 62.59427779 38.84753474 56.8125 44.4375 C49.65329918 49.75042333 41.26183731 50.44420447 32.6171875 50.29296875 C31.78195557 50.28994751 30.94672363 50.28692627 30.08618164 50.28381348 C27.01565904 50.26831425 23.94531489 50.22643307 20.875 50.1875 C13.98625 50.125625 7.0975 50.06375 0 50 C0 33.5 0 17 0 0 Z " fill="#FCFCFC" transform="translate(330,95)"/>
<path d="M0 0 C6.6 0 13.2 0 20 0 C21.70597818 1.70597818 21.12609838 3.90633088 21.12698364 6.23864746 C21.12980347 7.37448776 21.13262329 8.51032806 21.13552856 9.68058777 C21.13350433 10.93777115 21.1314801 12.19495453 21.12939453 13.49023438 C21.13114685 14.80550613 21.13289917 16.12077789 21.13470459 17.47590637 C21.13927865 21.09357682 21.13748948 24.71121888 21.1343255 28.32888985 C21.13180176 32.10675256 21.13413948 35.88461278 21.13571167 39.66247559 C21.13753332 46.00789834 21.13512717 52.35330948 21.13037109 58.69873047 C21.12492848 66.04516643 21.12669114 73.39157464 21.1321975 80.73800993 C21.13672875 87.03438667 21.13737912 93.33075504 21.13475883 99.62713289 C21.13319612 103.3925551 21.13300212 107.15796424 21.13629532 110.92338562 C21.13970802 115.11886247 21.13498411 119.31429113 21.12939453 123.50976562 C21.13141876 124.76694901 21.13344299 126.02413239 21.13552856 127.31941223 C21.13129883 129.02317268 21.13129883 129.02317268 21.12698364 130.76135254 C21.12660662 131.75466835 21.12622959 132.74798416 21.12584114 133.77140045 C21 136 21 136 20 137 C13.4 137 6.8 137 0 137 C0 91.79 0 46.58 0 0 Z " fill="#283533" transform="translate(447,73)"/>
<path d="M0 0 C5.28 0 10.56 0 16 0 C16 8.91 16 17.82 16 27 C24.58 27 33.16 27 42 27 C42 31.95 42 36.9 42 42 C33.42 42 24.84 42 16 42 C16 50.58 16 59.16 16 68 C10.72 68 5.44 68 0 68 C0 59.42 0 50.84 0 42 C-8.58 42 -17.16 42 -26 42 C-26 36.72 -26 31.44 -26 26 C-17.42 26 -8.84 26 0 26 C0 17.42 0 8.84 0 0 Z " fill="#1B4938" transform="translate(783,90)"/>
<path d="M0 0 C0.66 0 1.32 0 2 0 C2.28496338 0.59498291 2.56992676 1.18996582 2.86352539 1.80297852 C7.85532495 12.222064 12.85122331 22.63900311 17.890625 33.03515625 C18.21707504 33.70879715 18.54352509 34.38243805 18.87986755 35.07649231 C20.47120695 38.35975987 22.06385432 41.64238368 23.65844727 44.92407227 C25.14215784 47.98031244 26.61875863 51.03988434 28.08892822 54.10266113 C28.72226479 55.4216067 29.35709966 56.73983342 29.99310303 58.05749512 C30.98465475 60.11616814 31.96791835 62.17861166 32.94921875 64.2421875 C33.25535599 64.87504669 33.56149323 65.50790588 33.87690735 66.15994263 C35.20730948 68.97785583 36 70.84061444 36 74 C33.69 74 31.38 74 29 74 C26.03 68.39 23.06 62.78 20 57 C4.82 56.67 -10.36 56.34 -26 56 C-22.62747138 45.88241415 -22.62747138 45.88241415 -20.328125 41.3984375 C-19.83183594 40.42068359 -19.33554688 39.44292969 -18.82421875 38.43554688 C-18.30472656 37.42556641 -17.78523438 36.41558594 -17.25 35.375 C-16.1703297 33.24817959 -15.0922011 31.12057584 -14.015625 28.9921875 C-13.49677734 27.96706055 -12.97792969 26.94193359 -12.44335938 25.88574219 C-9.9901058 20.98089488 -7.69423199 16.00897858 -5.40234375 11.02734375 C-3.67989771 7.30897138 -1.86224461 3.64999944 0 0 Z " fill="#F6F9F8" transform="translate(129,104)"/>
<path d="M0 0 C2.72539743 2.72539743 4.02711298 5.98515468 5.625 9.4375 C5.94984375 10.11876953 6.2746875 10.80003906 6.609375 11.50195312 C8.00668302 14.49912011 9 16.65380142 9 20 C6.69 20 4.38 20 2 20 C-0.64 14.72 -3.28 9.44 -6 4 C-5.01 4 -4.02 4 -3 4 C-2.34 3.67 -1.68 3.34 -1 3 C-0.67 2.01 -0.34 1.02 0 0 Z " fill="#D3E3DC" transform="translate(156,158)"/>
<path d="M0 0 C0.33 0 0.66 0 1 0 C1.02527124 6.24795675 1.04283344 12.49590041 1.05493164 18.74389648 C1.05997298 20.87118014 1.06680591 22.99846031 1.07543945 25.12573242 C1.08751379 28.17627826 1.09323014 31.22677845 1.09765625 34.27734375 C1.10281754 35.23462875 1.10797882 36.19191376 1.11329651 37.1782074 C1.11340981 38.49946373 1.11340981 38.49946373 1.11352539 39.84741211 C1.115746 40.62684677 1.11796661 41.40628143 1.12025452 42.20933533 C1 44 1 44 0 45 C-1.56172745 45.08685603 -3.12729344 45.10702219 -4.69140625 45.09765625 C-5.63564453 45.09443359 -6.57988281 45.09121094 -7.55273438 45.08789062 C-8.54595703 45.07951172 -9.53917969 45.07113281 -10.5625 45.0625 C-11.55958984 45.05798828 -12.55667969 45.05347656 -13.58398438 45.04882812 C-16.05604849 45.03700007 -18.52799518 45.02051849 -21 45 C-21 44.34 -21 43.68 -21 43 C-14.4 43 -7.8 43 -1 43 C-1.0309375 39.8753125 -1.0309375 39.8753125 -1.0625 36.6875 C-1.11752602 24.45159211 -0.5043628 12.22274964 0 0 Z " fill="#4E5857" transform="translate(329,165)"/>
<path d="M0 0 C5 6.36363636 5 6.36363636 5 11 C2.69 11 0.38 11 -2 11 C-5 5.25 -5 5.25 -5 3 C-3.68 3 -2.36 3 -1 3 C-0.67 2.01 -0.34 1.02 0 0 Z " fill="#94B9AC" transform="translate(160,167)"/>
<path d="M0 0 C0.33 0 0.66 0 1 0 C1.36020428 4.99783437 0.34389935 7.98018872 -2 12.375 C-2.556875 13.43460938 -3.11375 14.49421875 -3.6875 15.5859375 C-4.120625 16.38257812 -4.55375 17.17921875 -5 18 C-5.99 18 -6.98 18 -8 18 C-6.65150163 13.64029169 -4.95092154 9.68658562 -2.875 5.625 C-2.33617188 4.56539063 -1.79734375 3.50578125 -1.2421875 2.4140625 C-0.83226563 1.61742188 -0.42234375 0.82078125 0 0 Z " fill="#3B7F62" transform="translate(120,76)"/>
<path d="M0 0 C0.33 0 0.66 0 1 0 C1.33 2.64 1.66 5.28 2 8 C1.01 8.495 1.01 8.495 0 9 C-0.47597366 11.70599842 -0.84093629 14.33595404 -1.125 17.0625 C-1.21136719 17.82111328 -1.29773438 18.57972656 -1.38671875 19.36132812 C-1.59939517 21.23996986 -1.80075459 23.11988636 -2 25 C-2.33 25 -2.66 25 -3 25 C-3.32177688 16.06175331 -3.33530434 8.43752585 0 0 Z " fill="#656F6D" transform="translate(497,144)"/>
<path d="M0 0 C0.66 0 1.32 0 2 0 C1.38367054 4.95998472 -0.79835629 8.93671966 -3.0625 13.3125 C-3.62807617 14.42334961 -3.62807617 14.42334961 -4.20507812 15.55664062 C-5.13128157 17.37387522 -6.06490629 19.18732404 -7 21 C-7.66 20.67 -8.32 20.34 -9 20 C-8.7215625 19.45214844 -8.443125 18.90429688 -8.15625 18.33984375 C-6.88588021 15.76906165 -5.6874095 13.17262882 -4.5 10.5625 C-4.0771875 9.63566406 -3.654375 8.70882812 -3.21875 7.75390625 C-2.08418971 5.19023636 -1.02310166 2.60985656 0 0 Z " fill="#0B5235" transform="translate(87,186)"/>
<path d="M0 0 C2 2 2 2 2.125 4.625 C2.08375 5.40875 2.0425 6.1925 2 7 C-1 8 -1 8 -4 7 C-4.6875 4.9375 -4.6875 4.9375 -5 3 C-2.525 3.495 -2.525 3.495 0 4 C0 2.68 0 1.36 0 0 Z " fill="#BBD6CC" transform="translate(158,163)"/>
<path d="M0 0 C0.99 0 1.98 0 3 0 C3.67408308 1.26691507 4.33900497 2.53870749 5 3.8125 C5.556875 4.87404297 5.556875 4.87404297 6.125 5.95703125 C7 8 7 8 7 11 C6.34 11 5.68 11 5 11 C3.35 7.37 1.7 3.74 0 0 Z " fill="#2E7457" transform="translate(136,116)"/>
<path d="M0 0 C0.66 0.99 1.32 1.98 2 3 C0.35 4.65 -1.3 6.3 -3 8 C-3.99 7.67 -4.98 7.34 -6 7 C-4.02 4.69 -2.04 2.38 0 0 Z " fill="#323F3D" transform="translate(579,179)"/>
<path d="M0 0 C0.66 0.99 1.32 1.98 2 3 C0.625 5.5 0.625 5.5 -1 8 C-1.66 8 -2.32 8 -3 8 C-1.125 2.25 -1.125 2.25 0 0 Z " fill="#34745C" transform="translate(80,157)"/>
<path d="M0 0 C0.66 0.66 1.32 1.32 2 2 C1.01 3.98 0.02 5.96 -1 8 C-1.66 7.67 -2.32 7.34 -3 7 C-1.125 1.125 -1.125 1.125 0 0 Z " fill="#F0F6F3" transform="translate(80,153)"/>
</svg>
